<svg width="100" height="100" viewBox="0 0 100 100" fill="none" xmlns="http://www.w3.org/2000/svg">
<path d="M40.625 96.875C40.4219 96.875 40.2344 96.8438 40.0469 96.7656C27.1406 91.6094 3.125 82 3.125 56.1875V37.5C3.125 36.6406 3.82812 35.9375 4.6875 35.9375C5.54688 35.9375 6.25 36.6406 6.25 37.5V56.1875C6.25 77.7969 23.8906 86.8906 40.625 93.625C44.7031 91.9844 49.4062 90 53.8438 87.5469C54.0233 87.4474 54.2207 87.3842 54.4246 87.3609C54.6286 87.3377 54.8351 87.3549 55.0325 87.4115C55.2298 87.468 55.414 87.5629 55.5747 87.6907C55.7353 87.8185 55.8692 87.9767 55.9688 88.1562C56.0683 88.3358 56.1314 88.5332 56.1547 88.7371C56.1779 88.9411 56.1608 89.1476 56.1042 89.345C56.0476 89.5423 55.9527 89.7265 55.8249 89.8872C55.6971 90.0478 55.5389 90.1817 55.3594 90.2812C50.5625 92.9375 45.5156 95.0469 41.2188 96.75C41.0312 96.8281 40.8438 96.8594 40.6406 96.8594L40.625 96.875ZM76.5625 50.8281C75.7031 50.8281 75 50.125 75 49.2656V20.2812C59.5312 19.625 44.5312 9.48438 40.625 6.64062C36.7188 9.48438 21.7188 19.625 6.25 20.2812V31.25C6.25 32.1094 5.54688 32.8125 4.6875 32.8125C3.82812 32.8125 3.125 32.1094 3.125 31.25V18.75C3.125 17.8906 3.82812 17.1875 4.6875 17.1875C21.7656 17.1875 39.4844 3.59375 39.6719 3.45312C40.2344 3.01563 41.0312 3.01563 41.5938 3.45312C41.7656 3.59375 59.5 17.1875 76.5781 17.1875C77.4375 17.1875 78.1406 17.8906 78.1406 18.75V49.2656C78.1406 50.125 77.4375 50.8281 76.5781 50.8281H76.5625Z" fill="#1C74E8"/>
<path d="M40.625 88.4375C40.4219 88.4375 40.2188 88.3906 40.0313 88.3125C33.2969 85.5312 28.5156 83.0469 24.5156 80.2969C24.3469 80.1803 24.2029 80.0315 24.0919 79.8591C23.9809 79.6866 23.9051 79.494 23.8688 79.2921C23.8325 79.0903 23.8365 78.8833 23.8804 78.683C23.9244 78.4827 24.0075 78.2931 24.125 78.125C24.6094 77.4219 25.5938 77.2344 26.2969 77.7344C29.9844 80.2812 34.4219 82.5938 40.625 85.1875C44.9219 83.3906 48.3125 81.75 51.25 80.0625C52 79.625 52.9531 79.8906 53.3906 80.6406C53.8281 81.3906 53.5625 82.3438 52.8125 82.7812C49.6094 84.625 45.9375 86.3906 41.2187 88.3438C41.0312 88.4219 40.8281 88.4688 40.625 88.4688V88.4375ZM20.5313 76.6094C20.1406 76.6094 19.75 76.4688 19.4531 76.1719C13.7344 70.6406 10.9375 64.1094 10.9375 56.1875V25.8594C10.9375 25.0938 11.4844 24.4531 12.2344 24.3125C23.8125 22.3281 34.4687 16.2812 39.7812 12.8594C40.2969 12.5313 40.9531 12.5313 41.4688 12.8594C46.7812 16.2812 57.4219 22.3125 69.0156 24.3125C69.3798 24.3753 69.7099 24.5652 69.9474 24.8484C70.1848 25.1316 70.3142 25.4898 70.3125 25.8594V51.0312C70.3125 51.8906 69.6094 52.5938 68.75 52.5938C67.8906 52.5938 67.1875 51.8906 67.1875 51.0312V27.1562C56.1562 24.9844 46.1562 19.5156 40.625 16.0313C35.0938 19.5 25.0938 24.9844 14.0625 27.1562V56.1875C14.0625 63.2188 16.5312 69.0156 21.6094 73.9219C22.2344 74.5156 22.25 75.5156 21.6562 76.125C21.3437 76.4375 20.9375 76.6094 20.5313 76.6094Z" fill="#1C74E8"/>
<path d="M45.3125 68.75H35.9375C35.0781 68.75 34.375 68.0469 34.375 67.1875V56.25H23.4375C22.5781 56.25 21.875 55.5469 21.875 54.6875V45.3125C21.875 44.4531 22.5781 43.75 23.4375 43.75H34.375V32.8125C34.375 31.9531 35.0781 31.25 35.9375 31.25H45.3125C46.1719 31.25 46.875 31.9531 46.875 32.8125V43.75H57.8125C58.6719 43.75 59.375 44.4531 59.375 45.3125V54.6875C59.375 55.5469 58.6719 56.25 57.8125 56.25H46.875V67.1875C46.875 68.0469 46.1719 68.75 45.3125 68.75ZM37.5 65.625H43.75V54.6875C43.75 53.8281 44.4531 53.125 45.3125 53.125H56.25V46.875H45.3125C44.4531 46.875 43.75 46.1719 43.75 45.3125V34.375H37.5V45.3125C37.5 46.1719 36.7969 46.875 35.9375 46.875H25V53.125H35.9375C36.7969 53.125 37.5 53.8281 37.5 54.6875V65.625ZM76.9531 96.8906C74.9219 96.8906 72.7031 96.1094 70.6406 93.9063C70.4844 93.7411 70.3668 93.5433 70.2966 93.3271C70.2263 93.1109 70.205 92.8817 70.2344 92.6563C70.2812 92.2031 70.5312 91.7969 70.9219 91.5313C70.9219 91.5313 71.5469 91.0938 72.1562 90.3438C70.5065 90.0433 68.9175 89.4731 67.4531 88.6563C67.2187 89.125 67.0781 89.5625 67.0156 89.9844C66.9062 90.8281 66.125 91.4375 65.2656 91.3125C65.125 91.2969 61.625 90.7969 59.5781 88.1094C58.3594 86.5156 57.9062 84.5313 58.2187 82.2188C58.2489 81.999 58.3254 81.7882 58.4433 81.6004C58.5612 81.4125 58.7177 81.2519 58.9025 81.1293C59.0872 81.0066 59.296 80.9247 59.5148 80.8889C59.7337 80.8531 59.9577 80.8644 60.1719 80.9219C60.1719 80.9219 60.3281 80.9688 60.5937 81C60.0469 79.7031 59.6875 78.3281 59.5 76.9219C58.5469 77.125 57.75 77.4531 57.1562 77.875C56.4688 78.375 55.5156 78.2344 54.9844 77.5469C54.8906 77.4219 52.6719 74.4375 53.2031 70.8594C53.5312 68.7031 54.75 66.8281 56.8438 65.3125C57.0222 65.1828 57.2262 65.0924 57.4421 65.0473C57.6581 65.0021 57.8811 65.0031 58.0966 65.0504C58.3121 65.0976 58.5152 65.1899 58.6924 65.3213C58.8697 65.4527 59.0171 65.6201 59.125 65.8125C59.125 65.8125 59.8125 67.0156 61.0937 67.8594C61.7969 66.5 62.6875 65.2344 63.75 64.1406C63.3437 63.8906 62.9375 63.7031 62.5469 63.5938C62.1406 63.4844 61.7969 63.2188 61.5937 62.8594C61.3906 62.5 61.3438 62.0625 61.4531 61.6719C62.2188 58.9844 65.3125 54.3438 71.5781 56.0625C72.0156 56.1875 72.375 56.4844 72.5781 56.9062C72.7812 57.3281 72.7812 57.7969 72.5937 58.2031C72.5937 58.2031 72.3438 58.7969 72.25 59.6094C73.8071 59.3225 75.4 59.2856 76.9687 59.5C77.0312 58.1563 76.8437 57.0156 76.4219 56.1875C76.2344 55.8125 76.2031 55.375 76.3281 54.9844C76.4531 54.5938 76.75 54.2656 77.125 54.0781C79.875 52.7344 85.875 51.8281 89.0156 57.9844C89.2188 58.3906 89.25 58.875 89.0625 59.2969C88.8906 59.7188 88.5312 60.0469 88.1094 60.1875C88.0937 60.1875 85.8906 60.9688 84.8437 62.875C85.6094 63.5 86.2969 64.1875 86.9375 64.9375C87.2031 64.4531 87.3594 63.9844 87.4375 63.5469C87.5625 62.7031 88.3437 62.1094 89.2187 62.25C89.3594 62.2656 92.8437 62.8281 94.8594 65.5625C96.0469 67.1875 96.4687 69.1719 96.1094 71.4844C96.0757 71.7042 95.9952 71.9143 95.8733 72.1003C95.7513 72.2863 95.5908 72.444 95.4026 72.5625C95.2144 72.6811 95.0029 72.7578 94.7825 72.7874C94.5621 72.8171 94.3378 72.799 94.125 72.7344C94.125 72.7344 92.2344 72.2188 90.5156 72.9531C90.6094 73.6406 90.6562 74.3281 90.6562 75.0156C90.6562 75.5156 90.625 76.0312 90.5625 76.5781C91.8125 77.3438 93.5937 78.1875 95.2344 78.0781C95.4386 78.0646 95.6435 78.0914 95.8373 78.1571C96.0311 78.2228 96.2101 78.3261 96.3639 78.4611C96.5178 78.5961 96.6435 78.7601 96.7339 78.9437C96.8242 79.1274 96.8775 79.327 96.8906 79.5313C96.8906 79.6875 97.1094 83.3438 94.7344 86.0625C93.2812 87.7188 91.2187 88.6563 88.6094 88.8125C88.1562 88.8438 87.7187 88.6719 87.3906 88.3438C87.0625 88.0156 86.9062 87.5781 86.9375 87.125C86.9375 87.125 86.9844 86.3125 86.7344 85.3125C85.3594 86.875 83.6719 88.1563 81.7969 89.0625C82.0469 90.1875 82.5 91.3906 83.2656 92.2344C83.5469 92.5469 83.7031 92.9531 83.6875 93.375C83.6719 93.7969 83.4844 94.1875 83.1719 94.4688C81.8906 95.6094 79.5781 96.8906 76.9687 96.8906H76.9531ZM74.1406 92.8281C76.4062 94.3906 78.625 93.6563 79.9375 92.9375C79.2187 91.7031 78.7344 90.1563 78.5 88.3438C78.4062 87.625 78.8125 86.9375 79.4844 86.6719C82.0469 85.6875 84.2344 83.8594 85.6719 81.5156C85.9375 81.0781 86.4062 80.7969 86.9219 80.7656C87.4375 80.7344 87.9219 80.9688 88.25 81.375C89.3125 82.75 89.7656 84.2812 89.9375 85.4531C92.625 84.7031 93.4375 82.5625 93.6719 81.1094C91.4844 80.7656 89.4375 79.625 87.9687 78.625C87.4687 78.2813 87.2188 77.6875 87.3125 77.0781C87.4375 76.3281 87.5 75.6406 87.5 75C87.5 74.1406 87.4062 73.2812 87.2344 72.4531C87.1094 71.8594 87.3438 71.2344 87.8438 70.875C89.625 69.5781 91.6094 69.375 93.0469 69.4375C92.8281 67.2031 91.25 66.1563 90.0156 65.6875C89.6094 66.6719 88.9687 67.6563 88.1094 68.6406C87.7812 69.0156 87.3125 69.2188 86.8125 69.1719C86.3125 69.125 85.875 68.8594 85.6094 68.4375C84.6719 66.9375 83.4844 65.6719 82.0469 64.7031C81.5 64.3281 81.25 63.6406 81.4219 63C82.125 60.4688 83.9375 58.9219 85.3437 58.0781C83.5937 55.9687 81.25 56.0938 79.7969 56.4531C80.2344 58.2656 80.0937 60.1875 79.8594 61.625C79.7812 62.0469 79.5312 62.4375 79.1719 62.6719C78.8125 62.9063 78.3594 62.9844 77.9375 62.8906C75.5937 62.3281 73.3437 62.4375 71.2031 63.1094C70.9948 63.1756 70.7749 63.1973 70.5577 63.1731C70.3405 63.1489 70.1308 63.0793 69.9422 62.9688C69.7536 62.8583 69.5904 62.7094 69.463 62.5317C69.3357 62.354 69.2472 62.1516 69.2031 61.9375C68.9687 60.7969 69.0312 59.7344 69.1719 58.875C66.9687 58.8594 65.6406 60.2188 65 61.3125C65.75 61.7344 66.4844 62.2813 67.2187 62.9844C67.3799 63.1356 67.5067 63.3198 67.5904 63.5243C67.6741 63.7289 67.7128 63.949 67.704 64.1699C67.6951 64.3907 67.6388 64.607 67.5389 64.8042C67.439 65.0014 67.2978 65.1747 67.125 65.3125C65.4154 66.7005 64.1051 68.5176 63.3281 70.5781C63.0312 71.3594 62.1719 71.7656 61.375 71.5C59.625 70.9219 58.3438 69.8125 57.5156 68.8906C56.8438 69.6406 56.4219 70.4531 56.2969 71.3281C56.1094 72.5313 56.4531 73.7031 56.8281 74.5156C57.9531 74.0312 59.2969 73.7188 60.8281 73.6094C61.0415 73.5921 61.2562 73.6193 61.4585 73.6892C61.6609 73.7592 61.8465 73.8704 62.0037 74.0158C62.1608 74.1612 62.2861 74.3376 62.3715 74.5339C62.4569 74.7302 62.5007 74.9422 62.5 75.1562C62.5312 77.4688 63.1875 79.7188 64.4375 81.6875C64.7188 82.125 64.75 82.6563 64.5625 83.1406C64.3594 83.6094 63.9375 83.9531 63.4375 84.0625C62.6562 84.2188 61.9062 84.2656 61.2812 84.25C61.5469 86.4844 63.1406 87.4844 64.375 87.9375C64.6875 87.1719 65.125 86.4063 65.6875 85.625C66.1875 84.9375 67.1562 84.7813 67.8437 85.2656C69.8594 86.6719 72.2344 87.4531 74.7031 87.5156C75.2031 87.5156 75.6562 87.7813 75.9375 88.1875C76.2187 88.5938 76.2969 89.1094 76.1406 89.5781C75.6719 90.9688 74.8594 92.0781 74.1406 92.8594V92.8281Z" fill="#1C74E8"/>
<path d="M82.8125 75C78.5 75 75 71.5 75 67.1875C75 66.3281 75.7031 65.625 76.5625 65.625C77.4219 65.625 78.125 66.3281 78.125 67.1875C78.125 69.7656 80.2344 71.875 82.8125 71.875C83.6719 71.875 84.375 72.5781 84.375 73.4375C84.375 74.2969 83.6719 75 82.8125 75ZM73.4375 82.8125C72.5781 82.8125 71.875 82.1094 71.875 81.25C71.875 78.6719 69.7656 76.5625 67.1875 76.5625C66.3281 76.5625 65.625 75.8594 65.625 75C65.625 74.1406 66.3281 73.4375 67.1875 73.4375C71.5 73.4375 75 76.9375 75 81.25C75 82.1094 74.2969 82.8125 73.4375 82.8125Z" fill="#1C74E8"/>
</svg>
