<svg width="100" height="100" viewBox="0 0 100 100" fill="none" xmlns="http://www.w3.org/2000/svg">
<mask id="mask0_549_941" style="mask-type:luminance" maskUnits="userSpaceOnUse" x="0" y="0" width="100" height="100">
<path d="M0 0.000289917H99.9997V100H0V0.000289917Z" fill="white"/>
</mask>
<g mask="url(#mask0_549_941)">
<path d="M80.7724 19.4285C88.5636 27.2697 93.3765 38.0726 93.3765 50.0031C93.3765 52.1138 91.6525 53.8435 89.5361 53.8435C87.4253 53.8435 85.6958 52.1138 85.6958 50.0031C85.6958 30.2812 69.7156 14.3006 49.9999 14.3006C49.2153 14.3006 49.2208 14.3006 49.2208 15.2012V18.5498C49.2208 19.6662 48.8284 19.6551 48.0051 19.0307L38.7606 12.0073C37.545 11.0846 37.5507 9.83579 38.7606 8.91294L48.0051 1.88952C48.8284 1.2651 49.2262 1.25417 49.2262 2.37038V5.72447C49.2262 6.62525 49.2208 6.61958 49.9999 6.61958C59.5262 6.61958 68.3342 9.69203 75.4953 14.8973M21.8742 83.0309C29.4499 89.485 39.269 93.3807 49.9999 93.3807C50.7846 93.3807 50.7792 93.3807 50.7792 94.276V97.6301C50.7792 98.7463 51.1768 98.7351 51.9948 98.1107L61.2391 91.0875C62.4547 90.1646 62.4547 88.9158 61.2391 87.993L51.9948 80.9698C51.1713 80.3453 50.7735 80.3342 50.7735 81.4504V84.8047C50.7735 85.6998 50.7846 85.6998 49.9999 85.6998C30.2843 85.6998 14.3041 69.719 14.3041 50.0031C14.3041 47.8867 12.5746 46.1624 10.4638 46.1624C8.34744 46.1624 6.62323 47.8867 6.62323 50.0031C6.62323 60.5352 10.3752 70.1942 16.6248 77.7094" stroke="#16B462" stroke-width="2.5" stroke-miterlimit="10" stroke-linecap="round" stroke-linejoin="round"/>
<path d="M57.2881 45.538C55.7631 47.0632 53.293 47.0632 51.768 45.538C50.2428 44.0185 50.2428 41.5429 51.768 40.0177C53.293 38.4925 55.7631 38.4925 57.2881 40.0177C58.8133 41.5429 58.8133 44.0185 57.2881 45.538Z" stroke="#16B462" stroke-width="2.5" stroke-miterlimit="10" stroke-linecap="round" stroke-linejoin="round"/>
<path d="M36.5614 63.0051C34.2903 65.2817 30.5993 65.2817 28.3282 63.0051C26.0515 60.7286 26.0515 57.0428 28.3282 54.7715C30.5993 52.495 34.2903 52.495 36.5614 54.7715C38.838 57.0428 38.838 60.7286 36.5614 63.0051Z" stroke="#16B462" stroke-width="2.5" stroke-miterlimit="10" stroke-linecap="round" stroke-linejoin="round"/>
<path d="M39.0536 36.7189C36.777 38.99 33.0913 38.99 30.8148 36.7189C28.5437 34.4422 28.5437 30.7566 30.8148 28.4799C33.0913 26.2088 36.777 26.2088 39.0536 28.4799C41.3245 30.7566 41.3245 34.4422 39.0536 36.7189Z" stroke="#16B462" stroke-width="2.5" stroke-miterlimit="10" stroke-linecap="round" stroke-linejoin="round"/>
<path d="M72.9314 70.592C69.6822 73.8412 64.4162 73.8412 61.1672 70.592C57.9182 67.3428 57.9182 62.0768 61.1672 58.8276C64.4162 55.5784 69.6822 55.5784 72.9314 58.8276C76.1804 62.0768 76.1804 67.3428 72.9314 70.592Z" stroke="#16B462" stroke-width="2.5" stroke-miterlimit="10" stroke-linecap="round" stroke-linejoin="round"/>
<path d="M59.1559 67.3374C56.9899 68.1387 54.6469 68.5751 52.2045 68.5751C46.3198 68.5751 41.0317 66.0442 37.3626 62.0104M40.7333 32.0715C43.9825 29.8006 47.9387 28.4633 52.2045 28.4633C63.2779 28.4633 72.2574 37.4425 72.2574 48.522C72.2574 51.5779 71.5721 54.4788 70.351 57.0704M32.6659 53.0697C32.3231 51.5781 32.1507 50.0525 32.1519 48.522C32.1519 44.8363 33.1411 41.388 34.8761 38.4207" stroke="#16B462" stroke-width="2.5" stroke-miterlimit="10" stroke-linecap="round" stroke-linejoin="round"/>
</g>
</svg>
