<svg width="100" height="100" viewBox="0 0 100 100" fill="none" xmlns="http://www.w3.org/2000/svg">
<mask id="mask0_549_941" style="mask-type:luminance" maskUnits="userSpaceOnUse" x="0" y="0" width="100" height="100">
<path d="M0 0.000289917H99.9997V100H0V0.000289917Z" fill="white"/>
</mask>
<g mask="url(#mask0_549_941)">
<path d="M80.7724 19.4285C88.5636 27.2697 93.3764 38.0726 93.3764 50.0031C93.3764 52.1138 91.6524 53.8435 89.536 53.8435C87.4253 53.8435 85.6958 52.1138 85.6958 50.0031C85.6958 30.2812 69.7156 14.3006 49.9998 14.3006C49.2152 14.3006 49.2207 14.3006 49.2207 15.2012V18.5498C49.2207 19.6662 48.8283 19.6551 48.0051 19.0307L38.7606 12.0073C37.545 11.0846 37.5506 9.83579 38.7606 8.91294L48.0051 1.88952C48.8283 1.2651 49.2262 1.25417 49.2262 2.37038V5.72447C49.2262 6.62525 49.2207 6.61958 49.9998 6.61958C59.5261 6.61958 68.3341 9.69203 75.4952 14.8973M21.8741 83.0309C29.4499 89.485 39.269 93.3807 49.9998 93.3807C50.7846 93.3807 50.7791 93.3807 50.7791 94.276V97.6301C50.7791 98.7463 51.1767 98.7351 51.9947 98.1107L61.239 91.0875C62.4546 90.1646 62.4546 88.9158 61.239 87.993L51.9947 80.9698C51.1713 80.3453 50.7734 80.3342 50.7734 81.4504V84.8047C50.7734 85.6998 50.7846 85.6998 49.9998 85.6998C30.2842 85.6998 14.304 69.719 14.304 50.0031C14.304 47.8867 12.5745 46.1624 10.4638 46.1624C8.34738 46.1624 6.62317 47.8867 6.62317 50.0031C6.62317 60.5352 10.3751 70.1942 16.6247 77.7094" stroke="#1C74E8" stroke-width="2.5" stroke-miterlimit="10" stroke-linecap="round" stroke-linejoin="round"/>
<path d="M57.288 45.538C55.763 47.0632 53.2929 47.0632 51.7679 45.538C50.2427 44.0185 50.2427 41.5429 51.7679 40.0177C53.2929 38.4925 55.763 38.4925 57.288 40.0177C58.8132 41.5429 58.8132 44.0185 57.288 45.538Z" stroke="#1C74E8" stroke-width="2.5" stroke-miterlimit="10" stroke-linecap="round" stroke-linejoin="round"/>
<path d="M36.5613 63.0051C34.2903 65.2817 30.5993 65.2817 28.3282 63.0051C26.0514 60.7286 26.0514 57.0428 28.3282 54.7715C30.5993 52.495 34.2903 52.495 36.5613 54.7715C38.8379 57.0428 38.8379 60.7286 36.5613 63.0051Z" stroke="#1C74E8" stroke-width="2.5" stroke-miterlimit="10" stroke-linecap="round" stroke-linejoin="round"/>
<path d="M39.0535 36.7189C36.7769 38.99 33.0912 38.99 30.8146 36.7189C28.5436 34.4422 28.5436 30.7566 30.8146 28.4799C33.0912 26.2088 36.7769 26.2088 39.0535 28.4799C41.3244 30.7566 41.3244 34.4422 39.0535 36.7189Z" stroke="#1C74E8" stroke-width="2.5" stroke-miterlimit="10" stroke-linecap="round" stroke-linejoin="round"/>
<path d="M72.9313 70.592C69.6821 73.8412 64.4161 73.8412 61.1671 70.592C57.9181 67.3428 57.9181 62.0768 61.1671 58.8276C64.4161 55.5784 69.6821 55.5784 72.9313 58.8276C76.1803 62.0768 76.1803 67.3428 72.9313 70.592Z" stroke="#1C74E8" stroke-width="2.5" stroke-miterlimit="10" stroke-linecap="round" stroke-linejoin="round"/>
<path d="M59.1559 67.3374C56.9899 68.1387 54.6469 68.5751 52.2045 68.5751C46.3198 68.5751 41.0317 66.0442 37.3626 62.0104M40.7333 32.0715C43.9825 29.8006 47.9387 28.4633 52.2045 28.4633C63.2779 28.4633 72.2574 37.4425 72.2574 48.522C72.2574 51.5779 71.5721 54.4788 70.351 57.0704M32.6659 53.0697C32.3231 51.5781 32.1507 50.0525 32.1519 48.522C32.1519 44.8363 33.1411 41.388 34.8761 38.4207" stroke="#1C74E8" stroke-width="2.5" stroke-miterlimit="10" stroke-linecap="round" stroke-linejoin="round"/>
</g>
</svg>
