<svg width="100" height="100" viewBox="0 0 100 100" fill="none" xmlns="http://www.w3.org/2000/svg">
<path d="M50 17.5859C32.1281 17.5859 17.5859 32.1281 17.5859 50C17.5859 67.8719 32.1281 82.4141 50 82.4141C67.8719 82.4141 82.4141 67.8719 82.4141 50C82.4141 32.1281 67.8719 17.5859 50 17.5859ZM50 79.2891C33.85 79.2891 20.7109 66.15 20.7109 50C20.7109 33.85 33.85 20.7109 50 20.7109C66.15 20.7109 79.2891 33.85 79.2891 50C79.2891 66.15 66.15 79.2891 50 79.2891Z" fill="#1C74E8"/>
<path d="M50 11.2625C28.6406 11.2625 11.2625 28.6406 11.2625 50C11.2625 71.3593 28.6406 88.7374 50 88.7374C71.3593 88.7374 88.7374 71.3593 88.7374 50C88.7374 28.6406 71.3593 11.2625 50 11.2625ZM50 85.6124C30.364 85.6124 14.3875 69.6359 14.3875 50C14.3875 30.364 30.364 14.3875 50 14.3875C69.6359 14.3875 85.6124 30.364 85.6124 50C85.6124 69.6359 69.6359 85.6124 50 85.6124Z" fill="#1C74E8"/>
<path d="M68.0874 56.6109C67.9011 56.5249 67.6997 56.4765 67.4947 56.4683C67.2896 56.4602 67.085 56.4925 66.8925 56.5635C66.6999 56.6344 66.5233 56.7426 66.3725 56.8819C66.2218 57.0211 66.1 57.1886 66.014 57.375C65.6999 58.0562 65.3328 58.7125 64.9328 59.3484L60.0296 55.7796C61.0511 54.0236 61.5897 52.0284 61.5906 49.9968C61.5906 43.6062 56.3921 38.4078 50.0015 38.4078C48.5246 38.4089 47.0616 38.6937 45.6921 39.2468L43.0156 33.8203C44.046 33.3715 45.117 33.0225 46.214 32.7781C46.4144 32.7342 46.6041 32.6512 46.7724 32.534C46.9408 32.4167 47.0843 32.2675 47.195 32.0947C47.3056 31.922 47.3811 31.7292 47.4172 31.5273C47.4533 31.3253 47.4493 31.1183 47.4054 30.9179C47.3615 30.7176 47.2786 30.5278 47.1613 30.3595C47.0441 30.1912 46.8948 30.0476 46.7221 29.937C46.5494 29.8263 46.3565 29.7508 46.1546 29.7147C45.9527 29.6786 45.7456 29.6826 45.5453 29.7265C43.6781 30.1343 41.9031 30.8046 40.2437 31.689C40.2374 31.6921 40.2296 31.6906 40.2234 31.6937L40.2031 31.7093C38.1878 32.7873 36.3644 34.1905 34.8062 35.8625C34.5238 36.1658 34.3734 36.5689 34.3882 36.9831C34.403 37.3973 34.5818 37.7886 34.8851 38.071C35.1884 38.3535 35.5916 38.5038 36.0057 38.489C36.4199 38.4742 36.8113 38.2955 37.0937 37.9921C38.0408 36.9746 39.1044 36.072 40.2624 35.3031L42.9734 40.8C41.5567 41.8779 40.4081 43.2684 39.617 44.8631C38.8259 46.4578 38.4137 48.2136 38.4124 49.9937C38.4124 56.3843 43.6109 61.5828 50.0015 61.5828C53.0404 61.5832 55.9569 60.3857 58.1187 58.25L63.0265 61.8203C62.3656 62.5484 61.664 63.2437 60.8906 63.8531C60.5649 64.1094 60.3543 64.4846 60.3052 64.8961C60.2561 65.3077 60.3726 65.7219 60.6289 66.0476C60.8852 66.3733 61.2604 66.5839 61.6719 66.633C62.0835 66.682 62.4977 66.5656 62.8234 66.3093C64.2094 65.2087 65.45 63.9365 66.5156 62.5234C66.5328 62.5015 66.5609 62.4937 66.5781 62.4703C66.6015 62.4375 66.6062 62.3984 66.6265 62.364C67.4947 61.2155 68.2409 59.9796 68.8531 58.6765C69.0246 58.301 69.0403 57.8727 68.8968 57.4856C68.7533 57.0985 68.4623 56.7839 68.0874 56.6109ZM49.9999 58.464C45.3328 58.464 41.5359 54.6671 41.5359 50C41.5359 45.3328 45.3328 41.5359 49.9999 41.5359C54.6671 41.5359 58.464 45.3328 58.464 50C58.464 54.6671 54.6671 58.464 49.9999 58.464ZM65.3218 30.3406C63.5796 28.7515 60.6312 28.8859 59.0453 30.6281C58.2453 31.5046 57.8343 32.639 57.8874 33.825C57.9406 35.0109 58.4531 36.1046 59.3296 36.9046L63.4406 40.6562C63.871 41.0503 64.375 41.3556 64.9237 41.5546C65.4723 41.7537 66.0548 41.8425 66.6379 41.8161C67.2209 41.7897 67.793 41.6485 68.3214 41.4007C68.8497 41.1529 69.3241 40.8032 69.7171 40.3718C70.5187 39.4937 70.9296 38.3593 70.8749 37.1734C70.8203 35.9875 70.3093 34.8937 69.4328 34.0937L65.3218 30.3406ZM67.4109 38.264C67.1711 38.5152 66.8435 38.6642 66.4966 38.6799C66.1496 38.6957 65.81 38.5769 65.5484 38.3484L61.4374 34.5968C61.3095 34.4801 61.2058 34.3393 61.1323 34.1824C61.0588 34.0256 61.0169 33.8558 61.009 33.6828C61.0011 33.5098 61.0273 33.3369 61.0862 33.174C61.1451 33.0112 61.2355 32.8615 61.3523 32.7335C61.469 32.6056 61.6099 32.5019 61.7667 32.4284C61.9235 32.3549 62.0933 32.313 62.2663 32.3051C62.4393 32.2972 62.6122 32.3234 62.7751 32.3823C62.938 32.4412 63.0876 32.5316 63.2156 32.6484L67.3265 36.4015C67.5846 36.6374 67.7384 36.966 67.7543 37.3153C67.7701 37.6646 67.6466 38.0058 67.4109 38.264ZM46.2546 66.0828L41.3671 63.4187C40.855 63.1388 40.2927 62.9626 39.7124 62.9003C39.1321 62.8379 38.5452 62.8906 37.9853 63.0553C37.4254 63.22 36.9035 63.4936 36.4494 63.8602C35.9953 64.2269 35.618 64.6795 35.339 65.1921C35.0579 65.704 34.8813 66.2666 34.8193 66.8473C34.7573 67.428 34.8113 68.0153 34.9781 68.575C35.3124 69.714 36.0718 70.6531 37.114 71.2203L42.0015 73.8843C42.5136 74.1648 43.076 74.3414 43.6565 74.404C44.237 74.4665 44.8242 74.4138 45.3843 74.2489C45.9443 74.084 46.4664 73.8101 46.9203 73.4429C47.3743 73.0758 47.7513 72.6226 48.0296 72.1093C48.3108 71.5977 48.4875 71.0354 48.5494 70.4549C48.6114 69.8745 48.5574 69.2875 48.3906 68.7281C48.227 68.1679 47.954 67.6457 47.5874 67.1916C47.2208 66.7375 46.7678 66.3607 46.2546 66.0828ZM45.2843 70.614C45.1122 70.9162 44.8297 71.14 44.4962 71.2385C44.1626 71.337 43.8039 71.3024 43.4953 71.1421L38.6078 68.4781C38.4553 68.3955 38.3207 68.2836 38.2118 68.1487C38.103 68.0137 38.0219 67.8586 37.9734 67.6921C37.9017 67.4423 37.9052 67.1769 37.9835 66.929C38.0618 66.6812 38.2115 66.462 38.4137 66.2987C38.616 66.1355 38.8619 66.0355 39.1207 66.0112C39.3795 65.987 39.6396 66.0396 39.8687 66.1625L44.7562 68.8265C44.9086 68.9089 45.0431 69.0208 45.1518 69.1557C45.2604 69.2907 45.3411 69.446 45.389 69.6124C45.4398 69.7779 45.4566 69.9518 45.4387 70.1239C45.4207 70.296 45.3682 70.4627 45.2843 70.614ZM28.5156 42.839C26.9969 42.8411 25.5409 43.4452 24.4669 44.5189C23.3929 45.5927 22.7884 47.0484 22.7859 48.5671C22.7859 51.7265 25.3562 54.2968 28.5156 54.2968C31.675 54.2968 34.2453 51.7265 34.2453 48.5671C34.2428 47.0484 33.6383 45.5927 32.5642 44.5189C31.4902 43.4452 30.0343 42.8411 28.5156 42.839ZM28.5156 51.1718C27.0796 51.1718 25.9109 50.0031 25.9109 48.5671C25.9109 47.1312 27.0796 45.964 28.5156 45.964C29.9515 45.964 31.1203 47.1312 31.1203 48.5671C31.1203 50.0031 29.9515 51.1718 28.5156 51.1718Z" fill="#1C74E8"/>
<path d="M69.3186 51.3844C70.4431 51.3844 71.3546 50.4729 71.3546 49.3484C71.3546 48.224 70.4431 47.3125 69.3186 47.3125C68.1942 47.3125 67.2827 48.224 67.2827 49.3484C67.2827 50.4729 68.1942 51.3844 69.3186 51.3844Z" fill="#1C74E8"/>
<path d="M57.9 73.65C59.0244 73.65 59.9359 72.7385 59.9359 71.6141C59.9359 70.4896 59.0244 69.5781 57.9 69.5781C56.7755 69.5781 55.864 70.4896 55.864 71.6141C55.864 72.7385 56.7755 73.65 57.9 73.65Z" fill="#1C74E8"/>
</svg>
