<svg width="100" height="100" viewBox="0 0 100 100" fill="none" xmlns="http://www.w3.org/2000/svg">
<g clip-path="url(#clip0_549_967)">
<path d="M51.3252 61.9545C51.1456 61.5762 50.8232 61.2847 50.4287 61.1442C50.0343 61.0037 49.6002 61.0256 49.2219 61.2051C47.9353 61.8152 46.5993 62.3149 45.2281 62.6988C44.9474 62.7773 44.6939 62.932 44.4958 63.1457C44.2976 63.3595 44.1625 63.6239 44.1055 63.9098L42.4352 72.2609C42.3541 72.6619 42.1371 73.0225 41.8207 73.2818C41.5044 73.5412 41.1083 73.6833 40.6992 73.6842H36.1428C35.7337 73.6833 35.3376 73.5412 35.0213 73.2818C34.7049 73.0225 34.4879 72.6619 34.4068 72.2609L32.7365 63.9098C32.6794 63.624 32.5443 63.3596 32.3461 63.1458C32.148 62.9321 31.8945 62.7774 31.6139 62.6988C29.6802 62.1576 27.8185 61.3862 26.0688 60.4012C25.8147 60.2581 25.526 60.1882 25.2346 60.1991C24.9433 60.21 24.6606 60.3014 24.418 60.4631L17.3309 65.1877C16.6313 65.6541 15.6918 65.5609 15.0969 64.9664L11.875 61.7443C11.2803 61.1496 11.1875 60.2102 11.6537 59.5103L16.3783 52.4232C16.5401 52.1807 16.6316 51.898 16.6425 51.6066C16.6534 51.3152 16.5834 51.0265 16.4402 50.7725C15.4551 49.0227 14.6837 47.161 14.1426 45.2273C14.0641 44.9466 13.9094 44.6932 13.6957 44.495C13.4819 44.2968 13.2175 44.1617 12.9316 44.1047L4.58047 42.4344C4.17955 42.3533 3.81892 42.1363 3.55958 41.82C3.30025 41.5036 3.15812 41.1075 3.15723 40.6984V36.142C3.15812 35.733 3.30025 35.3368 3.55958 35.0205C3.81892 34.7042 4.17955 34.4871 4.58047 34.4061L12.9316 32.7357C13.2174 32.6786 13.4818 32.5435 13.6956 32.3453C13.9093 32.1472 14.064 31.8937 14.1426 31.6131C14.6838 29.6794 15.4552 27.8177 16.4402 26.068C16.5833 25.8139 16.6533 25.5252 16.6423 25.2338C16.6314 24.9425 16.54 24.6598 16.3783 24.4172L11.6541 17.3309C11.428 16.99 11.3265 16.5815 11.3668 16.1745C11.4072 15.7674 11.5868 15.3868 11.8754 15.0969L15.0973 11.875C15.692 11.2803 16.6316 11.1875 17.3313 11.6537L24.4184 16.3783C24.661 16.5401 24.9436 16.6315 25.235 16.6424C25.5264 16.6534 25.8151 16.5834 26.0691 16.4402C27.8189 15.4552 29.6806 14.6838 31.6143 14.1426C31.895 14.0641 32.1484 13.9094 32.3466 13.6957C32.5448 13.4819 32.6799 13.2175 32.7369 12.9316L34.4072 4.58047C34.4883 4.17955 34.7053 3.81892 35.0216 3.55958C35.338 3.30025 35.7341 3.15812 36.1432 3.15723H40.6996C41.1086 3.15812 41.5048 3.30025 41.8211 3.55958C42.1375 3.81892 42.3545 4.17955 42.4356 4.58047L44.1059 12.9316C44.163 13.2174 44.2981 13.4818 44.4963 13.6956C44.6944 13.9093 44.9479 14.064 45.2285 14.1426C47.1622 14.6838 49.0239 15.4552 50.7736 16.4402C51.0277 16.5833 51.3164 16.6533 51.6078 16.6423C51.8991 16.6314 52.1818 16.54 52.4244 16.3783L59.5115 11.6537C60.2111 11.1873 61.1504 11.2805 61.7455 11.875L64.9674 15.0969C65.5621 15.6916 65.6549 16.6311 65.1887 17.3309L60.4641 24.418C60.3023 24.6606 60.2108 24.9432 60.1999 25.2346C60.189 25.526 60.259 25.8147 60.4022 26.0688C61.3872 27.8185 62.1586 29.6802 62.6998 31.6139C62.7783 31.8946 62.933 32.1481 63.1467 32.3462C63.3605 32.5444 63.6249 32.6795 63.9107 32.7365L72.2619 34.4068C72.6628 34.4879 73.0235 34.7049 73.2828 35.0212C73.5421 35.3376 73.6843 35.7337 73.6852 36.1428V40.6992C73.6843 41.1083 73.5421 41.5044 73.2828 41.8207C73.0235 42.1371 72.6628 42.3541 72.2619 42.4352L63.9107 44.1055C63.6249 44.1626 63.3605 44.2978 63.1467 44.496C62.933 44.6943 62.7783 44.9478 62.6998 45.2285C62.3064 46.6335 61.7915 48.0016 61.1607 49.3172C61.071 49.5041 61.019 49.7069 61.0077 49.9139C60.9963 50.1209 61.0259 50.3282 61.0947 50.5238C61.1634 50.7194 61.27 50.8995 61.4084 51.0539C61.5468 51.2083 61.7142 51.334 61.9012 51.4236C62.0881 51.5134 62.2909 51.5654 62.4979 51.5768C62.7049 51.5881 62.9122 51.5586 63.1078 51.4898C63.3034 51.421 63.4836 51.3144 63.6379 51.176C63.7923 51.0376 63.918 50.8702 64.0076 50.6832C64.5768 49.496 65.0625 48.2706 65.4611 47.0158L72.8813 45.5318C75.176 45.0725 76.842 43.04 76.842 40.699V36.1426C76.842 33.8016 75.176 31.7693 72.8803 31.31L65.4604 29.826C64.9738 28.2939 64.3574 26.8061 63.6178 25.3789L67.8154 19.0822C69.1139 17.1344 68.8551 14.5191 67.1996 12.8637L63.9777 9.6418C62.3221 7.98633 59.7068 7.72773 57.7592 9.02598L51.4625 13.2236C50.0352 12.4841 48.5475 11.8677 47.0154 11.3811L45.5314 3.96113C45.0727 1.66602 43.0402 0 40.6992 0H36.1428C33.8018 0 31.7695 1.66602 31.3102 3.96172L29.8262 11.3816C28.2941 11.8682 26.8063 12.4846 25.3791 13.2242L19.0828 9.02656C17.1352 7.72813 14.5197 7.98672 12.8643 9.64238L9.64238 12.8643C7.98711 14.5197 7.72813 17.1348 9.02656 19.0828L13.2242 25.3795C12.4847 26.8068 11.8683 28.2945 11.3816 29.8266L3.96152 31.3105C1.66602 31.7695 0 33.802 0 36.143V40.6994C0 43.0404 1.66602 45.0727 3.96172 45.532L11.3816 47.016C11.8682 48.5481 12.4846 50.0359 13.2242 51.4631L9.02656 57.7598C7.72813 59.7076 7.98691 62.3229 9.64238 63.9783L12.8643 67.2002C14.5197 68.8557 17.135 69.1143 19.0828 67.816L25.3795 63.6184C26.8068 64.3579 28.2945 64.9743 29.8266 65.4609L31.3105 72.8812C31.7695 75.1762 33.802 76.8424 36.143 76.8424H40.6994C43.0404 76.8424 45.0727 75.1764 45.532 72.8807L47.016 65.4607C48.233 65.0742 49.4225 64.6057 50.5762 64.0584C50.7635 63.9694 50.9315 63.8445 51.0705 63.6906C51.2095 63.5367 51.3169 63.3569 51.3864 63.1616C51.456 62.9662 51.4864 62.7591 51.4759 62.5519C51.4654 62.3448 51.4142 62.1418 51.3252 61.9545Z" fill="#1C74E8"/>
<path d="M52.0975 47.1945C52.282 47.2891 52.4833 47.3465 52.6899 47.3633C52.8966 47.3801 53.1046 47.3561 53.3019 47.2925C53.4993 47.229 53.6822 47.1272 53.8402 46.9929C53.9982 46.8587 54.1283 46.6946 54.2229 46.5101C55.4963 44.0267 56.1695 41.2296 56.1695 38.4212C56.1695 28.6347 48.2076 20.6726 38.4209 20.6726C33.765 20.6726 29.3654 22.4621 26.0322 25.7119C25.7372 26.0052 25.57 26.4031 25.5667 26.8191C25.5635 27.2352 25.7246 27.6356 26.015 27.9335C26.3053 28.2314 26.7016 28.4027 27.1175 28.4101C27.5335 28.4175 27.9355 28.2604 28.2363 27.973C30.9764 25.3019 34.5932 23.8306 38.4205 23.8306C46.4658 23.8306 53.0113 30.3759 53.0113 38.4214C53.0113 40.764 52.4734 43.0007 51.4127 45.0695C51.2218 45.4421 51.1867 45.8753 51.3151 46.2738C51.4435 46.6723 51.7249 47.0035 52.0975 47.1945ZM23.6412 31.665C23.4452 31.5975 23.2377 31.5693 23.0308 31.582C22.8238 31.5947 22.6214 31.6481 22.4351 31.739C22.2487 31.8299 22.0821 31.9567 21.9448 32.112C21.8074 32.2673 21.702 32.4482 21.6346 32.6443C20.9958 34.5032 20.6708 36.4554 20.6729 38.421C20.6729 48.2078 28.635 56.1697 38.4215 56.1697C42.1854 56.1697 45.7815 55.0064 48.8213 52.805C49.1527 52.5565 49.3731 52.1877 49.4351 51.7781C49.4971 51.3685 49.3957 50.951 49.1528 50.6155C48.9098 50.28 48.5448 50.0533 48.1364 49.9844C47.7279 49.9155 47.3087 50.0098 46.9691 50.247C44.4715 52.0554 41.5158 53.0115 38.4213 53.0115C30.3758 53.0115 23.8305 46.466 23.8305 38.4207C23.8305 36.7929 24.0961 35.1947 24.6203 33.671C24.6878 33.475 24.716 33.2677 24.7033 33.0608C24.6906 32.8538 24.6373 32.6515 24.5464 32.4652C24.4554 32.2789 24.3287 32.1123 24.1734 31.975C24.0181 31.8377 23.8373 31.7324 23.6412 31.665ZM96.9613 69.007L92.3955 68.0939C92.1173 67.2664 91.7828 66.459 91.3941 65.6773L93.9774 61.8027C94.9733 60.3085 94.7748 58.3027 93.5051 57.0332L91.3879 54.916C90.1182 53.6464 88.1123 53.4478 86.6184 54.4437L82.7438 57.0269C81.9621 56.6383 81.1547 56.3037 80.3272 56.0257L79.4141 51.4599C79.0619 49.6992 77.5031 48.4212 75.7076 48.4212H72.7133C70.918 48.4212 69.359 49.6992 69.0068 51.4599L68.0938 56.0257C67.2663 56.3039 66.4589 56.6384 65.6772 57.0269L61.8025 54.4437C60.3084 53.448 58.3025 53.6462 57.033 54.916L54.9158 57.0332C53.6461 58.3029 53.4477 60.3087 54.4436 61.8027L57.0268 65.6773C56.4922 66.7525 56.0602 67.8758 55.7367 69.0322C55.6328 69.4326 55.6902 69.8578 55.8965 70.2163C56.1027 70.5749 56.4415 70.8382 56.8398 70.9497C57.2382 71.0612 57.6644 71.0119 58.0268 70.8124C58.3892 70.613 58.6589 70.2793 58.7779 69.8832C59.1218 68.6542 59.612 67.4711 60.2381 66.3591C60.3812 66.1051 60.4511 65.8164 60.4402 65.525C60.4293 65.2336 60.3379 64.951 60.1762 64.7084L57.0713 60.0511C56.9918 59.9314 56.9562 59.7878 56.9704 59.6448C56.9845 59.5018 57.0476 59.368 57.149 59.2662L59.2662 57.149C59.3682 57.0477 59.5019 56.9847 59.6449 56.9705C59.7879 56.9564 59.9314 56.9919 60.0512 57.0712L64.7084 60.1761C64.951 60.3379 65.2337 60.4293 65.5251 60.4402C65.8164 60.4512 66.1052 60.3812 66.3592 60.238C67.4712 59.612 68.6543 59.1218 69.8832 58.7779C70.1639 58.6994 70.4174 58.5447 70.6156 58.331C70.8137 58.1172 70.9488 57.8528 71.0059 57.5669L72.1033 52.0792C72.1318 51.9384 72.2081 51.8117 72.3192 51.7206C72.4304 51.6295 72.5696 51.5795 72.7133 51.5792H75.7076C75.8513 51.5796 75.9905 51.6296 76.1016 51.7207C76.2127 51.8118 76.289 51.9384 76.3176 52.0792L77.4151 57.5673C77.4722 57.8531 77.6073 58.1175 77.8055 58.3313C78.0036 58.545 78.257 58.6997 78.5377 58.7783C79.7666 59.1221 80.9498 59.6123 82.0617 60.2384C82.3158 60.3815 82.6045 60.4514 82.8959 60.4405C83.1872 60.4296 83.4699 60.3382 83.7125 60.1765L88.3697 57.0716C88.4895 56.9921 88.633 56.9565 88.7761 56.9706C88.9191 56.9848 89.0529 57.0479 89.1547 57.1494L91.2719 59.2666C91.3732 59.3685 91.4363 59.5022 91.4505 59.6452C91.4646 59.7882 91.429 59.9317 91.3496 60.0515L88.2447 64.7087C88.0829 64.9513 87.9915 65.234 87.9806 65.5254C87.9696 65.8168 88.0396 66.1055 88.1828 66.3595C88.8089 67.4715 89.2991 68.6546 89.643 69.8835C89.7215 70.1642 89.8762 70.4177 90.0899 70.6159C90.3036 70.8141 90.5681 70.9492 90.8539 71.0062L96.3416 72.1037C96.4825 72.1322 96.6092 72.2084 96.7003 72.3196C96.7914 72.4307 96.8413 72.5699 96.8416 72.7136V75.708C96.8412 75.8517 96.7913 75.9908 96.7002 76.1019C96.6091 76.2131 96.4824 76.2894 96.3416 76.3179L90.8535 77.4154C90.5677 77.4725 90.3033 77.6076 90.0896 77.8058C89.8759 78.0039 89.7212 78.2574 89.6426 78.538C89.2988 79.7669 88.8085 80.9501 88.1824 82.0621C88.0394 82.3161 87.9694 82.6048 87.9803 82.8962C87.9913 83.1876 88.0826 83.4702 88.2443 83.7128L91.3492 88.3701C91.4287 88.4898 91.4643 88.6334 91.4502 88.7764C91.436 88.9194 91.3729 89.0532 91.2715 89.155L89.1543 91.2722C89.0524 91.3736 88.9187 91.4367 88.7757 91.4508C88.6327 91.465 88.4891 91.4294 88.3693 91.35L83.7121 88.2451C83.4695 88.0834 83.1868 87.992 82.8955 87.9811C82.6041 87.9701 82.3154 88.0401 82.0613 88.1832C80.9494 88.8092 79.7662 89.2994 78.5373 89.6433C78.2566 89.7218 78.0031 89.8765 77.805 90.0902C77.6068 90.304 77.4717 90.5684 77.4147 90.8542L76.3172 96.3419C76.2887 96.4828 76.2124 96.6095 76.1013 96.7006C75.9902 96.7917 75.851 96.8416 75.7072 96.8419H72.7129C72.5692 96.8416 72.43 96.7916 72.3189 96.7005C72.2078 96.6094 72.1315 96.4828 72.1029 96.3419L71.0055 90.8539C70.9483 90.5681 70.8132 90.3037 70.6151 90.0899C70.4169 89.8762 70.1635 89.7215 69.8828 89.6429C68.6539 89.2991 67.4708 88.8088 66.3588 88.1828C66.1047 88.0397 65.816 87.9697 65.5247 87.9806C65.2333 87.9916 64.9506 88.083 64.708 88.2447L60.0508 91.3496C59.931 91.429 59.7875 91.4647 59.6445 91.4506C59.5014 91.4364 59.3677 91.3733 59.2658 91.2718L57.1486 89.1546C57.0473 89.0527 56.9842 88.919 56.9701 88.776C56.9559 88.633 56.9915 88.4895 57.0709 88.3697L60.1758 83.7125C60.3376 83.4699 60.429 83.1872 60.44 82.8958C60.4509 82.6044 60.3809 82.3157 60.2377 82.0617C59.6117 80.9497 59.1214 79.7665 58.7775 78.5376C58.6991 78.2569 58.5444 78.0035 58.3306 77.8053C58.1169 77.6071 57.8524 77.472 57.5666 77.415L52.0789 76.3175C51.9381 76.289 51.8114 76.2128 51.7202 76.1016C51.6291 75.9905 51.5792 75.8513 51.5789 75.7076V72.7132C51.5793 72.5695 51.6292 72.4304 51.7203 72.3192C51.8114 72.2081 51.9381 72.1318 52.0789 72.1033L52.4149 72.0361C52.6182 71.9954 52.8115 71.9151 52.9838 71.7997C53.1561 71.6844 53.304 71.5362 53.419 71.3636C53.534 71.1911 53.6139 70.9976 53.6541 70.7942C53.6943 70.5907 53.694 70.3814 53.6533 70.1781C53.4822 69.323 52.6514 68.7693 51.7951 68.9396L51.4592 69.0068C49.6988 69.3591 48.4209 70.9179 48.4209 72.7134V75.7078C48.4209 77.5031 49.6988 79.0621 51.4596 79.4142L56.0254 80.3273C56.3036 81.1547 56.6381 81.9622 57.0266 82.7439L54.4434 86.6185C53.4473 88.1126 53.6459 90.1185 54.9156 91.388L57.0328 93.5052C58.3025 94.775 60.3084 94.9734 61.8024 93.9775L65.677 91.3943C66.4586 91.7829 67.2661 92.1174 68.0936 92.3955L69.0066 96.9613C69.3592 98.722 70.918 100 72.7135 100H75.7078C77.5031 100 79.0621 98.722 79.4143 96.9613L80.3274 92.3955C81.1548 92.1173 81.9622 91.7827 82.744 91.3941L86.6186 93.9773C88.1127 94.9732 90.1186 94.7748 91.3881 93.505L93.5053 91.3878C94.775 90.1181 94.9734 88.1123 93.9776 86.6183L91.3943 82.7437C91.783 81.962 92.1175 81.1546 92.3955 80.3271L96.9613 79.414C98.7219 79.0619 99.9998 77.5031 99.9998 75.7076V72.7132C100 70.9179 98.7221 69.3591 96.9613 69.007Z" fill="#1C74E8"/>
<path d="M74.2106 68.5264C77.3449 68.5264 79.8948 71.0762 79.8948 74.2106C79.8948 74.6293 80.0611 75.0309 80.3572 75.327C80.6533 75.6231 81.0549 75.7895 81.4737 75.7895C81.8924 75.7895 82.294 75.6231 82.5901 75.327C82.8862 75.0309 83.0526 74.6293 83.0526 74.2106C83.0526 69.335 79.086 65.3684 74.2104 65.3684C69.3348 65.3684 65.3682 69.335 65.3682 74.2106C65.3682 79.0862 69.3348 83.0528 74.2104 83.0528C76.1852 83.0528 78.0532 82.4158 79.6125 81.2112C79.9367 80.9526 80.1461 80.577 80.1957 80.1653C80.2452 79.7537 80.1309 79.3391 79.8775 79.011C79.624 78.6829 79.2516 78.4676 78.8408 78.4117C78.43 78.3557 78.0137 78.4636 77.6817 78.7119C76.6801 79.4856 75.4797 79.8948 74.2104 79.8948C71.076 79.8948 68.5262 77.3449 68.5262 74.2106C68.5264 71.076 71.0762 68.5264 74.2106 68.5264ZM48.0408 38.4211C48.0408 33.1168 43.7252 28.8014 38.4211 28.8014C33.1168 28.8014 28.8014 33.117 28.8014 38.4211C28.8014 43.7254 33.1168 48.0408 38.4211 48.0408C43.7254 48.0408 48.0408 43.7252 48.0408 38.4211ZM31.9592 38.4211C31.9592 34.8582 34.8582 31.9592 38.4211 31.9592C41.984 31.9592 44.883 34.8582 44.883 38.4211C44.883 41.984 41.9842 44.883 38.4211 44.883C34.8578 44.883 31.9592 41.984 31.9592 38.4211Z" fill="#1C74E8"/>
</g>
<defs>
<clipPath id="clip0_549_967">
<rect width="100" height="100" fill="white"/>
</clipPath>
</defs>
</svg>
