<svg width="396" height="732" viewBox="0 0 396 732" fill="none" xmlns="http://www.w3.org/2000/svg">
<mask id="mask0_980_428" style="mask-type:alpha" maskUnits="userSpaceOnUse" x="0" y="0" width="396" height="732">
<rect width="396" height="732" rx="24" transform="matrix(1 0 0 -1 0 732)" fill="#EEFAF5"/>
</mask>
<g mask="url(#mask0_980_428)">
<rect width="396" height="732" rx="24" transform="matrix(1 0 0 -1 0 732)" fill="url(#paint0_linear_980_428)"/>
<g opacity="0.1">
<path d="M179.958 -5.78855C182.428 -6.35967 183.967 -8.8247 183.396 -11.2945L177.916 -34.9957C176.205 -42.3931 168.795 -47.0197 161.398 -45.3092L-16.5843 -4.153C-23.9817 -2.44244 -28.6083 4.96751 -26.8978 12.3649L19.8424 214.495C21.5529 221.893 28.9629 226.519 36.3603 224.809L214.342 183.653C221.74 181.942 226.366 174.532 224.656 167.135L221.76 154.613C221.189 152.143 218.724 150.604 216.254 151.175C213.785 151.747 212.245 154.212 212.817 156.681L215.712 169.203C216.282 171.669 214.74 174.139 212.274 174.709L34.2922 215.865C31.8264 216.435 29.3564 214.893 28.7862 212.427L-17.954 10.2968C-18.5241 7.83099 -16.9819 5.361 -14.5161 4.79081L163.466 -36.3653C165.932 -36.9355 168.402 -35.3933 168.972 -32.9275L174.452 -9.22638C175.024 -6.75655 177.489 -5.21743 179.958 -5.78855Z" fill="#4795FD"/>
<path d="M153.843 -20.9489L0.898015 14.4177C-1.57182 14.9888 -3.11094 17.4538 -2.53982 19.9236L19.0723 113.387C19.6435 115.856 22.1085 117.395 24.5783 116.824C27.0481 116.253 28.5873 113.788 28.0161 111.318L7.43807 22.3274L151.439 -10.971L153.093 -3.81597C153.665 -1.34614 156.13 0.19288 158.599 -0.378139C161.069 -0.949257 162.608 -3.41429 162.037 -5.88412L159.349 -17.5111C158.778 -19.9809 156.313 -21.52 153.843 -20.9489ZM29.7991 125.006C28.7656 124.364 27.5205 124.156 26.3345 124.427C25.1583 124.699 24.1152 125.444 23.4758 126.468C22.8364 127.493 22.6247 128.757 22.8966 129.933C23.1686 131.109 23.9139 132.152 24.938 132.792C25.9621 133.431 27.2265 133.643 28.4026 133.371C29.5832 133.098 30.6218 132.354 31.2613 131.33C31.9052 130.304 32.1124 129.041 31.8404 127.865C31.5685 126.689 30.8277 125.645 29.7991 125.006ZM192.517 146.3C190.047 146.872 188.508 149.337 189.079 151.806L190.32 157.173L46.3193 190.471L35.8234 145.081C35.2523 142.611 32.7873 141.072 30.3174 141.643C27.8476 142.215 26.3085 144.68 26.8796 147.149L38.4095 197.011C38.9806 199.481 41.4457 201.02 43.9155 200.449L196.86 165.083C199.33 164.511 200.869 162.046 200.298 159.577L198.023 149.738C197.452 147.268 194.987 145.729 192.517 146.3Z" fill="#4795FD"/>
<path d="M145.124 124.911C142.974 123.568 140.143 124.223 138.8 126.373L132.006 137.255L125.241 133.032C120.97 130.365 115.327 131.67 112.66 135.941L109.912 140.342C108.57 142.492 109.225 145.324 111.375 146.667C113.525 148.009 116.356 147.355 117.699 145.204L120.421 140.845L127.186 145.069C129.321 146.402 131.799 146.742 134.077 146.215C136.355 145.689 138.433 144.295 139.766 142.159L146.587 131.236C147.929 129.086 147.274 126.254 145.124 124.911Z" fill="#4795FD"/>
<path d="M218.595 40.2919C219.218 38.5416 219.47 36.6808 219.334 34.828C219.198 32.9752 218.678 31.1709 217.807 29.53C216.933 27.8909 215.727 26.4517 214.266 25.3042C212.805 24.1567 211.121 23.326 209.321 22.865C208.548 22.6664 207.848 22.2508 207.304 21.6672C206.759 21.0837 206.393 20.3566 206.248 19.5717C205.912 17.7445 205.2 16.0073 204.156 14.4706C203.112 12.9338 201.76 11.6313 200.185 10.6458C198.608 9.66281 196.844 9.01918 195.005 8.75588C193.166 8.49259 191.292 8.61543 189.503 9.11656C188.735 9.33267 187.92 9.32359 187.156 9.0904C186.393 8.85721 185.712 8.40971 185.195 7.80106C183.991 6.38657 182.505 5.23832 180.833 4.42943C179.161 3.62053 177.338 3.16871 175.482 3.10272C173.625 3.04005 171.775 3.36477 170.051 4.05622C168.327 4.74767 166.765 5.79067 165.466 7.11878C164.908 7.68895 164.198 8.08745 163.421 8.26725C162.643 8.44706 161.83 8.40065 161.078 8.13352C159.328 7.51055 157.467 7.2589 155.614 7.39461C153.762 7.53032 151.957 8.05042 150.317 8.92176C148.678 9.79609 147.239 11.0021 146.091 12.4631C144.944 13.924 144.113 15.6079 143.652 17.4075C143.452 18.1801 143.036 18.8797 142.453 19.4241C141.87 19.9685 141.143 20.3351 140.358 20.4807C138.531 20.8161 136.794 21.5285 135.257 22.5724C133.72 23.6162 132.418 24.9688 131.433 26.5438C130.45 28.1205 129.807 29.8845 129.544 31.7234C129.28 33.5624 129.403 35.436 129.903 37.2251C130.118 37.9939 130.108 38.8081 129.875 39.5715C129.642 40.3349 129.195 41.0157 128.588 41.5336C127.173 42.7379 126.025 44.2235 125.216 45.8959C124.407 47.5683 123.955 49.3908 123.889 51.2474C123.83 53.0188 124.124 54.7844 124.755 56.4408L46.7206 74.4854C44.2507 75.0565 42.7116 77.5215 43.2827 79.9913C43.8538 82.4612 46.3189 84.0003 48.7887 83.4292L129.108 64.8563C129.072 65.127 129.009 65.3934 128.92 65.6517C128.297 67.402 128.046 69.2628 128.181 71.1156C128.317 72.9685 128.837 74.7727 129.708 76.4136C129.95 76.8679 130.219 77.3041 130.509 77.7232L51.6828 95.9508C49.2129 96.522 47.6738 98.987 48.2449 101.457C48.8161 103.927 51.2811 105.466 53.7509 104.895L140.624 84.8062C140.944 85.2785 141.162 85.8116 141.266 86.3721C141.602 88.1993 142.315 89.9366 143.359 91.4733C144.403 93.0101 145.755 94.3126 147.33 95.298C148.906 96.281 150.67 96.9247 152.509 97.188C154.349 97.4514 156.222 97.3285 158.011 96.8273C159.573 96.3846 161.267 96.904 162.319 98.1428C163.091 99.0497 163.981 99.8491 164.966 100.519L174.623 142.284C174.828 143.167 175.289 143.971 175.949 144.592C176.61 145.214 177.439 145.626 178.333 145.776C179.228 145.927 180.146 145.809 180.974 145.438C181.801 145.067 182.5 144.459 182.982 143.691L191.572 130.013L205.294 138.531C206.065 139.01 206.96 139.249 207.866 139.219C208.772 139.19 209.65 138.892 210.387 138.364C211.124 137.836 211.689 137.102 212.009 136.253C212.33 135.405 212.392 134.481 212.187 133.597L202.53 91.8328C203.12 90.7984 203.569 89.6894 203.864 88.5356C204.063 87.7628 204.479 87.063 205.062 86.5186C205.646 85.9741 206.373 85.6077 207.157 85.4623C208.985 85.1277 210.723 84.4157 212.259 83.3718C213.796 82.3278 215.098 80.9748 216.083 79.3992C217.065 77.8225 217.709 76.0584 217.972 74.2194C218.235 72.3804 218.113 70.5066 217.613 68.7175C217.398 67.9488 217.408 67.1347 217.641 66.3713C217.874 65.608 218.321 64.9273 218.928 64.4094C220.343 63.2052 221.491 61.7195 222.3 60.0472C223.109 58.3748 223.56 56.5523 223.626 54.6957C223.689 52.8389 223.364 50.9894 222.673 49.265C221.981 47.5406 220.938 45.979 219.61 44.6798C219.04 44.1214 218.641 43.4116 218.462 42.6341C218.282 41.8566 218.328 41.0439 218.595 40.2919ZM200.756 124.91L192.534 119.806C190.388 118.473 187.57 119.125 186.226 121.264L181.08 129.46L174.876 102.632C177.604 102.136 180.11 100.806 182.049 98.8248C182.607 98.2547 183.317 97.8562 184.095 97.6764C184.872 97.4966 185.685 97.543 186.437 97.8101C188.846 98.6679 191.451 98.8172 193.942 98.2403C194.147 98.1929 194.349 98.1354 194.552 98.0782L200.756 124.91ZM214.452 54.3792C214.435 54.9601 214.295 55.5308 214.042 56.0539C213.789 56.577 213.428 57.0408 212.984 57.4149C209.021 60.7823 207.368 66.193 208.774 71.1998C208.934 71.7586 208.974 72.3448 208.892 72.9201C208.81 73.4955 208.607 74.0469 208.297 74.5383C207.991 75.0326 207.585 75.4569 207.104 75.7834C206.623 76.1099 206.079 76.3313 205.507 76.4332C200.389 77.3698 196.255 81.2277 194.969 86.2667C194.829 86.8306 194.57 87.3583 194.211 87.8154C193.852 88.2724 193.401 88.6485 192.886 88.9188C191.837 89.4765 190.642 89.5649 189.523 89.165C187.117 88.3082 184.515 88.16 182.027 88.7379C179.538 89.3111 177.266 90.5864 175.48 92.4123C175.076 92.83 174.588 93.1576 174.049 93.3739C173.51 93.5902 172.931 93.6902 172.35 93.6675C171.769 93.6503 171.199 93.5106 170.675 93.2575C170.152 93.0045 169.688 92.6439 169.314 92.1992C165.947 88.2367 160.539 86.5822 155.529 87.99C154.97 88.1495 154.384 88.1894 153.809 88.107C153.234 88.0246 152.683 87.8219 152.191 87.512C151.696 87.2067 151.272 86.8003 150.945 86.3194C150.619 85.8386 150.397 85.2941 150.296 84.7218C149.636 81.1113 147.515 77.9941 144.554 76.0173C144.467 75.9565 144.378 75.8987 144.287 75.8441C143.107 75.093 141.817 74.5328 140.463 74.1845C139.311 73.8906 138.369 73.1511 137.811 72.1015C137.253 71.0519 137.165 69.8572 137.565 68.7382C139.313 63.8406 138.038 58.3285 134.318 54.6956C133.9 54.2915 133.572 53.8038 133.356 53.2644C133.139 52.7249 133.039 52.1459 133.062 51.5651C133.079 50.9843 133.219 50.4136 133.472 49.8905C133.725 49.3673 134.086 48.9036 134.531 48.5295C138.493 45.1621 140.145 39.7514 138.74 34.7445C138.58 34.1858 138.54 33.5996 138.622 33.0242C138.705 32.4489 138.907 31.8975 139.218 31.406C139.523 30.9117 139.93 30.4875 140.41 30.161C140.891 29.8344 141.435 29.613 142.007 29.5112C147.126 28.5749 151.259 24.7166 152.545 19.6777C152.686 19.1138 152.944 18.586 153.303 18.129C153.662 17.6719 154.114 17.2959 154.628 17.0256C155.14 16.7501 155.704 16.5858 156.283 16.5434C156.863 16.5009 157.445 16.5814 157.991 16.7794C162.889 18.528 168.402 17.2533 172.034 13.5322C172.438 13.1143 172.925 12.7865 173.465 12.5702C174.004 12.3539 174.583 12.254 175.164 12.277C175.745 12.2942 176.315 12.4339 176.838 12.6869C177.362 12.9399 177.826 13.3006 178.2 13.7453C181.567 17.7078 186.978 19.3611 191.985 17.9545C192.543 17.7947 193.13 17.7547 193.705 17.837C194.28 17.9194 194.831 18.1223 195.323 18.4324C195.817 18.7377 196.242 19.144 196.568 19.6248C196.895 20.1056 197.116 20.65 197.218 21.2222C198.153 26.3375 202.012 30.4741 207.052 31.7599C207.615 31.9007 208.143 32.1591 208.6 32.5181C209.057 32.877 209.433 33.3285 209.703 33.8429C209.979 34.3545 210.143 34.9186 210.186 35.4982C210.228 36.0778 210.148 36.6598 209.949 37.2061C208.201 42.1038 209.476 47.6158 213.197 51.2488C213.615 51.6527 213.943 52.1404 214.159 52.6799C214.375 53.2194 214.475 53.7985 214.452 54.3792Z" fill="#4795FD"/>
<path d="M192.212 35.891C190.062 34.5485 187.23 35.2033 185.888 37.3534L174.477 55.6287L167.202 51.0863C165.052 49.7439 162.221 50.3986 160.878 52.5488C159.535 54.6989 160.19 57.5305 162.34 58.8734L173.508 65.8467C174.584 66.5182 175.829 66.69 176.973 66.4254C178.118 66.1608 179.162 65.4596 179.833 64.3844L193.674 42.2156C195.017 40.0655 194.362 37.2339 192.212 35.891ZM37.0938 40.4055C36.06 39.7643 34.8152 39.5562 33.6291 39.8263C32.453 40.0982 31.4099 40.8435 30.7705 41.8676C30.131 42.8918 29.9193 44.1561 30.1913 45.3323C30.4633 46.5084 31.2085 47.5515 32.2327 48.1909C33.2568 48.8304 34.5212 49.0421 35.6973 48.7701C36.8734 48.4981 37.9165 47.7529 38.5559 46.7287C39.1954 45.7046 39.4071 44.4402 39.1351 43.2641C38.8632 42.088 38.1179 41.0449 37.0938 40.4055ZM72.0844 30.934L50.321 35.9665C47.8512 36.5376 46.312 39.0026 46.8832 41.4725C47.4543 43.9423 49.9193 45.4814 52.3891 44.9103L74.1526 39.8778C76.6224 39.3067 78.1615 36.8416 77.5904 34.3718C77.0193 31.902 74.5543 30.3628 72.0844 30.934ZM135.827 99.1085L84.7027 110.93C82.2329 111.501 80.6938 113.966 81.2649 116.436C81.836 118.906 84.3011 120.445 86.7709 119.874L137.894 108.052C140.364 107.481 141.903 105.016 141.332 102.546C140.761 100.077 138.296 98.5373 135.827 99.1085Z" fill="#4795FD"/>
</g>
</g>
<defs>
<linearGradient id="paint0_linear_980_428" x1="458.785" y1="-97.4143" x2="-183.977" y2="-12.0501" gradientUnits="userSpaceOnUse">
<stop stop-color="#C1F4DF"/>
<stop offset="0.247929" stop-color="#F1F4FD"/>
<stop offset="0.544301" stop-color="#F1F4FD"/>
<stop offset="1" stop-color="#BCD4F6"/>
</linearGradient>
</defs>
</svg>
