<svg width="1170" height="263" viewBox="0 0 1170 263" fill="none" xmlns="http://www.w3.org/2000/svg">
<mask id="mask0_487_2037" style="mask-type:alpha" maskUnits="userSpaceOnUse" x="0" y="0" width="1170" height="263">
<rect width="1170" height="263" rx="24" transform="matrix(1 0 0 -1 0 263)" fill="#EEFAF5"/>
</mask>
<g mask="url(#mask0_487_2037)">
<rect width="1170" height="263" rx="24" transform="matrix(1 0 0 -1 0 263)" fill="#EEFAF5"/>
<rect width="1170" height="263" rx="24" transform="matrix(1 0 0 -1 0 263)" fill="url(#paint0_linear_487_2037)"/>
<g opacity="0.1">
<path d="M179.958 -5.78806C182.428 -6.35918 183.967 -8.82421 183.396 -11.294L177.916 -34.9952C176.205 -42.3926 168.795 -47.0192 161.398 -45.3087L-16.5843 -4.15252C-23.9817 -2.44195 -28.6083 4.968 -26.8978 12.3654L19.8424 214.496C21.5529 221.893 28.9629 226.52 36.3603 224.809L214.342 183.653C221.74 181.943 226.366 174.533 224.656 167.135L221.76 154.614C221.189 152.144 218.724 150.605 216.254 151.176C213.785 151.747 212.245 154.212 212.817 156.682L215.712 169.203C216.282 171.669 214.74 174.139 212.274 174.709L34.2922 215.865C31.8264 216.436 29.3564 214.893 28.7862 212.428L-17.954 10.2973C-18.5241 7.83148 -16.9819 5.36149 -14.5161 4.7913L163.466 -36.3649C165.932 -36.935 168.402 -35.3928 168.972 -32.927L174.452 -9.2259C175.024 -6.75606 177.489 -5.21695 179.958 -5.78806Z" fill="#4795FD"/>
<path d="M153.843 -20.9489L0.898259 14.4177C-1.57158 14.9888 -3.11069 17.4538 -2.53958 19.9236L19.0726 113.387C19.6437 115.856 22.1087 117.395 24.5786 116.824C27.0484 116.253 28.5875 113.788 28.0164 111.318L7.43832 22.3274L151.439 -10.971L153.094 -3.81597C153.665 -1.34614 156.13 0.19288 158.6 -0.378139C161.07 -0.949257 162.609 -3.41429 162.038 -5.88412L159.349 -17.5111C158.778 -19.9809 156.313 -21.52 153.843 -20.9489ZM29.7993 125.006C28.7659 124.364 27.5208 124.156 26.3347 124.427C25.1586 124.699 24.1155 125.444 23.476 126.468C22.8366 127.493 22.6249 128.757 22.8969 129.933C23.1688 131.109 23.9141 132.152 24.9382 132.792C25.9623 133.431 27.2267 133.643 28.4028 133.371C29.5834 133.098 30.6221 132.354 31.2615 131.33C31.9054 130.304 32.1126 129.041 31.8407 127.865C31.5687 126.689 30.8279 125.645 29.7993 125.006ZM192.517 146.3C190.047 146.872 188.508 149.337 189.079 151.806L190.32 157.173L46.3195 190.471L35.8237 145.081C35.2525 142.611 32.7875 141.072 30.3177 141.643C27.8478 142.215 26.3087 144.68 26.8798 147.149L38.4098 197.011C38.9809 199.481 41.4459 201.02 43.9157 200.449L196.86 165.083C199.33 164.511 200.869 162.046 200.298 159.577L198.023 149.738C197.452 147.268 194.987 145.729 192.517 146.3Z" fill="#4795FD"/>
<path d="M145.124 124.912C142.974 123.569 140.143 124.224 138.8 126.374L132.005 137.256L125.241 133.033C120.97 130.366 115.327 131.671 112.66 135.942L109.912 140.343C108.57 142.493 109.224 145.325 111.375 146.668C113.525 148.01 116.356 147.355 117.699 145.205L120.421 140.846L127.185 145.069C129.321 146.403 131.799 146.743 134.077 146.216C136.355 145.69 138.433 144.296 139.766 142.16L146.586 131.237C147.929 129.086 147.274 126.255 145.124 124.912Z" fill="#4795FD"/>
<path d="M218.595 40.2929C219.218 38.5426 219.47 36.6818 219.334 34.829C219.198 32.9761 218.678 31.1719 217.807 29.531C216.933 27.8918 215.727 26.4527 214.266 25.3052C212.805 24.1577 211.121 23.327 209.321 22.8659C208.548 22.6673 207.848 22.2517 207.304 21.6682C206.759 21.0847 206.393 20.3576 206.248 19.5727C205.912 17.7455 205.2 16.0083 204.156 14.4715C203.112 12.9348 201.76 11.6322 200.185 10.6467C198.608 9.66379 196.844 9.02015 195.005 8.75686C193.166 8.49357 191.292 8.6164 189.503 9.11753C188.735 9.33364 187.92 9.32457 187.156 9.09138C186.393 8.85818 185.712 8.41068 185.195 7.80204C183.991 6.38754 182.505 5.2393 180.833 4.4304C179.161 3.62151 177.338 3.16968 175.482 3.10369C173.625 3.04103 171.775 3.36575 170.051 4.0572C168.327 4.74864 166.765 5.79165 165.466 7.11976C164.908 7.68992 164.198 8.08843 163.421 8.26823C162.643 8.44803 161.83 8.40163 161.078 8.1345C159.328 7.51152 157.467 7.25987 155.614 7.39558C153.762 7.53129 151.957 8.05139 150.317 8.92274C148.678 9.79706 147.239 11.0031 146.091 12.464C144.944 13.925 144.113 15.6089 143.652 17.4085C143.452 18.1811 143.036 18.8807 142.453 19.4251C141.87 19.9695 141.143 20.336 140.358 20.4817C138.531 20.8171 136.794 21.5294 135.257 22.5733C133.72 23.6172 132.418 24.9698 131.433 26.5448C130.45 28.1215 129.807 29.8855 129.544 31.7244C129.28 33.5634 129.403 35.437 129.903 37.2261C130.118 37.9949 130.108 38.809 129.875 39.5724C129.642 40.3358 129.195 41.0167 128.588 41.5346C127.173 42.7389 126.025 44.2245 125.216 45.8969C124.407 47.5693 123.955 49.3918 123.889 51.2483C123.83 53.0198 124.124 54.7854 124.755 56.4417L46.7206 74.4863C44.2507 75.0575 42.7116 77.5225 43.2827 79.9923C43.8538 82.4622 46.3189 84.0013 48.7887 83.4302L129.108 64.8573C129.072 65.128 129.009 65.3944 128.92 65.6527C128.297 67.4029 128.046 69.2638 128.181 71.1166C128.317 72.9694 128.837 74.7737 129.708 76.4145C129.95 76.8689 130.219 77.3051 130.509 77.7242L51.6828 95.9518C49.2129 96.5229 47.6738 98.988 48.2449 101.458C48.8161 103.928 51.2811 105.467 53.7509 104.896L140.624 84.8072C140.944 85.2795 141.162 85.8126 141.266 86.3731C141.602 88.2003 142.315 89.9376 143.359 91.4743C144.403 93.011 145.755 94.3136 147.33 95.2989C148.906 96.282 150.67 96.9257 152.509 97.189C154.349 97.4523 156.222 97.3295 158.011 96.8282C159.573 96.3855 161.267 96.905 162.319 98.1437C163.091 99.0507 163.981 99.8501 164.966 100.52L174.623 142.285C174.828 143.168 175.289 143.972 175.949 144.593C176.61 145.215 177.439 145.627 178.333 145.777C179.228 145.928 180.146 145.81 180.974 145.439C181.801 145.068 182.5 144.46 182.982 143.692L191.572 130.014L205.294 138.532C206.065 139.011 206.96 139.25 207.866 139.22C208.772 139.19 209.65 138.893 210.387 138.365C211.124 137.837 211.689 137.103 212.009 136.254C212.33 135.406 212.392 134.482 212.187 133.598L202.53 91.8338C203.12 90.7994 203.569 89.6904 203.864 88.5365C204.063 87.7638 204.479 87.064 205.062 86.5196C205.646 85.9751 206.373 85.6087 207.157 85.4633C208.985 85.1287 210.723 84.4167 212.259 83.3727C213.796 82.3288 215.098 80.9758 216.083 79.4002C217.065 77.8235 217.709 76.0594 217.972 74.2204C218.235 72.3814 218.113 70.5076 217.613 68.7185C217.398 67.9497 217.408 67.1357 217.641 66.3723C217.874 65.609 218.321 64.9283 218.928 64.4104C220.343 63.2061 221.491 61.7205 222.3 60.0481C223.109 58.3757 223.56 56.5532 223.626 54.6967C223.689 52.8399 223.364 50.9904 222.673 49.266C221.981 47.5415 220.938 45.98 219.61 44.6807C219.04 44.1224 218.641 43.4126 218.462 42.6351C218.282 41.8576 218.328 41.0449 218.595 40.2929ZM200.756 124.911L192.534 119.807C190.388 118.474 187.57 119.126 186.226 121.265L181.08 129.461L174.876 102.633C177.604 102.137 180.11 100.807 182.049 98.8258C182.607 98.2556 183.317 97.8571 184.095 97.6773C184.872 97.4975 185.685 97.5439 186.437 97.8111C188.846 98.6688 191.451 98.8181 193.942 98.2412C194.147 98.1939 194.349 98.1363 194.552 98.0791L200.756 124.911ZM214.452 54.3802C214.435 54.9611 214.295 55.5317 214.042 56.0549C213.789 56.578 213.428 57.0418 212.984 57.4159C209.021 60.7833 207.368 66.194 208.774 71.2008C208.934 71.7596 208.974 72.3458 208.892 72.9211C208.81 73.4964 208.607 74.0479 208.297 74.5393C207.991 75.0336 207.585 75.4579 207.104 75.7844C206.623 76.1109 206.079 76.3323 205.507 76.4342C200.389 77.3708 196.255 81.2287 194.969 86.2677C194.829 86.8315 194.57 87.3593 194.211 87.8164C193.852 88.2734 193.401 88.6494 192.886 88.9198C191.837 89.4775 190.642 89.5658 189.523 89.166C187.117 88.3092 184.515 88.1609 182.027 88.7389C179.538 89.3121 177.266 90.5873 175.48 92.4133C175.076 92.8309 174.588 93.1586 174.049 93.3749C173.51 93.5912 172.931 93.6912 172.35 93.6685C171.769 93.6512 171.199 93.5116 170.675 93.2585C170.152 93.0055 169.688 92.6448 169.314 92.2002C165.947 88.2377 160.539 86.5832 155.529 87.991C154.97 88.1505 154.384 88.1903 153.809 88.108C153.234 88.0256 152.683 87.8229 152.191 87.513C151.696 87.2077 151.272 86.8013 150.945 86.3204C150.619 85.8395 150.397 85.2951 150.296 84.7228C149.636 81.1122 147.515 77.9951 144.554 76.0183C144.467 75.9574 144.378 75.8997 144.287 75.8451C143.107 75.0939 141.817 74.5338 140.463 74.1854C139.311 73.8916 138.369 73.1521 137.811 72.1025C137.253 71.0529 137.165 69.8582 137.565 68.7392C139.313 63.8416 138.038 58.3295 134.318 54.6965C133.9 54.2925 133.572 53.8048 133.356 53.2653C133.139 52.7259 133.039 52.1469 133.062 51.5661C133.079 50.9853 133.219 50.4146 133.472 49.8915C133.725 49.3683 134.086 48.9045 134.531 48.5305C138.493 45.163 140.145 39.7524 138.74 34.7455C138.58 34.1868 138.54 33.6005 138.622 33.0252C138.705 32.4499 138.907 31.8985 139.218 31.407C139.523 30.9127 139.93 30.4885 140.41 30.1619C140.891 29.8354 141.435 29.614 142.007 29.5122C147.126 28.5758 151.259 24.7176 152.545 19.6787C152.686 19.1148 152.944 18.587 153.303 18.13C153.662 17.6729 154.114 17.2969 154.628 17.0265C155.14 16.7511 155.704 16.5868 156.283 16.5443C156.863 16.5019 157.445 16.5823 157.991 16.7803C162.889 18.529 168.402 17.2543 172.034 13.5331C172.438 13.1153 172.925 12.7875 173.465 12.5712C174.004 12.3549 174.583 12.255 175.164 12.278C175.745 12.2952 176.315 12.4349 176.838 12.6879C177.362 12.9409 177.826 13.3016 178.2 13.7463C181.567 17.7088 186.978 19.362 191.985 17.9555C192.543 17.7957 193.13 17.7557 193.705 17.838C194.28 17.9204 194.831 18.1233 195.323 18.4334C195.817 18.7387 196.242 19.145 196.568 19.6258C196.895 20.1066 197.116 20.6509 197.218 21.2232C198.153 26.3385 202.012 30.475 207.052 31.7609C207.615 31.9017 208.143 32.1601 208.6 32.5191C209.057 32.878 209.433 33.3295 209.703 33.8438C209.979 34.3555 210.143 34.9196 210.186 35.4992C210.228 36.0787 210.148 36.6608 209.949 37.2071C208.201 42.1047 209.476 47.6168 213.197 51.2498C213.615 51.6537 213.943 52.1414 214.159 52.6809C214.375 53.2203 214.475 53.7994 214.452 54.3802Z" fill="#4795FD"/>
<path d="M192.212 35.891C190.062 34.5485 187.23 35.2033 185.888 37.3534L174.477 55.6287L167.202 51.0863C165.052 49.7439 162.221 50.3986 160.878 52.5488C159.535 54.6989 160.19 57.5305 162.34 58.8734L173.508 65.8467C174.584 66.5182 175.829 66.69 176.973 66.4254C178.118 66.1608 179.162 65.4596 179.833 64.3844L193.674 42.2156C195.017 40.0655 194.362 37.2339 192.212 35.891ZM37.0938 40.4055C36.06 39.7643 34.8152 39.5562 33.6291 39.8263C32.453 40.0982 31.4099 40.8435 30.7705 41.8676C30.131 42.8918 29.9193 44.1561 30.1913 45.3323C30.4633 46.5084 31.2085 47.5515 32.2327 48.1909C33.2568 48.8304 34.5212 49.0421 35.6973 48.7701C36.8734 48.4981 37.9165 47.7529 38.5559 46.7287C39.1954 45.7046 39.4071 44.4402 39.1351 43.2641C38.8632 42.088 38.1179 41.0449 37.0938 40.4055ZM72.0844 30.934L50.321 35.9665C47.8512 36.5376 46.312 39.0026 46.8832 41.4725C47.4543 43.9423 49.9193 45.4814 52.3891 44.9103L74.1526 39.8778C76.6224 39.3067 78.1615 36.8416 77.5904 34.3718C77.0193 31.902 74.5543 30.3628 72.0844 30.934ZM135.827 99.1085L84.7027 110.93C82.2329 111.501 80.6938 113.966 81.2649 116.436C81.836 118.906 84.3011 120.445 86.7709 119.874L137.894 108.052C140.364 107.481 141.903 105.016 141.332 102.546C140.761 100.077 138.296 98.5373 135.827 99.1085Z" fill="#4795FD"/>
</g>
</g>
<defs>
<linearGradient id="paint0_linear_487_2037" x1="1355.5" y1="-34.9999" x2="474.15" y2="927.543" gradientUnits="userSpaceOnUse">
<stop stop-color="#C1F4DF"/>
<stop offset="0.247929" stop-color="#F1F4FD"/>
<stop offset="0.544301" stop-color="#F1F4FD"/>
<stop offset="1" stop-color="#BCD4F6"/>
</linearGradient>
</defs>
</svg>
