<svg width="1440" height="832" viewBox="0 0 1440 832" fill="none" xmlns="http://www.w3.org/2000/svg">
<rect width="1440" height="832" transform="matrix(1 0 0 -1 0 832)" fill="white"/>
<mask id="mask0_554_1262" style="mask-type:alpha" maskUnits="userSpaceOnUse" x="0" y="0" width="1440" height="750">
<rect x="1440" y="750" width="1440" height="750" transform="rotate(180 1440 750)" fill="white"/>
</mask>
<g mask="url(#mask0_554_1262)">
<g filter="url(#filter0_f_554_1262)">
<path d="M64.1895 129.442L63.7514 129.68C37.801 147.171 2.26892 176.456 -18.0922 227.629C-43.5435 291.595 -37.555 370.554 29.3172 465.504C96.1894 560.454 219.454 476.498 210.97 434.52C202.486 392.542 213.964 331.075 280.837 306.088C347.709 281.101 358.688 230.627 342.219 163.662C325.751 96.6976 249.896 99.1963 183.023 96.1979C129.791 93.811 93.5555 113.492 64.1895 129.442Z" fill="url(#paint0_linear_554_1262)"/>
</g>
<g opacity="0.78" filter="url(#filter1_f_554_1262)">
<path d="M71.4437 532.611L71.9662 532.909C110.378 550.55 174.691 574.704 287.074 588.546C427.552 605.847 600.955 601.776 809.477 556.317C1018 510.858 833.622 427.064 741.433 432.831C649.244 438.599 514.253 430.796 459.379 385.337C404.505 339.878 293.658 332.414 146.595 343.609C-0.467929 354.805 5.01955 406.37 -1.56537 451.829C-6.80721 488.016 36.4152 512.649 71.4437 532.611Z" fill="url(#paint1_linear_554_1262)"/>
</g>
</g>
<defs>
<filter id="filter0_f_554_1262" x="-225.2" y="-97.2" width="767.4" height="799.4" filterUnits="userSpaceOnUse" color-interpolation-filters="sRGB">
<feFlood flood-opacity="0" result="BackgroundImageFix"/>
<feBlend mode="normal" in="SourceGraphic" in2="BackgroundImageFix" result="shape"/>
<feGaussianBlur stdDeviation="96.6" result="effect1_foregroundBlur_554_1262"/>
</filter>
<filter id="filter1_f_554_1262" x="-195.2" y="145.8" width="1293.4" height="645.4" filterUnits="userSpaceOnUse" color-interpolation-filters="sRGB">
<feFlood flood-opacity="0" result="BackgroundImageFix"/>
<feBlend mode="normal" in="SourceGraphic" in2="BackgroundImageFix" result="shape"/>
<feGaussianBlur stdDeviation="96.6" result="effect1_foregroundBlur_554_1262"/>
</filter>
<linearGradient id="paint0_linear_554_1262" x1="158.5" y1="96" x2="90.5" y2="632" gradientUnits="userSpaceOnUse">
<stop stop-color="#C7F4DF"/>
<stop offset="1" stop-color="white"/>
</linearGradient>
<linearGradient id="paint1_linear_554_1262" x1="16.9599" y1="468" x2="1193.2" y2="554.105" gradientUnits="userSpaceOnUse">
<stop stop-color="#B7DBFC"/>
<stop offset="1" stop-color="#D1E1FF"/>
</linearGradient>
</defs>
</svg>
