<svg width="100" height="100" viewBox="0 0 100 100" fill="none" xmlns="http://www.w3.org/2000/svg">
<g clip-path="url(#clip0_863_478)">
<mask id="mask0_863_478" style="mask-type:luminance" maskUnits="userSpaceOnUse" x="0" y="0" width="100" height="100">
<path d="M0 0.000289917H99.9997V100H0V0.000289917Z" fill="white"/>
</mask>
<g mask="url(#mask0_863_478)">
<path d="M43.7718 37.8228C42.3952 34.1374 39.9024 30.9738 36.6412 28.7734C32.6287 26.0661 27.533 22.6455 26.6557 22.139C24.6014 20.9531 24.4567 19.173 25.3629 17.6037C26.269 16.0343 27.8828 15.2697 29.9369 16.4556L37.7193 20.9488L31.4598 17.3349C29.4057 16.149 29.2607 14.3689 30.167 12.7996C31.073 11.2303 32.6869 10.4656 34.741 11.6515L42.9584 16.3959L36.2639 12.5308C34.2098 11.3447 34.0648 9.56483 34.9711 7.9955C35.8771 6.42617 37.491 5.66153 39.5451 6.84746L47.8955 11.6685L41.0679 7.72675C39.0138 6.54062 38.8691 4.76074 39.7752 3.19141C40.6812 1.62189 42.2951 0.857438 44.3492 2.04337L48.9472 4.69805C53.1388 7.11816 60.3013 8.90351 65.3899 13.9922C69.1704 17.7726 70.8003 22.3269 70.8003 22.3269L76.7932 28.3199" stroke="#1C74E8" stroke-width="3" stroke-miterlimit="10" stroke-linecap="round" stroke-linejoin="round"/>
<path d="M38.3262 40.8395L42.2256 43.0908C47.0888 45.8986 49.8115 45.3551 62.3519 35.9698L67.2769 40.8948" stroke="#1C74E8" stroke-width="3" stroke-miterlimit="10" stroke-linecap="round" stroke-linejoin="round"/>
<path d="M8.95312 41.9375C10.2336 39.3805 11.8123 36.8051 14.0031 34.6141C17.7836 30.8336 22.338 29.2037 22.338 29.2037L28.3306 23.2112" stroke="#1C74E8" stroke-width="3" stroke-miterlimit="10" stroke-linecap="round" stroke-linejoin="round"/>
<path d="M37.8338 56.2321C34.1484 57.6087 30.9848 60.1015 28.7844 63.3627C26.0772 67.3752 22.6565 72.4709 22.15 73.3482C20.9641 75.4025 19.184 75.5472 17.6147 74.641C16.0454 73.7349 15.2807 72.1211 16.4666 70.067L20.9598 62.2846L17.3459 68.5441C16.16 70.5982 14.3799 70.7432 12.8106 69.8369C11.2413 68.9309 10.4766 67.317 11.6626 65.2629L16.4069 57.0455L12.5418 63.7401C11.3557 65.7942 9.57584 65.9391 8.00651 65.0328C6.43718 64.1268 5.67253 62.5129 6.85847 60.4588L11.6795 52.1085L7.73776 58.936C6.55163 60.9901 4.77175 61.1348 3.20242 60.2287C1.63289 59.3227 0.868445 57.7088 2.05438 55.6547L4.70906 51.0567C5.31492 50.0073 5.88093 48.7717 6.46921 47.429" stroke="#1C74E8" stroke-width="3" stroke-miterlimit="10" stroke-linecap="round" stroke-linejoin="round"/>
<path d="M40.8461 61.6848L43.1015 57.7784C45.9093 52.9149 45.3658 50.1923 35.9805 37.6519L40.9033 32.729" stroke="#1C74E8" stroke-width="3" stroke-miterlimit="10" stroke-linecap="round" stroke-linejoin="round"/>
<path d="M56.2392 62.1775C57.6158 65.8628 60.1086 69.0265 63.3698 71.2269C67.3823 73.9341 72.478 77.3548 73.3553 77.8612C75.4096 79.0471 75.5543 80.8272 74.6481 82.3965C73.742 83.9659 72.1282 84.7305 70.0741 83.5446L62.2917 79.0514L68.5512 82.6653C70.6053 83.8512 70.7503 85.6313 69.844 87.2006C68.938 88.77 67.3241 89.5346 65.27 88.3487L57.0526 83.6044L63.7471 87.4694C65.8012 88.6555 65.9462 90.4354 65.0399 92.0047C64.1339 93.5741 62.52 94.3387 60.4659 93.1528L52.1155 88.3317L58.9431 92.2735C60.9972 93.4596 61.1419 95.2395 60.2358 96.8088C59.3298 98.3783 57.7159 99.1428 55.6618 97.9569L51.0638 95.3022C46.8722 92.8821 39.7097 91.0967 34.6211 86.0081C30.8406 82.2276 29.2107 77.6733 29.2107 77.6733L23.2178 71.6804" stroke="#1C74E8" stroke-width="3" stroke-miterlimit="10" stroke-linecap="round" stroke-linejoin="round"/>
<path d="M61.6846 59.1608L57.7852 56.9094C52.9219 54.1016 50.1993 54.6452 37.6589 64.0305L32.7339 59.1055" stroke="#1C74E8" stroke-width="3" stroke-miterlimit="10" stroke-linecap="round" stroke-linejoin="round"/>
<path d="M62.1772 43.7682C65.8626 42.3915 69.0262 39.8987 71.2266 36.6375C73.9339 32.625 77.3545 27.5293 77.861 26.652C79.0469 24.5977 80.827 24.453 82.3963 25.3592C83.9657 26.2653 84.7303 27.8791 83.5444 29.9332L79.0512 37.7156L82.6651 31.4561C83.851 29.402 85.6311 29.2571 87.2004 30.1633C88.7697 31.0694 89.5344 32.6832 88.3485 34.7373L83.6041 42.9547L87.4692 36.2602C88.6553 34.2061 90.4352 34.0611 92.0045 34.9674C93.5738 35.8734 94.3385 37.4873 93.1525 39.5414C92.8594 40.049 92.5663 40.5566 92.2732 41.0643C93.4594 39.0102 95.2393 38.8654 96.8086 39.7715C98.3781 40.6775 99.1426 42.2914 97.9566 44.3455L95.3019 48.9435C92.8818 53.1351 91.0965 60.2976 86.0078 65.3862C82.2274 69.1667 77.6731 70.7966 77.6731 70.7966L76.0842 72.3853" stroke="#1C74E8" stroke-width="3" stroke-miterlimit="10" stroke-linecap="round" stroke-linejoin="round"/>
<path d="M56.4551 50.8087C57.6777 53.5039 60.0648 57.0497 64.0301 62.3482L59.1072 67.271" stroke="#1C74E8" stroke-width="3" stroke-miterlimit="10" stroke-linecap="round" stroke-linejoin="round"/>
<path d="M59.1643 38.3154L56.9091 42.2219C56.3024 43.2725 55.8522 44.223 55.6138 45.1943" stroke="#1C74E8" stroke-width="3" stroke-miterlimit="10" stroke-linecap="round" stroke-linejoin="round"/>
<path d="M36.6391 87.7862L25.8901 98.5352" stroke="#1C74E8" stroke-width="3" stroke-miterlimit="10" stroke-linecap="round" stroke-linejoin="round"/>
<path d="M53.6354 96.7871L51.8872 98.5352" stroke="#1C74E8" stroke-width="3" stroke-miterlimit="10" stroke-linecap="round" stroke-linejoin="round"/>
<path d="M87.7915 63.3665L98.5405 74.1155" stroke="#1C74E8" stroke-width="3" stroke-miterlimit="10" stroke-linecap="round" stroke-linejoin="round"/>
<path d="M96.7925 46.3702L98.5405 48.1184" stroke="#1C74E8" stroke-width="3" stroke-miterlimit="10" stroke-linecap="round" stroke-linejoin="round"/>
<path d="M67.2769 8.30884L74.1206 1.46511" stroke="#1C74E8" stroke-width="3" stroke-miterlimit="10" stroke-linecap="round" stroke-linejoin="round"/>
<path d="M46.3755 3.21313L48.1237 1.46509" stroke="#1C74E8" stroke-width="3" stroke-miterlimit="10" stroke-linecap="round" stroke-linejoin="round"/>
<path d="M12.2192 36.6338L1.47021 25.8848" stroke="#1C74E8" stroke-width="3" stroke-miterlimit="10" stroke-linecap="round" stroke-linejoin="round"/>
<path d="M3.21874 53.6301L1.4707 51.8819" stroke="#1C74E8" stroke-width="3" stroke-miterlimit="10" stroke-linecap="round" stroke-linejoin="round"/>
</g>
</g>
<defs>
<clipPath id="clip0_863_478">
<rect width="100" height="100" fill="white"/>
</clipPath>
</defs>
</svg>
