<svg width="168" height="56" viewBox="0 0 168 56" fill="none" xmlns="http://www.w3.org/2000/svg">
<path d="M168 0V34.394H159.879L146.927 16.3237H146.717V34.394H136.985V0H145.246L157.988 18.0031H158.268V0H168Z" fill="#24BB7D"/>
<path d="M107.069 34.394H96.5669L108.399 0H121.701L133.533 34.394H123.031L115.19 9.47178H114.91L107.069 34.394ZM105.108 20.8245H124.851V27.8107H105.108V20.8245Z" fill="#24BB7D"/>
<path d="M67.0967 34.394V0H92.9307V7.52368H76.8282V13.4351H91.6005V20.9588H76.8282V26.8703H92.8607V34.394H67.0967Z" fill="#24BB7D"/>
<path d="M37.1801 34.394H26.6785L38.5103 0H51.8124L63.6442 34.394H53.1426L45.3014 9.47178H45.0213L37.1801 34.394ZM35.2198 20.8245H54.9629V27.8107H35.2198V20.8245Z" fill="#24BB7D"/>
<path d="M0 34.394V0H15.4724C18.1328 0 20.4607 0.503818 22.456 1.51145C24.4513 2.51909 26.0032 3.93538 27.1117 5.76032C28.2202 7.58526 28.7745 9.71809 28.7745 12.1588C28.7745 14.6219 28.2027 16.7547 27.0592 18.5573C25.9274 20.3598 24.3346 21.7481 22.281 22.7222C20.239 23.6962 17.8528 24.1833 15.1224 24.1833H5.88092V16.9283H13.1621C14.3056 16.9283 15.2799 16.7379 16.085 16.3573C16.9018 15.9654 17.5261 15.4112 17.9578 14.6947C18.4012 13.9781 18.6229 13.1329 18.6229 12.1588C18.6229 11.1736 18.4012 10.3339 17.9578 9.63972C17.5261 8.93437 16.9018 8.39696 16.085 8.0275C15.2799 7.64683 14.3056 7.4565 13.1621 7.4565H9.73152V34.394H0Z" fill="#24BB7D"/>
<path d="M154.497 42.9268H158.567L161.192 48.1665H161.297L163.923 42.9268H167.992L163.056 51.7688V55.8245H159.433V51.7688L154.497 42.9268Z" fill="#24BB7D"/>
<path d="M149.763 47.1836C149.706 46.9611 149.616 46.7658 149.494 46.5979C149.371 46.4258 149.218 46.2809 149.034 46.1634C148.855 46.0416 148.645 45.9513 148.404 45.8926C148.168 45.8296 147.908 45.7981 147.623 45.7981C147.011 45.7981 146.488 45.9387 146.055 46.22C145.626 46.5013 145.298 46.9065 145.07 47.4355C144.847 47.9645 144.735 48.6027 144.735 49.35C144.735 50.1057 144.842 50.7523 145.057 51.2897C145.271 51.8271 145.591 52.2386 146.015 52.5241C146.44 52.8096 146.967 52.9523 147.597 52.9523C148.153 52.9523 148.614 52.8746 148.982 52.7193C149.354 52.564 149.632 52.3435 149.815 52.058C149.999 51.7725 150.091 51.4367 150.091 51.0504L150.721 51.1134H147.649V48.6195H153.609V50.408C153.609 51.5836 153.349 52.5891 152.828 53.4246C152.312 54.2559 151.599 54.8941 150.688 55.3391C149.783 55.78 148.743 56.0004 147.571 56.0004C146.262 56.0004 145.114 55.7338 144.125 55.2006C143.136 54.6674 142.364 53.9075 141.808 52.9208C141.257 51.9342 140.981 50.7607 140.981 49.4004C140.981 48.334 141.149 47.3893 141.486 46.5664C141.828 45.7435 142.3 45.0487 142.904 44.4819C143.508 43.9109 144.206 43.4805 144.998 43.1908C145.79 42.8969 146.639 42.75 147.544 42.75C148.341 42.75 149.08 42.8592 149.763 43.0775C150.45 43.2916 151.056 43.5981 151.581 43.9969C152.111 44.3916 152.537 44.8597 152.861 45.4013C153.185 45.9429 153.382 46.537 153.452 47.1836H149.763Z" fill="#24BB7D"/>
<path d="M138.975 49.3752C138.975 50.8111 138.684 52.0223 138.102 53.009C137.52 53.9914 136.735 54.7367 135.746 55.2447C134.757 55.7485 133.654 56.0004 132.438 56.0004C131.213 56.0004 130.106 55.7464 129.117 55.2384C128.132 54.7262 127.349 53.9788 126.767 52.9964C126.189 52.0098 125.901 50.8027 125.901 49.3752C125.901 47.9393 126.189 46.7302 126.767 45.7477C127.349 44.7611 128.132 44.0158 129.117 43.512C130.106 43.004 131.213 42.75 132.438 42.75C133.654 42.75 134.757 43.004 135.746 43.512C136.735 44.0158 137.52 44.7611 138.102 45.7477C138.684 46.7302 138.975 47.9393 138.975 49.3752ZM135.221 49.3752C135.221 48.6027 135.114 47.9519 134.899 47.4229C134.689 46.8897 134.376 46.4866 133.961 46.2137C133.549 45.9366 133.042 45.7981 132.438 45.7981C131.834 45.7981 131.324 45.9366 130.909 46.2137C130.497 46.4866 130.184 46.8897 129.97 47.4229C129.76 47.9519 129.655 48.6027 129.655 49.3752C129.655 50.1477 129.76 50.8006 129.97 51.3338C130.184 51.8628 130.497 52.2659 130.909 52.543C131.324 52.8159 131.834 52.9523 132.438 52.9523C133.042 52.9523 133.549 52.8159 133.961 52.543C134.376 52.2659 134.689 51.8628 134.899 51.3338C135.114 50.8006 135.221 50.1477 135.221 49.3752Z" fill="#24BB7D"/>
<path d="M115.548 55.8245V42.9268H119.197V53.0031H124.632V55.8245H115.548Z" fill="#24BB7D"/>
<path d="M113.49 49.3752C113.49 50.8111 113.199 52.0223 112.617 53.009C112.035 53.9914 111.249 54.7367 110.261 55.2447C109.272 55.7485 108.169 56.0004 106.953 56.0004C105.727 56.0004 104.62 55.7464 103.631 55.2384C102.647 54.7262 101.864 53.9788 101.282 52.9964C100.704 52.0098 100.415 50.8027 100.415 49.3752C100.415 47.9393 100.704 46.7302 101.282 45.7477C101.864 44.7611 102.647 44.0158 103.631 43.512C104.62 43.004 105.727 42.75 106.953 42.75C108.169 42.75 109.272 43.004 110.261 43.512C111.249 44.0158 112.035 44.7611 112.617 45.7477C113.199 46.7302 113.49 47.9393 113.49 49.3752ZM109.735 49.3752C109.735 48.6027 109.628 47.9519 109.414 47.4229C109.204 46.8897 108.891 46.4866 108.475 46.2137C108.064 45.9366 107.556 45.7981 106.953 45.7981C106.349 45.7981 105.839 45.9366 105.423 46.2137C105.012 46.4866 104.699 46.8897 104.485 47.4229C104.275 47.9519 104.17 48.6027 104.17 49.3752C104.17 50.1477 104.275 50.8006 104.485 51.3338C104.699 51.8628 105.012 52.2659 105.423 52.543C105.839 52.8159 106.349 52.9523 106.953 52.9523C107.556 52.9523 108.064 52.8159 108.475 52.543C108.891 52.2659 109.204 51.8628 109.414 51.3338C109.628 50.8006 109.735 50.1477 109.735 49.3752Z" fill="#24BB7D"/>
<path d="M98.3718 42.9268V55.8245H95.3263L90.4693 49.0481H90.3905V55.8245H86.7412V42.9268H89.8392L94.6174 49.6779H94.7225V42.9268H98.3718Z" fill="#24BB7D"/>
<path d="M72.5095 55.8245V42.9268H76.1588V47.9649H80.9896V42.9268H84.6389V55.8245H80.9896V50.7863H76.1588V55.8245H72.5095Z" fill="#24BB7D"/>
<path d="M70.4843 47.763H66.7825C66.7562 47.4691 66.6862 47.2025 66.5724 46.9632C66.463 46.7239 66.3099 46.5181 66.113 46.346C65.9205 46.1697 65.6864 46.0353 65.4107 45.9429C65.135 45.8464 64.8222 45.7981 64.4721 45.7981C63.8595 45.7981 63.341 45.9408 62.9165 46.2263C62.4965 46.5118 62.1771 46.9212 61.9583 47.4544C61.7439 47.9876 61.6367 48.6279 61.6367 49.3752C61.6367 50.1645 61.7461 50.8258 61.9648 51.359C62.188 51.888 62.5096 52.2869 62.9297 52.5556C63.3497 52.8201 63.8551 52.9523 64.4458 52.9523C64.7828 52.9523 65.0847 52.9124 65.3516 52.8327C65.6185 52.7487 65.8504 52.629 66.0473 52.4737C66.2443 52.3183 66.404 52.1315 66.5265 51.9132C66.6534 51.6907 66.7387 51.4409 66.7825 51.1638L70.4843 51.1889C70.4405 51.7348 70.2808 52.291 70.0052 52.8578C69.7295 53.4204 69.3379 53.9411 68.8303 54.4197C68.3271 54.8941 67.7035 55.2762 66.9597 55.5659C66.2158 55.8556 65.3516 56.0004 64.3671 56.0004C63.1331 56.0004 62.0261 55.7464 61.0459 55.2384C60.0702 54.7304 59.2979 53.983 58.729 52.9964C58.1646 52.0098 57.8823 50.8027 57.8823 49.3752C57.8823 47.9393 58.1711 46.7302 58.7487 45.7477C59.3263 44.7611 60.1052 44.0158 61.0853 43.512C62.0655 43.004 63.1594 42.75 64.3671 42.75C65.216 42.75 65.997 42.8613 66.7103 43.0838C67.4235 43.3063 68.0492 43.6317 68.5874 44.0599C69.1256 44.484 69.5588 45.0067 69.887 45.6281C70.2152 46.2494 70.4143 46.9611 70.4843 47.763Z" fill="#24BB7D"/>
<path d="M46.0674 55.8245V42.9268H55.7551V45.7481H49.7167V47.9649H55.2563V50.7863H49.7167V53.0031H55.7289V55.8245H46.0674Z" fill="#24BB7D"/>
<path d="M32.6414 45.7481V42.9268H44.3244V45.7481H40.2813V55.8245H36.6845V45.7481H32.6414Z" fill="#24BB7D"/>
<path d="M31.5824 49.3752C31.5824 50.8111 31.2914 52.0223 30.7094 53.009C30.1274 53.9914 29.342 54.7367 28.3531 55.2447C27.3642 55.7485 26.2615 56.0004 25.0451 56.0004C23.8199 56.0004 22.7128 55.7464 21.7239 55.2384C20.7394 54.7262 19.9562 53.9788 19.3742 52.9964C18.7966 52.0098 18.5078 50.8027 18.5078 49.3752C18.5078 47.9393 18.7966 46.7302 19.3742 45.7477C19.9562 44.7611 20.7394 44.0158 21.7239 43.512C22.7128 43.004 23.8199 42.75 25.0451 42.75C26.2615 42.75 27.3642 43.004 28.3531 43.512C29.342 44.0158 30.1274 44.7611 30.7094 45.7477C31.2914 46.7302 31.5824 47.9393 31.5824 49.3752ZM27.828 49.3752C27.828 48.6027 27.7208 47.9519 27.5064 47.4229C27.2964 46.8897 26.9835 46.4866 26.5678 46.2137C26.1565 45.9366 25.6489 45.7981 25.0451 45.7981C24.4412 45.7981 23.9315 45.9366 23.5158 46.2137C23.1045 46.4866 22.7916 46.8897 22.5772 47.4229C22.3672 47.9519 22.2621 48.6027 22.2621 49.3752C22.2621 50.1477 22.3672 50.8006 22.5772 51.3338C22.7916 51.8628 23.1045 52.2659 23.5158 52.543C23.9315 52.8159 24.4412 52.9523 25.0451 52.9523C25.6489 52.9523 26.1565 52.8159 26.5678 52.543C26.9835 52.2659 27.2964 51.8628 27.5064 51.3338C27.7208 50.8006 27.828 50.1477 27.828 49.3752Z" fill="#24BB7D"/>
<path d="M16.4613 42.9268V55.8245H12.812V42.9268H16.4613Z" fill="#24BB7D"/>
<path d="M0.0966797 55.8245V42.9268H5.92509C6.949 42.9268 7.80882 43.059 8.50456 43.3235C9.20467 43.588 9.73194 43.9617 10.0864 44.4445C10.4452 44.9273 10.6246 45.4962 10.6246 46.1512C10.6246 46.6256 10.5152 47.0581 10.2964 47.4485C10.082 47.839 9.78007 48.1665 9.39063 48.431C9.0012 48.6913 8.54613 48.8718 8.02542 48.9726V49.0985C8.60301 49.1195 9.12809 49.2602 9.60067 49.5205C10.0732 49.7766 10.4495 50.1314 10.7296 50.5848C11.0096 51.034 11.1497 51.563 11.1497 52.1718C11.1497 52.8772 10.9571 53.5048 10.5721 54.0548C10.1914 54.6048 9.6488 55.0373 8.94431 55.3522C8.23983 55.6671 7.3997 55.8245 6.42392 55.8245H0.0966797ZM3.746 53.0283H5.45252C6.06511 53.0283 6.52456 52.9191 6.83086 52.7008C7.13716 52.4783 7.2903 52.1508 7.2903 51.7184C7.2903 51.4161 7.21811 51.16 7.07371 50.9501C6.92931 50.7401 6.72365 50.5806 6.45674 50.4714C6.1942 50.3623 5.87696 50.3077 5.50503 50.3077H3.746V53.0283ZM3.746 48.1413H5.24248C5.56191 48.1413 5.84414 48.093 6.08918 47.9964C6.33422 47.8999 6.52456 47.7613 6.66021 47.5808C6.80023 47.396 6.87024 47.1714 6.87024 46.9069C6.87024 46.5081 6.72147 46.2037 6.42392 45.9937C6.12637 45.7796 5.75006 45.6726 5.29499 45.6726H3.746V48.1413Z" fill="#24BB7D"/>
</svg>
