<svg width="100" height="100" viewBox="0 0 100 100" fill="none" xmlns="http://www.w3.org/2000/svg">
<path d="M91.6631 25.1484H88.8523C88.8504 25.1437 88.8485 25.1389 88.8467 25.1341L88.3074 23.8179C88.3039 23.8094 88.3003 23.8008 88.2967 23.7923L88.2973 23.7882L90.2943 21.7759C91.2381 20.825 91.2381 19.2773 90.2943 18.3261L86.5432 14.5464C86.0832 14.0828 85.4695 13.8273 84.8154 13.8273C84.1613 13.8273 83.5479 14.0828 83.0879 14.5462L81.099 16.55L81.0846 16.5439L79.7881 16.0044L79.7689 15.9966L79.7678 15.9949V13.1433C79.7678 11.7972 78.6727 10.7019 77.3264 10.7019H72.0291C70.6828 10.7019 69.5877 11.7972 69.5877 13.1433V15.9949L69.5865 15.9966L69.5674 16.0044L68.2711 16.5439C68.2663 16.546 68.2615 16.548 68.2566 16.55L66.2682 14.546C66.0424 14.3175 65.7734 14.1362 65.4768 14.0128C65.1801 13.8893 64.8619 13.8263 64.5406 13.8273C63.9067 13.8258 63.2976 14.0736 62.8447 14.5171C59.217 13.1392 55.2893 12.3826 51.1889 12.3826C32.9182 12.3826 18.0537 27.3558 18.0537 45.7605C18.0537 52.5794 20.0816 59.1373 23.9186 64.7253C27.4771 69.908 32.3504 73.933 38.0564 76.4136V81.8519C36.7504 82.333 35.8146 83.5861 35.8146 85.057V88.2349C35.8146 90.1195 37.348 91.6529 39.2326 91.6529H41.3689V96.7974C41.3689 98.5634 42.8027 99.9999 44.565 99.9999H57.8129C59.5752 99.9999 61.009 98.5634 61.009 96.7974V91.6529H63.1453C65.0299 91.6529 66.5633 90.1195 66.5633 88.2349V85.057C66.5633 83.5861 65.6273 82.3328 64.3213 81.8519V76.4138C71.7416 73.1892 77.7002 67.3923 81.1674 59.9968C81.3322 59.645 81.3506 59.2422 81.2185 58.8768C81.0864 58.5115 80.8146 58.2136 80.4629 58.0486C80.2887 57.9669 80.1002 57.9203 79.908 57.9116C79.7159 57.9028 79.5238 57.9319 79.3429 57.9973C79.162 58.0627 78.9958 58.1632 78.8537 58.2928C78.7116 58.4225 78.5965 58.5789 78.5148 58.7531C75.5361 65.1064 70.5434 70.1658 64.3213 73.189V65.2443H64.6502C65.9965 65.2443 67.0916 64.1492 67.0916 62.8029V58.9857C67.0916 57.6394 65.9965 56.5443 64.6502 56.5443H60.9246C59.5783 56.5443 58.4832 57.6394 58.4832 58.9857V62.8029C58.4832 64.1492 59.5783 65.2443 60.9246 65.2443H61.3918V81.6386H59.2586V70.4007C59.2586 69.4701 58.8008 68.3593 58.1457 67.6992L47.0961 56.5648L47.5664 56.0908C48.5102 55.1398 48.5102 53.5921 47.5664 52.641L44.9266 49.981C44.4666 49.5173 43.8529 49.2619 43.1988 49.2619C42.5447 49.2619 41.9312 49.5173 41.4713 49.9808L38.7977 52.675C37.8539 53.6259 37.8539 55.1736 38.7977 56.1248L41.4375 58.7847C41.8975 59.2484 42.5111 59.5039 43.1652 59.5039C43.8193 59.5039 44.4328 59.2484 44.8928 58.7849L45.0322 58.6443L56.066 69.7626C56.174 69.8751 56.3264 70.2453 56.3291 70.4007V81.6386H53.3006V69.3359C53.3006 68.9474 53.1463 68.5748 52.8715 68.3001C52.5968 68.0254 52.2242 67.871 51.8357 67.871C51.4472 67.871 51.0747 68.0254 50.7999 68.3001C50.5252 68.5748 50.3709 68.9474 50.3709 69.3359V81.6388H45.9395V71.1597H46.3375C47.6838 71.1597 48.7789 70.0646 48.7789 68.7183V64.9011C48.7789 63.5548 47.6838 62.4597 46.3375 62.4597H42.6119C41.2656 62.4597 40.1705 63.5548 40.1705 64.9011V68.7183C40.1705 70.0646 41.2656 71.1597 42.6119 71.1597H43.0098V81.6388H40.9863V75.4374C40.9863 75.1446 40.8985 74.8585 40.7343 74.616C40.5701 74.3735 40.337 74.1858 40.065 74.0771C34.5018 71.8544 29.7537 68.047 26.334 63.0667C22.8338 57.9691 20.9836 51.9847 20.9836 45.7605C20.9836 28.9712 34.5336 15.3123 51.1891 15.3123C54.4596 15.3123 57.6092 15.8417 60.5609 16.8156L59.0621 18.3259C58.1184 19.2769 58.1184 20.8246 59.0621 21.7755L61.0588 23.788L61.0594 23.7921L61.0486 23.8175L60.5094 25.1335L60.5035 25.148H57.6928C56.3465 25.148 55.2514 26.2431 55.2514 27.5894V32.9425C55.2514 34.2888 56.3465 35.3839 57.6928 35.3839H60.5035L60.5094 35.3984L61.0484 36.714L61.0592 36.7396C61.0592 36.741 61.0588 36.7421 61.0586 36.7435L59.0619 38.7562C58.1184 39.707 58.1182 41.2546 59.0619 42.206L62.8131 45.9867C63.0389 46.2152 63.3079 46.3965 63.6045 46.5198C63.9011 46.6432 64.2194 46.7062 64.5406 46.7052C65.1945 46.7052 65.808 46.45 66.2684 45.9863L68.2566 43.9824L68.2711 43.9884L69.5674 44.5279L69.5865 44.5357L69.5877 44.5375V47.389C69.5877 48.7353 70.6828 49.8304 72.0291 49.8304H77.3266C78.6728 49.8304 79.768 48.7353 79.768 47.389V44.5375L79.7691 44.5357L79.7885 44.5277L81.085 43.988L81.0994 43.982L81.3555 44.24C81.3805 44.7435 81.3945 45.2501 81.3945 45.7599C81.3945 47.1144 81.3055 48.4763 81.1301 49.8082C81.0794 50.1933 81.1837 50.5828 81.4202 50.8911C81.6566 51.1993 82.0059 51.401 82.391 51.4517C83.1934 51.5583 83.9289 50.9929 84.0346 50.1908C84.1878 49.0167 84.2796 47.8354 84.3096 46.6517C84.4742 46.6863 84.6434 46.705 84.8158 46.705C85.4697 46.705 86.0832 46.4498 86.5436 45.9861L90.2949 42.2056C91.2385 41.2546 91.2385 39.707 90.2947 38.7558L88.2979 36.7439L88.2973 36.7396L88.3078 36.7144L88.8471 35.3984L88.8529 35.3839H91.6637C93.01 35.3839 94.1051 34.2888 94.1051 32.9425V27.5898C94.1045 26.2435 93.0094 25.1484 91.6631 25.1484ZM43.1648 56.3667L41.2131 54.4L43.1986 52.3994L45.1504 54.3662L43.1648 56.3667ZM57.8127 97.0703H44.5648C44.4205 97.0703 44.2984 96.9453 44.2984 96.7974V95.6554H58.0791V96.7974C58.0791 96.9455 57.957 97.0703 57.8127 97.0703ZM58.0791 92.7257H44.2984V91.6529H58.0791V92.7257ZM61.4125 59.4742H64.1615V62.3148H61.4125V59.4742ZM43.0998 65.3894H45.8488V68.23H43.0998V65.3894ZM38.7441 85.0568C38.7441 84.7921 38.9678 84.5685 39.2324 84.5685H63.1451C63.4098 84.5685 63.6334 84.7921 63.6334 85.0568V88.2347C63.6334 88.4994 63.4098 88.723 63.1451 88.723H39.2324C38.9678 88.723 38.7441 88.4994 38.7441 88.2347V85.0568ZM91.1748 32.4546H88.784C87.6289 32.4546 86.5184 33.2361 86.1227 34.3197L85.6105 35.5697C85.1311 36.613 85.3631 37.9466 86.1729 38.7626L87.8787 40.4814L84.8154 43.5687L83.1248 41.8646C82.6096 41.3459 81.867 41.0482 81.0869 41.0482C80.677 41.0482 80.2766 41.1343 79.925 41.298L78.6947 41.8099C77.6158 42.2101 76.8381 43.3209 76.8381 44.4728V46.9011H72.5174V44.4728C72.5174 43.3209 71.7396 42.2101 70.6607 41.8099L69.4301 41.298C69.0787 41.1345 68.6785 41.0484 68.2688 41.0484C67.4887 41.0484 66.7459 41.346 66.2305 41.8654L64.5406 43.5687L61.4773 40.4814L63.1834 38.7619C63.9932 37.946 64.225 36.6125 63.7453 35.5691L63.2332 34.3195C62.8373 33.2357 61.727 32.4544 60.5719 32.4544H58.1809V28.0781H60.5719C61.727 28.0781 62.8375 27.2968 63.2332 26.2128L63.7453 24.9628C64.2248 23.9197 63.9928 22.5859 63.1832 21.7701L61.4773 20.0507L64.5404 16.9642L66.2307 18.6675C66.7459 19.1863 67.4887 19.4841 68.2688 19.4841C68.6785 19.4841 69.0787 19.398 69.4301 19.2345L70.6607 18.7226C71.7396 18.3224 72.5174 17.2117 72.5174 16.0597V13.6316H76.8383V16.0599C76.8383 17.2117 77.616 18.3228 78.6951 18.7228L79.9252 19.2345C80.2768 19.3982 80.6771 19.4843 81.0871 19.4843C81.8674 19.4843 82.6102 19.1867 83.125 18.6675L84.8154 16.9644L87.8787 20.0509L86.1727 21.7701C85.3631 22.5859 85.1311 23.9195 85.6105 24.9626L86.1227 26.213C86.5186 27.2966 87.6289 28.0781 88.784 28.0781H91.1748V32.4546Z" fill="#24BB7D"/>
<path d="M84.2825 27.0831C84.2238 26.8989 84.1293 26.7281 84.0043 26.5807C83.8793 26.4332 83.7263 26.3119 83.5542 26.2238C83.3822 26.1357 83.1943 26.0826 83.0016 26.0674C82.8089 26.0523 82.6151 26.0754 82.4313 26.1355C82.2476 26.1957 82.0775 26.2915 81.931 26.4177C81.7845 26.5438 81.6645 26.6977 81.5777 26.8705C81.491 27.0432 81.4393 27.2315 81.4256 27.4243C81.412 27.6171 81.4366 27.8108 81.4981 27.994C81.7375 28.7277 81.8589 29.4946 81.8579 30.2663C81.8579 34.2618 78.6368 37.5124 74.6776 37.5124C70.7185 37.5124 67.4976 34.2618 67.4976 30.2663C67.4976 26.2708 70.7185 23.02 74.6776 23.02C75.4921 23.02 76.2905 23.1562 77.0509 23.4247C77.4172 23.5541 77.8199 23.5326 78.1704 23.3651C78.521 23.1975 78.7906 22.8976 78.9199 22.5313C79.0493 22.1649 79.0278 21.7622 78.8603 21.4117C78.6927 21.0612 78.3928 20.7916 78.0265 20.6622C76.9508 20.2827 75.8183 20.0893 74.6776 20.0903C69.103 20.0903 64.5679 24.6552 64.5679 30.2663C64.5679 35.8773 69.103 40.4421 74.6776 40.4421C80.2522 40.4421 84.7876 35.8773 84.7876 30.2663C84.7876 29.1784 84.6177 28.1073 84.2825 27.0831Z" fill="#24BB7D"/>
<path d="M74.6778 25.1191C71.8549 25.1191 69.5586 27.4281 69.5586 30.2664C69.5586 33.1045 71.8551 35.4137 74.6778 35.4137C77.5006 35.4137 79.7969 33.1047 79.7969 30.2664C79.7971 27.4283 77.5006 25.1191 74.6778 25.1191ZM74.6778 32.4838C73.4704 32.4838 72.4883 31.4891 72.4883 30.2662C72.4883 29.0434 73.4706 28.0486 74.6778 28.0486C75.8852 28.0486 76.8672 29.0434 76.8672 30.2662C76.8674 31.4893 75.8852 32.4838 74.6778 32.4838ZM53.6977 39.4477H49.9721C48.6258 39.4477 47.5307 40.5428 47.5307 41.8891V45.7063C47.5307 47.0525 48.6258 48.1477 49.9721 48.1477H50.3702V57.2264C50.3702 57.6149 50.5245 57.9875 50.7992 58.2622C51.0739 58.5369 51.4465 58.6912 51.835 58.6912C52.2235 58.6912 52.5961 58.5369 52.8708 58.2622C53.1455 57.9875 53.2999 57.6149 53.2999 57.2264V48.1477H53.6977C55.044 48.1477 56.1391 47.0525 56.1391 45.7063V41.8891C56.1391 40.5428 55.044 39.4477 53.6977 39.4477ZM53.2094 45.218H50.4604V42.3773H53.2094V45.218ZM51.8348 0C51.4463 0 51.0737 0.154331 50.799 0.429043C50.5243 0.703754 50.37 1.07634 50.37 1.46484V5.54648C50.37 5.93499 50.5243 6.30757 50.799 6.58229C51.0737 6.857 51.4463 7.01133 51.8348 7.01133C52.2233 7.01133 52.5959 6.857 52.8706 6.58229C53.1453 6.30757 53.2997 5.93499 53.2997 5.54648V1.46484C53.2997 1.07634 53.1453 0.703754 52.8706 0.429043C52.5959 0.154331 52.2233 0 51.8348 0ZM41.469 6.97578L40.3014 3.06562C40.2464 2.88128 40.1556 2.70958 40.0342 2.56033C39.9128 2.41108 39.7632 2.2872 39.5939 2.19578C39.4247 2.10435 39.239 2.04716 39.0477 2.02748C38.8563 2.00779 38.6629 2.026 38.4786 2.08105C38.2943 2.13608 38.1226 2.22688 37.9733 2.34826C37.8241 2.46965 37.7003 2.61924 37.6089 2.78849C37.5174 2.95774 37.4603 3.14334 37.4406 3.3347C37.4209 3.52605 37.4391 3.7194 37.4942 3.90371L38.6616 7.81387C38.7729 8.18608 39.0274 8.49888 39.3692 8.6835C39.711 8.86813 40.1121 8.90947 40.4844 8.79844C40.8567 8.6873 41.1696 8.43283 41.3542 8.09102C41.5388 7.7492 41.5801 7.34804 41.469 6.97578ZM30.544 11.7533L28.3073 8.34434C28.0941 8.01953 27.7607 7.79269 27.3803 7.71372C27 7.63475 26.6038 7.71012 26.279 7.92324C25.9542 8.13638 25.7273 8.46981 25.6483 8.85019C25.5694 9.23057 25.6447 9.62675 25.8579 9.95156L28.0948 13.3604C28.2002 13.5213 28.3363 13.6599 28.4953 13.7682C28.6543 13.8765 28.8331 13.9524 29.0215 13.9915C29.2099 14.0307 29.4041 14.0323 29.5931 13.9963C29.7821 13.9602 29.9621 13.8873 30.1229 13.7816C30.4477 13.5685 30.6746 13.2351 30.7535 12.8547C30.8325 12.4743 30.7571 12.0781 30.544 11.7533ZM21.4454 19.4775L18.3276 16.8563C18.1804 16.7324 18.0102 16.6388 17.8268 16.5808C17.6434 16.5227 17.4504 16.5013 17.2587 16.5179C17.0671 16.5345 16.8806 16.5886 16.7098 16.6773C16.5391 16.7659 16.3875 16.8873 16.2637 17.0346C16.1399 17.1818 16.0463 17.352 15.9883 17.5354C15.9302 17.7188 15.9089 17.9118 15.9255 18.1035C15.942 18.2951 15.9962 18.4816 16.0849 18.6524C16.1736 18.8231 16.295 18.9747 16.4422 19.0984L19.5598 21.7197C19.8233 21.9421 20.1571 22.0639 20.5018 22.0635C20.8024 22.0636 21.0957 21.9713 21.342 21.7991C21.5883 21.6269 21.7756 21.3831 21.8786 21.1007C21.9817 20.8184 21.9953 20.5112 21.9178 20.2209C21.8403 19.9305 21.6754 19.671 21.4454 19.4775ZM14.9372 29.4979L11.2012 27.8854C11.0242 27.8066 10.8333 27.7637 10.6396 27.7592C10.4459 27.7547 10.2533 27.7887 10.0728 27.8592C9.89231 27.9296 9.72761 28.0352 9.58822 28.1698C9.44883 28.3044 9.33752 28.4653 9.26073 28.6431C9.18395 28.821 9.14322 29.0124 9.1409 29.2061C9.13859 29.3999 9.17472 29.5921 9.24723 29.7718C9.31973 29.9515 9.42716 30.115 9.56329 30.2529C9.69942 30.3907 9.86155 30.5002 10.0403 30.575L13.7762 32.1875C13.9592 32.2668 14.1565 32.3077 14.3559 32.3078C14.693 32.3079 15.0198 32.1917 15.2812 31.9789C15.5426 31.7661 15.7226 31.4696 15.7909 31.1395C15.8591 30.8095 15.8115 30.4659 15.656 30.1669C15.5005 29.8678 15.2466 29.6315 14.9372 29.4979ZM11.5682 40.9709L7.52838 40.5031C6.72447 40.4096 5.99791 40.9863 5.90474 41.7898C5.88261 41.9809 5.89834 42.1745 5.95103 42.3595C6.00372 42.5446 6.09234 42.7174 6.21182 42.8682C6.33131 43.0189 6.47932 43.1447 6.6474 43.2383C6.81549 43.3318 7.00036 43.3914 7.19146 43.4135L11.2313 43.8812C11.6128 43.9171 11.9931 43.8021 12.2908 43.5609C12.5885 43.3197 12.7798 42.9715 12.8239 42.5909C12.868 42.2103 12.7612 41.8276 12.5265 41.5248C12.2918 41.222 11.9478 41.0232 11.5682 40.9709ZM13.3223 54.1166C13.2885 53.9272 13.2176 53.7464 13.1139 53.5843C13.0101 53.4223 12.8755 53.2823 12.7176 53.1724C12.5597 53.0624 12.3818 52.9846 12.1938 52.9435C12.0059 52.9023 11.8117 52.8985 11.6223 52.9324L7.61861 53.6486C7.2362 53.7171 6.89664 53.9346 6.6746 54.2533C6.45256 54.5721 6.36624 54.966 6.43463 55.3484C6.50309 55.7309 6.72064 56.0705 7.03944 56.2925C7.35823 56.5146 7.75217 56.6009 8.13463 56.5326L12.1383 55.8164C12.5207 55.748 12.8603 55.5305 13.0823 55.2117C13.3044 54.8929 13.3907 54.499 13.3223 54.1166ZM17.0647 65.0191C16.889 64.6727 16.5829 64.4102 16.2137 64.2894C15.8446 64.1685 15.4425 64.1992 15.096 64.3746L11.4657 66.2143C11.1214 66.3912 10.8611 66.6971 10.7418 67.0653C10.6224 67.4335 10.6536 67.834 10.8285 68.1793C11.0035 68.5245 11.308 68.7865 11.6755 68.908C12.043 69.0295 12.4436 69.0005 12.7899 68.8275L16.4202 66.9879C16.7667 66.8123 17.0293 66.5062 17.1502 66.137C17.271 65.7678 17.2403 65.3657 17.0647 65.0191ZM23.7674 74.385C23.4997 74.1035 23.131 73.94 22.7427 73.9303C22.3543 73.9206 21.978 74.0656 21.6965 74.3334L18.7452 77.1418C18.6058 77.2744 18.4939 77.4332 18.4159 77.609C18.3379 77.7849 18.2953 77.9744 18.2905 78.1667C18.2857 78.359 18.3189 78.5504 18.3881 78.7299C18.4573 78.9094 18.5612 79.0735 18.6938 79.2129C18.8305 79.3569 18.9951 79.4716 19.1776 79.5498C19.36 79.6281 19.5566 79.6683 19.7551 79.668C20.131 79.6684 20.4926 79.5238 20.7647 79.2645L23.7161 76.4561C23.8554 76.3234 23.9673 76.1647 24.0453 75.9888C24.1234 75.813 24.166 75.6235 24.1707 75.4312C24.1755 75.2388 24.1423 75.0474 24.0731 74.8679C24.0039 74.6884 23.9001 74.5243 23.7674 74.385ZM40.2411 36.143H36.5155C35.1692 36.143 34.0741 37.2381 34.0741 38.5844V42.4016C34.0741 43.7478 35.1692 44.843 36.5155 44.843H40.2411C41.5874 44.843 42.6825 43.7478 42.6825 42.4016V38.5844C42.6825 37.2381 41.5874 36.143 40.2411 36.143ZM39.7528 41.9133H37.0038V39.0727H39.7528V41.9133ZM46.9235 24.9162H43.1979C41.8516 24.9162 40.7565 26.0113 40.7565 27.3576V31.1748C40.7565 32.5211 41.8516 33.6162 43.1979 33.6162H46.9235C48.2698 33.6162 49.3649 32.5211 49.3649 31.1748V27.3576C49.3649 26.0113 48.2698 24.9162 46.9235 24.9162ZM46.4352 30.6865H43.6862V27.8459H46.4352V30.6865Z" fill="#24BB7D"/>
</svg>
