<svg width="100" height="100" viewBox="0 0 100 100" fill="none" xmlns="http://www.w3.org/2000/svg">
<path d="M91.6631 25.1484H88.8523C88.8504 25.1437 88.8485 25.1389 88.8467 25.1341L88.3074 23.8179C88.3039 23.8094 88.3003 23.8008 88.2967 23.7923L88.2973 23.7882L90.2943 21.7759C91.2381 20.825 91.2381 19.2773 90.2943 18.3261L86.5432 14.5464C86.0832 14.0828 85.4695 13.8273 84.8154 13.8273C84.1613 13.8273 83.5479 14.0828 83.0879 14.5462L81.099 16.55L81.0846 16.5439L79.7881 16.0044L79.7689 15.9966L79.7678 15.9949V13.1433C79.7678 11.7972 78.6727 10.7019 77.3264 10.7019H72.0291C70.6828 10.7019 69.5877 11.7972 69.5877 13.1433V15.9949L69.5865 15.9966L69.5674 16.0044L68.2711 16.5439C68.2663 16.546 68.2615 16.548 68.2566 16.55L66.2682 14.546C66.0424 14.3175 65.7734 14.1362 65.4768 14.0128C65.1801 13.8893 64.8619 13.8263 64.5406 13.8273C63.9067 13.8258 63.2976 14.0736 62.8447 14.5171C59.217 13.1392 55.2893 12.3826 51.1889 12.3826C32.9182 12.3826 18.0537 27.3558 18.0537 45.7605C18.0537 52.5794 20.0816 59.1373 23.9186 64.7253C27.4771 69.908 32.3504 73.933 38.0564 76.4136V81.8519C36.7504 82.333 35.8146 83.5861 35.8146 85.057V88.2349C35.8146 90.1195 37.348 91.6529 39.2326 91.6529H41.3689V96.7974C41.3689 98.5634 42.8027 99.9999 44.565 99.9999H57.8129C59.5752 99.9999 61.009 98.5634 61.009 96.7974V91.6529H63.1453C65.0299 91.6529 66.5633 90.1195 66.5633 88.2349V85.057C66.5633 83.5861 65.6273 82.3328 64.3213 81.8519V76.4138C71.7416 73.1892 77.7002 67.3923 81.1674 59.9968C81.3322 59.645 81.3506 59.2422 81.2185 58.8768C81.0864 58.5115 80.8146 58.2136 80.4629 58.0486C80.2887 57.9669 80.1002 57.9203 79.908 57.9116C79.7159 57.9028 79.5238 57.9319 79.3429 57.9973C79.162 58.0627 78.9958 58.1632 78.8537 58.2928C78.7116 58.4225 78.5965 58.5789 78.5148 58.7531C75.5361 65.1064 70.5434 70.1658 64.3213 73.189V65.2443H64.6502C65.9965 65.2443 67.0916 64.1492 67.0916 62.8029V58.9857C67.0916 57.6394 65.9965 56.5443 64.6502 56.5443H60.9246C59.5783 56.5443 58.4832 57.6394 58.4832 58.9857V62.8029C58.4832 64.1492 59.5783 65.2443 60.9246 65.2443H61.3918V81.6386H59.2586V70.4007C59.2586 69.4701 58.8008 68.3593 58.1457 67.6992L47.0961 56.5648L47.5664 56.0908C48.5102 55.1398 48.5102 53.5921 47.5664 52.641L44.9266 49.981C44.4666 49.5173 43.8529 49.2619 43.1988 49.2619C42.5447 49.2619 41.9312 49.5173 41.4713 49.9808L38.7977 52.675C37.8539 53.6259 37.8539 55.1736 38.7977 56.1248L41.4375 58.7847C41.8975 59.2484 42.5111 59.5039 43.1652 59.5039C43.8193 59.5039 44.4328 59.2484 44.8928 58.7849L45.0322 58.6443L56.066 69.7626C56.174 69.8751 56.3264 70.2453 56.3291 70.4007V81.6386H53.3006V69.3359C53.3006 68.9474 53.1463 68.5748 52.8715 68.3001C52.5968 68.0254 52.2242 67.871 51.8357 67.871C51.4472 67.871 51.0747 68.0254 50.7999 68.3001C50.5252 68.5748 50.3709 68.9474 50.3709 69.3359V81.6388H45.9395V71.1597H46.3375C47.6838 71.1597 48.7789 70.0646 48.7789 68.7183V64.9011C48.7789 63.5548 47.6838 62.4597 46.3375 62.4597H42.6119C41.2656 62.4597 40.1705 63.5548 40.1705 64.9011V68.7183C40.1705 70.0646 41.2656 71.1597 42.6119 71.1597H43.0098V81.6388H40.9863V75.4374C40.9863 75.1446 40.8985 74.8585 40.7343 74.616C40.5701 74.3735 40.337 74.1858 40.065 74.0771C34.5018 71.8544 29.7537 68.047 26.334 63.0667C22.8338 57.9691 20.9836 51.9847 20.9836 45.7605C20.9836 28.9712 34.5336 15.3123 51.1891 15.3123C54.4596 15.3123 57.6092 15.8417 60.5609 16.8156L59.0621 18.3259C58.1184 19.2769 58.1184 20.8246 59.0621 21.7755L61.0588 23.788L61.0594 23.7921L61.0486 23.8175L60.5094 25.1335L60.5035 25.148H57.6928C56.3465 25.148 55.2514 26.2431 55.2514 27.5894V32.9425C55.2514 34.2888 56.3465 35.3839 57.6928 35.3839H60.5035L60.5094 35.3984L61.0484 36.714L61.0592 36.7396C61.0592 36.741 61.0588 36.7421 61.0586 36.7435L59.0619 38.7562C58.1184 39.707 58.1182 41.2546 59.0619 42.206L62.8131 45.9867C63.0389 46.2152 63.3079 46.3965 63.6045 46.5198C63.9011 46.6432 64.2194 46.7062 64.5406 46.7052C65.1945 46.7052 65.808 46.45 66.2684 45.9863L68.2566 43.9824L68.2711 43.9884L69.5674 44.5279L69.5865 44.5357L69.5877 44.5375V47.389C69.5877 48.7353 70.6828 49.8304 72.0291 49.8304H77.3266C78.6728 49.8304 79.768 48.7353 79.768 47.389V44.5375L79.7691 44.5357L79.7885 44.5277L81.085 43.988L81.0994 43.982L81.3555 44.24C81.3805 44.7435 81.3945 45.2501 81.3945 45.7599C81.3945 47.1144 81.3055 48.4763 81.1301 49.8082C81.0794 50.1933 81.1837 50.5828 81.4202 50.8911C81.6566 51.1993 82.0059 51.401 82.391 51.4517C83.1934 51.5583 83.9289 50.9929 84.0346 50.1908C84.1878 49.0167 84.2796 47.8354 84.3096 46.6517C84.4742 46.6863 84.6434 46.705 84.8158 46.705C85.4697 46.705 86.0832 46.4498 86.5436 45.9861L90.2949 42.2056C91.2385 41.2546 91.2385 39.707 90.2947 38.7558L88.2979 36.7439L88.2973 36.7396L88.3078 36.7144L88.8471 35.3984L88.8529 35.3839H91.6637C93.01 35.3839 94.1051 34.2888 94.1051 32.9425V27.5898C94.1045 26.2435 93.0094 25.1484 91.6631 25.1484ZM43.1648 56.3667L41.2131 54.4L43.1986 52.3994L45.1504 54.3662L43.1648 56.3667ZM57.8127 97.0703H44.5648C44.4205 97.0703 44.2984 96.9453 44.2984 96.7974V95.6554H58.0791V96.7974C58.0791 96.9455 57.957 97.0703 57.8127 97.0703ZM58.0791 92.7257H44.2984V91.6529H58.0791V92.7257ZM61.4125 59.4742H64.1615V62.3148H61.4125V59.4742ZM43.0998 65.3894H45.8488V68.23H43.0998V65.3894ZM38.7441 85.0568C38.7441 84.7921 38.9678 84.5685 39.2324 84.5685H63.1451C63.4098 84.5685 63.6334 84.7921 63.6334 85.0568V88.2347C63.6334 88.4994 63.4098 88.723 63.1451 88.723H39.2324C38.9678 88.723 38.7441 88.4994 38.7441 88.2347V85.0568ZM91.1748 32.4546H88.784C87.6289 32.4546 86.5184 33.2361 86.1227 34.3197L85.6105 35.5697C85.1311 36.613 85.3631 37.9466 86.1729 38.7626L87.8787 40.4814L84.8154 43.5687L83.1248 41.8646C82.6096 41.3459 81.867 41.0482 81.0869 41.0482C80.677 41.0482 80.2766 41.1343 79.925 41.298L78.6947 41.8099C77.6158 42.2101 76.8381 43.3209 76.8381 44.4728V46.9011H72.5174V44.4728C72.5174 43.3209 71.7396 42.2101 70.6607 41.8099L69.4301 41.298C69.0787 41.1345 68.6785 41.0484 68.2688 41.0484C67.4887 41.0484 66.7459 41.346 66.2305 41.8654L64.5406 43.5687L61.4773 40.4814L63.1834 38.7619C63.9932 37.946 64.225 36.6125 63.7453 35.5691L63.2332 34.3195C62.8373 33.2357 61.727 32.4544 60.5719 32.4544H58.1809V28.0781H60.5719C61.727 28.0781 62.8375 27.2968 63.2332 26.2128L63.7453 24.9628C64.2248 23.9197 63.9928 22.5859 63.1832 21.7701L61.4773 20.0507L64.5404 16.9642L66.2307 18.6675C66.7459 19.1863 67.4887 19.4841 68.2688 19.4841C68.6785 19.4841 69.0787 19.398 69.4301 19.2345L70.6607 18.7226C71.7396 18.3224 72.5174 17.2117 72.5174 16.0597V13.6316H76.8383V16.0599C76.8383 17.2117 77.616 18.3228 78.6951 18.7228L79.9252 19.2345C80.2768 19.3982 80.6771 19.4843 81.0871 19.4843C81.8674 19.4843 82.6102 19.1867 83.125 18.6675L84.8154 16.9644L87.8787 20.0509L86.1727 21.7701C85.3631 22.5859 85.1311 23.9195 85.6105 24.9626L86.1227 26.213C86.5186 27.2966 87.6289 28.0781 88.784 28.0781H91.1748V32.4546Z" fill="#1C74E8"/>
<path d="M84.283 27.0831C84.2243 26.8989 84.1298 26.7281 84.0048 26.5807C83.8798 26.4332 83.7268 26.3119 83.5547 26.2238C83.3826 26.1357 83.1948 26.0826 83.0021 26.0674C82.8094 26.0523 82.6155 26.0754 82.4318 26.1355C82.2481 26.1957 82.078 26.2915 81.9315 26.4177C81.785 26.5438 81.6649 26.6977 81.5782 26.8705C81.4914 27.0432 81.4398 27.2315 81.4261 27.4243C81.4124 27.6171 81.4371 27.8108 81.4986 27.994C81.738 28.7277 81.8594 29.4946 81.8584 30.2663C81.8584 34.2618 78.6373 37.5124 74.6781 37.5124C70.7189 37.5124 67.498 34.2618 67.498 30.2663C67.498 26.2708 70.7189 23.02 74.6781 23.02C75.4926 23.02 76.291 23.1562 77.0514 23.4247C77.4177 23.5541 77.8204 23.5326 78.1709 23.3651C78.5214 23.1975 78.791 22.8976 78.9204 22.5313C79.0498 22.1649 79.0283 21.7622 78.8608 21.4117C78.6932 21.0612 78.3933 20.7916 78.027 20.6622C76.9513 20.2827 75.8188 20.0893 74.6781 20.0903C69.1035 20.0903 64.5684 24.6552 64.5684 30.2663C64.5684 35.8773 69.1035 40.4421 74.6781 40.4421C80.2527 40.4421 84.7881 35.8773 84.7881 30.2663C84.7881 29.1784 84.6182 28.1073 84.283 27.0831Z" fill="#1C74E8"/>
<path d="M74.678 25.1191C71.8552 25.1191 69.5589 27.4281 69.5589 30.2664C69.5589 33.1045 71.8554 35.4137 74.678 35.4137C77.5009 35.4137 79.7972 33.1047 79.7972 30.2664C79.7974 27.4283 77.5009 25.1191 74.678 25.1191ZM74.678 32.4838C73.4706 32.4838 72.4886 31.4891 72.4886 30.2662C72.4886 29.0434 73.4708 28.0486 74.678 28.0486C75.8855 28.0486 76.8675 29.0434 76.8675 30.2662C76.8677 31.4893 75.8855 32.4838 74.678 32.4838ZM53.698 39.4477H49.9724C48.6261 39.4477 47.531 40.5428 47.531 41.8891V45.7063C47.531 47.0525 48.6261 48.1477 49.9724 48.1477H50.3704V57.2264C50.3704 57.6149 50.5247 57.9875 50.7995 58.2622C51.0742 58.5369 51.4468 58.6912 51.8353 58.6912C52.2238 58.6912 52.5964 58.5369 52.8711 58.2622C53.1458 57.9875 53.3001 57.6149 53.3001 57.2264V48.1477H53.698C55.0442 48.1477 56.1394 47.0525 56.1394 45.7063V41.8891C56.1394 40.5428 55.0442 39.4477 53.698 39.4477ZM53.2097 45.218H50.4607V42.3773H53.2097V45.218ZM51.8351 0C51.4466 0 51.074 0.154331 50.7993 0.429043C50.5246 0.703754 50.3702 1.07634 50.3702 1.46484V5.54648C50.3702 5.93499 50.5246 6.30757 50.7993 6.58229C51.074 6.857 51.4466 7.01133 51.8351 7.01133C52.2236 7.01133 52.5962 6.857 52.8709 6.58229C53.1456 6.30757 53.2999 5.93499 53.2999 5.54648V1.46484C53.2999 1.07634 53.1456 0.703754 52.8709 0.429043C52.5962 0.154331 52.2236 0 51.8351 0ZM41.4692 6.97578L40.3017 3.06562C40.2466 2.88128 40.1558 2.70958 40.0344 2.56033C39.913 2.41108 39.7634 2.2872 39.5942 2.19578C39.4249 2.10435 39.2393 2.04716 39.0479 2.02748C38.8565 2.00779 38.6632 2.026 38.4788 2.08105C38.2945 2.13608 38.1228 2.22688 37.9736 2.34826C37.8244 2.46965 37.7005 2.61924 37.6091 2.78849C37.5177 2.95774 37.4605 3.14334 37.4408 3.3347C37.4212 3.52605 37.4394 3.7194 37.4944 3.90371L38.6618 7.81387C38.7731 8.18608 39.0276 8.49888 39.3694 8.6835C39.7113 8.86813 40.1124 8.90947 40.4847 8.79844C40.8569 8.6873 41.1698 8.43283 41.3544 8.09102C41.5391 7.7492 41.5804 7.34804 41.4692 6.97578ZM30.5442 11.7533L28.3075 8.34434C28.0944 8.01953 27.761 7.79269 27.3806 7.71372C27.0002 7.63475 26.604 7.71012 26.2792 7.92324C25.9544 8.13638 25.7276 8.46981 25.6486 8.85019C25.5696 9.23057 25.645 9.62675 25.8581 9.95156L28.095 13.3604C28.2004 13.5213 28.3365 13.6599 28.4955 13.7682C28.6546 13.8765 28.8334 13.9524 29.0217 13.9915C29.2101 14.0307 29.4043 14.0323 29.5933 13.9963C29.7823 13.9602 29.9624 13.8873 30.1232 13.7816C30.448 13.5685 30.6748 13.2351 30.7538 12.8547C30.8327 12.4743 30.7574 12.0781 30.5442 11.7533ZM21.4456 19.4775L18.3278 16.8563C18.1806 16.7324 18.0105 16.6388 17.8271 16.5808C17.6437 16.5227 17.4506 16.5013 17.259 16.5179C17.0673 16.5345 16.8808 16.5886 16.7101 16.6773C16.5394 16.7659 16.3878 16.8873 16.264 17.0346C16.1402 17.1818 16.0466 17.352 15.9885 17.5354C15.9305 17.7188 15.9091 17.9118 15.9257 18.1035C15.9423 18.2951 15.9965 18.4816 16.0851 18.6524C16.1738 18.8231 16.2952 18.9747 16.4425 19.0984L19.5601 21.7197C19.8236 21.9421 20.1573 22.0639 20.5021 22.0635C20.8026 22.0636 21.0959 21.9713 21.3422 21.7991C21.5885 21.6269 21.7759 21.3831 21.8789 21.1007C21.9819 20.8184 21.9956 20.5112 21.9181 20.2209C21.8406 19.9305 21.6756 19.671 21.4456 19.4775ZM14.9374 29.4979L11.2015 27.8854C11.0245 27.8066 10.8336 27.7637 10.6399 27.7592C10.4462 27.7547 10.2535 27.7887 10.073 27.8592C9.89255 27.9296 9.72785 28.0352 9.58846 28.1698C9.44907 28.3044 9.33776 28.4653 9.26098 28.6431C9.1842 28.821 9.14347 29.0124 9.14115 29.2061C9.13883 29.3999 9.17497 29.5921 9.24747 29.7718C9.31998 29.9515 9.4274 30.115 9.56353 30.2529C9.69967 30.3907 9.86179 30.5002 10.0405 30.575L13.7765 32.1875C13.9595 32.2668 14.1567 32.3077 14.3562 32.3078C14.6932 32.3079 15.02 32.1917 15.2814 31.9789C15.5428 31.7661 15.7228 31.4696 15.7911 31.1395C15.8594 30.8095 15.8118 30.4659 15.6562 30.1669C15.5007 29.8678 15.2468 29.6315 14.9374 29.4979ZM11.5685 40.9709L7.52862 40.5031C6.72471 40.4096 5.99815 40.9863 5.90499 41.7898C5.88286 41.9809 5.89859 42.1745 5.95128 42.3595C6.00396 42.5446 6.09258 42.7174 6.21207 42.8682C6.33155 43.0189 6.47956 43.1447 6.64765 43.2383C6.81574 43.3318 7.00061 43.3914 7.19171 43.4135L11.2316 43.8812C11.613 43.9171 11.9933 43.8021 12.291 43.5609C12.5887 43.3197 12.7801 42.9715 12.8241 42.5909C12.8682 42.2103 12.7614 41.8276 12.5267 41.5248C12.292 41.222 11.948 41.0232 11.5685 40.9709ZM13.3226 54.1166C13.2887 53.9272 13.2179 53.7464 13.1141 53.5843C13.0104 53.4223 12.8757 53.2823 12.7178 53.1724C12.56 53.0624 12.382 52.9846 12.1941 52.9435C12.0061 52.9023 11.8119 52.8985 11.6226 52.9324L7.61885 53.6486C7.23645 53.7171 6.89688 53.9346 6.67484 54.2533C6.45281 54.5721 6.36649 54.966 6.43487 55.3484C6.50334 55.7309 6.72089 56.0705 7.03968 56.2925C7.35847 56.5146 7.75241 56.6009 8.13487 56.5326L12.1386 55.8164C12.521 55.748 12.8606 55.5305 13.0826 55.2117C13.3046 54.8929 13.3909 54.499 13.3226 54.1166ZM17.0649 65.0191C16.8892 64.6727 16.5831 64.4102 16.214 64.2894C15.8448 64.1685 15.4428 64.1992 15.0962 64.3746L11.4659 66.2143C11.1217 66.3912 10.8614 66.6971 10.742 67.0653C10.6226 67.4335 10.6538 67.834 10.8288 68.1793C11.0037 68.5245 11.3082 68.7865 11.6757 68.908C12.0432 69.0295 12.4439 69.0005 12.7901 68.8275L16.4204 66.9879C16.767 66.8123 17.0295 66.5062 17.1504 66.137C17.2713 65.7678 17.2405 65.3657 17.0649 65.0191ZM23.7677 74.385C23.4999 74.1035 23.1313 73.94 22.7429 73.9303C22.3545 73.9206 21.9782 74.0656 21.6968 74.3334L18.7454 77.1418C18.606 77.2744 18.4942 77.4332 18.4161 77.609C18.3381 77.7849 18.2955 77.9744 18.2908 78.1667C18.286 78.359 18.3191 78.5504 18.3883 78.7299C18.4575 78.9094 18.5614 79.0735 18.694 79.2129C18.8307 79.3569 18.9953 79.4716 19.1778 79.5498C19.3603 79.6281 19.5568 79.6683 19.7554 79.668C20.1313 79.6684 20.4929 79.5238 20.7649 79.2645L23.7163 76.4561C23.8557 76.3234 23.9676 76.1647 24.0456 75.9888C24.1236 75.813 24.1662 75.6235 24.171 75.4312C24.1757 75.2388 24.1426 75.0474 24.0734 74.8679C24.0042 74.6884 23.9003 74.5243 23.7677 74.385ZM40.2413 36.143H36.5157C35.1694 36.143 34.0743 37.2381 34.0743 38.5844V42.4016C34.0743 43.7478 35.1694 44.843 36.5157 44.843H40.2413C41.5876 44.843 42.6827 43.7478 42.6827 42.4016V38.5844C42.6827 37.2381 41.5876 36.143 40.2413 36.143ZM39.753 41.9133H37.004V39.0727H39.753V41.9133ZM46.9237 24.9162H43.1982C41.8519 24.9162 40.7567 26.0113 40.7567 27.3576V31.1748C40.7567 32.5211 41.8519 33.6162 43.1982 33.6162H46.9237C48.27 33.6162 49.3651 32.5211 49.3651 31.1748V27.3576C49.3651 26.0113 48.27 24.9162 46.9237 24.9162ZM46.4355 30.6865H43.6864V27.8459H46.4355V30.6865Z" fill="#1C74E8"/>
</svg>
