<svg width="80" height="80" viewBox="0 0 80 80" fill="none" xmlns="http://www.w3.org/2000/svg">
<path d="M76.25 70H73.75V25H75C75.3315 25 75.6495 24.8683 75.8839 24.6339C76.1183 24.3995 76.25 24.0815 76.25 23.75V18.75C76.25 18.4185 76.1183 18.1005 75.8839 17.8661C75.6495 17.6317 75.3315 17.5 75 17.5H58.75V10H61.25C61.5815 10 61.8995 9.8683 62.1339 9.63388C62.3683 9.39946 62.5 9.08152 62.5 8.75V3.75C62.5 3.41848 62.3683 3.10054 62.1339 2.86612C61.8995 2.6317 61.5815 2.5 61.25 2.5H18.75C18.4185 2.5 18.1005 2.6317 17.8661 2.86612C17.6317 3.10054 17.5 3.41848 17.5 3.75V8.75C17.5 9.08152 17.6317 9.39946 17.8661 9.63388C18.1005 9.8683 18.4185 10 18.75 10H21.25V17.5H5C4.66848 17.5 4.35054 17.6317 4.11612 17.8661C3.8817 18.1005 3.75 18.4185 3.75 18.75V23.75C3.75 24.0815 3.8817 24.3995 4.11612 24.6339C4.35054 24.8683 4.66848 25 5 25H6.25V70H3.75C3.41848 70 3.10054 70.1317 2.86612 70.3661C2.6317 70.6005 2.5 70.9185 2.5 71.25V76.25C2.5 76.5815 2.6317 76.8995 2.86612 77.1339C3.10054 77.3683 3.41848 77.5 3.75 77.5H76.25C76.5815 77.5 76.8995 77.3683 77.1339 77.1339C77.3683 76.8995 77.5 76.5815 77.5 76.25V71.25C77.5 70.9185 77.3683 70.6005 77.1339 70.3661C76.8995 70.1317 76.5815 70 76.25 70ZM73.75 20V22.5H58.75V20H73.75ZM71.25 25V70H58.75V25H71.25ZM20 7.5V5H60V7.5H20ZM50 52.5H30C29.6685 52.5 29.3505 52.6317 29.1161 52.8661C28.8817 53.1005 28.75 53.4185 28.75 53.75V70H23.75V10H56.25V70H51.25V53.75C51.25 53.4185 51.1183 53.1005 50.8839 52.8661C50.6495 52.6317 50.3315 52.5 50 52.5ZM48.75 55V70H41.25V55H48.75ZM38.75 55V70H31.25V55H38.75ZM6.25 20H21.25V22.5H6.25V20ZM21.25 25V70H8.75V25H21.25ZM75 75H5V72.5H75V75Z" fill="#1C74E8"/>
<path d="M27.5 50.0001H32.5C32.8315 50.0001 33.1495 49.8684 33.3839 49.634C33.6183 49.3996 33.75 49.0817 33.75 48.7501V43.7501C33.75 43.4186 33.6183 43.1007 33.3839 42.8663C33.1495 42.6318 32.8315 42.5001 32.5 42.5001H27.5C27.1685 42.5001 26.8505 42.6318 26.6161 42.8663C26.3817 43.1007 26.25 43.4186 26.25 43.7501V48.7501C26.25 49.0817 26.3817 49.3996 26.6161 49.634C26.8505 49.8684 27.1685 50.0001 27.5 50.0001ZM28.75 45.0001H31.25V47.5001H28.75V45.0001ZM42.5 42.5001H37.5C37.1685 42.5001 36.8505 42.6318 36.6161 42.8663C36.3817 43.1007 36.25 43.4186 36.25 43.7501V48.7501C36.25 49.0817 36.3817 49.3996 36.6161 49.634C36.8505 49.8684 37.1685 50.0001 37.5 50.0001H42.5C42.8315 50.0001 43.1495 49.8684 43.3839 49.634C43.6183 49.3996 43.75 49.0817 43.75 48.7501V43.7501C43.75 43.4186 43.6183 43.1007 43.3839 42.8663C43.1495 42.6318 42.8315 42.5001 42.5 42.5001ZM41.25 47.5001H38.75V45.0001H41.25V47.5001ZM47.5 50.0001H52.5C52.8315 50.0001 53.1495 49.8684 53.3839 49.634C53.6183 49.3996 53.75 49.0817 53.75 48.7501V43.7501C53.75 43.4186 53.6183 43.1007 53.3839 42.8663C53.1495 42.6318 52.8315 42.5001 52.5 42.5001H47.5C47.1685 42.5001 46.8505 42.6318 46.6161 42.8663C46.3817 43.1007 46.25 43.4186 46.25 43.7501V48.7501C46.25 49.0817 46.3817 49.3996 46.6161 49.634C46.8505 49.8684 47.1685 50.0001 47.5 50.0001ZM48.75 45.0001H51.25V47.5001H48.75V45.0001ZM27.5 40.0001H32.5C32.8315 40.0001 33.1495 39.8684 33.3839 39.634C33.6183 39.3996 33.75 39.0817 33.75 38.7501V33.7501C33.75 33.4186 33.6183 33.1007 33.3839 32.8663C33.1495 32.6318 32.8315 32.5001 32.5 32.5001H27.5C27.1685 32.5001 26.8505 32.6318 26.6161 32.8663C26.3817 33.1007 26.25 33.4186 26.25 33.7501V38.7501C26.25 39.0817 26.3817 39.3996 26.6161 39.634C26.8505 39.8684 27.1685 40.0001 27.5 40.0001ZM28.75 35.0001H31.25V37.5001H28.75V35.0001ZM42.5 32.5001H37.5C37.1685 32.5001 36.8505 32.6318 36.6161 32.8663C36.3817 33.1007 36.25 33.4186 36.25 33.7501V38.7501C36.25 39.0817 36.3817 39.3996 36.6161 39.634C36.8505 39.8684 37.1685 40.0001 37.5 40.0001H42.5C42.8315 40.0001 43.1495 39.8684 43.3839 39.634C43.6183 39.3996 43.75 39.0817 43.75 38.7501V33.7501C43.75 33.4186 43.6183 33.1007 43.3839 32.8663C43.1495 32.6318 42.8315 32.5001 42.5 32.5001ZM41.25 37.5001H38.75V35.0001H41.25V37.5001ZM47.5 40.0001H52.5C52.8315 40.0001 53.1495 39.8684 53.3839 39.634C53.6183 39.3996 53.75 39.0817 53.75 38.7501V33.7501C53.75 33.4186 53.6183 33.1007 53.3839 32.8663C53.1495 32.6318 52.8315 32.5001 52.5 32.5001H47.5C47.1685 32.5001 46.8505 32.6318 46.6161 32.8663C46.3817 33.1007 46.25 33.4186 46.25 33.7501V38.7501C46.25 39.0817 46.3817 39.3996 46.6161 39.634C46.8505 39.8684 47.1685 40.0001 47.5 40.0001ZM48.75 35.0001H51.25V37.5001H48.75V35.0001ZM35.8113 27.4214C35.9651 27.4791 36.1287 27.5059 36.2929 27.5004C36.4571 27.4948 36.6186 27.4569 36.7681 27.3889C36.9176 27.3208 37.0523 27.224 37.1643 27.1039C37.2764 26.9838 37.3637 26.8428 37.4212 26.6889L38.0538 25.0001H41.9462L42.5788 26.6889C42.6681 26.9273 42.8282 27.1327 43.0375 27.2777C43.2468 27.4227 43.4954 27.5003 43.75 27.5001C43.9001 27.4995 44.049 27.4729 44.19 27.4214C44.3438 27.3637 44.4846 27.2763 44.6046 27.1642C44.7246 27.0521 44.8213 26.9174 44.8892 26.7679C44.9571 26.6184 44.9949 26.457 45.0004 26.2928C45.0059 26.1287 44.979 25.9651 44.9212 25.8114L41.1712 15.8114C41.0822 15.5726 40.9223 15.3667 40.713 15.2213C40.5036 15.076 40.2549 14.998 40 14.998C39.7451 14.998 39.4964 15.076 39.287 15.2213C39.0777 15.3667 38.9178 15.5726 38.8288 15.8114L35.0788 25.8114C35.021 25.9652 34.9942 26.1289 34.9998 26.293C35.0054 26.4572 35.0433 26.6187 35.1113 26.7682C35.1793 26.9177 35.2761 27.0524 35.3963 27.1645C35.5164 27.2765 35.6574 27.3638 35.8113 27.4214ZM40 19.8101L41.0087 22.5001H38.9913L40 19.8101ZM53.75 18.7501C53.747 17.7565 53.351 16.8044 52.6484 16.1018C51.9458 15.3991 50.9936 15.0031 50 15.0001H47.5C47.1685 15.0001 46.8505 15.1318 46.6161 15.3663C46.3817 15.6007 46.25 15.9186 46.25 16.2501V26.2501C46.25 26.5817 46.3817 26.8996 46.6161 27.134C46.8505 27.3684 47.1685 27.5001 47.5 27.5001H50C50.9936 27.4972 51.9458 27.1011 52.6484 26.3985C53.351 25.6959 53.747 24.7438 53.75 23.7501C53.7476 22.8245 53.3999 21.933 52.775 21.2501C53.3999 20.5673 53.7476 19.6758 53.75 18.7501ZM50 25.0001H48.75V22.5001H50C50.3315 22.5001 50.6495 22.6318 50.8839 22.8663C51.1183 23.1007 51.25 23.4186 51.25 23.7501C51.25 24.0817 51.1183 24.3996 50.8839 24.634C50.6495 24.8684 50.3315 25.0001 50 25.0001ZM50 20.0001H48.75V17.5001H50C50.3315 17.5001 50.6495 17.6318 50.8839 17.8663C51.1183 18.1007 51.25 18.4186 51.25 18.7501C51.25 19.0817 51.1183 19.3996 50.8839 19.634C50.6495 19.8684 50.3315 20.0001 50 20.0001ZM27.5 27.5001H32.5C32.8315 27.5001 33.1495 27.3684 33.3839 27.134C33.6183 26.8996 33.75 26.5817 33.75 26.2501C33.75 25.9186 33.6183 25.6007 33.3839 25.3663C33.1495 25.1318 32.8315 25.0001 32.5 25.0001H28.75V16.2501C28.75 15.9186 28.6183 15.6007 28.3839 15.3663C28.1495 15.1318 27.8315 15.0001 27.5 15.0001C27.1685 15.0001 26.8505 15.1318 26.6161 15.3663C26.3817 15.6007 26.25 15.9186 26.25 16.2501V26.2501C26.25 26.5817 26.3817 26.8996 26.6161 27.134C26.8505 27.3684 27.1685 27.5001 27.5 27.5001ZM62.5 55.0001H67.5C67.8315 55.0001 68.1495 54.8684 68.3839 54.634C68.6183 54.3996 68.75 54.0817 68.75 53.7501V48.7501C68.75 48.4186 68.6183 48.1007 68.3839 47.8662C68.1495 47.6318 67.8315 47.5001 67.5 47.5001H62.5C62.1685 47.5001 61.8505 47.6318 61.6161 47.8662C61.3817 48.1007 61.25 48.4186 61.25 48.7501V53.7501C61.25 54.0817 61.3817 54.3996 61.6161 54.634C61.8505 54.8684 62.1685 55.0001 62.5 55.0001ZM63.75 50.0001H66.25V52.5001H63.75V50.0001ZM62.5 65.0001H67.5C67.8315 65.0001 68.1495 64.8684 68.3839 64.634C68.6183 64.3996 68.75 64.0817 68.75 63.7501V58.7501C68.75 58.4186 68.6183 58.1007 68.3839 57.8662C68.1495 57.6318 67.8315 57.5001 67.5 57.5001H62.5C62.1685 57.5001 61.8505 57.6318 61.6161 57.8662C61.3817 58.1007 61.25 58.4186 61.25 58.7501V63.7501C61.25 64.0817 61.3817 64.3996 61.6161 64.634C61.8505 64.8684 62.1685 65.0001 62.5 65.0001ZM63.75 60.0001H66.25V62.5001H63.75V60.0001ZM17.5 47.5001H12.5C12.1685 47.5001 11.8505 47.6318 11.6161 47.8662C11.3817 48.1007 11.25 48.4186 11.25 48.7501V53.7501C11.25 54.0817 11.3817 54.3996 11.6161 54.634C11.8505 54.8684 12.1685 55.0001 12.5 55.0001H17.5C17.8315 55.0001 18.1495 54.8684 18.3839 54.634C18.6183 54.3996 18.75 54.0817 18.75 53.7501V48.7501C18.75 48.4186 18.6183 48.1007 18.3839 47.8662C18.1495 47.6318 17.8315 47.5001 17.5 47.5001ZM16.25 52.5001H13.75V50.0001H16.25V52.5001ZM17.5 57.5001H12.5C12.1685 57.5001 11.8505 57.6318 11.6161 57.8662C11.3817 58.1007 11.25 58.4186 11.25 58.7501V63.7501C11.25 64.0817 11.3817 64.3996 11.6161 64.634C11.8505 64.8684 12.1685 65.0001 12.5 65.0001H17.5C17.8315 65.0001 18.1495 64.8684 18.3839 64.634C18.6183 64.3996 18.75 64.0817 18.75 63.7501V58.7501C18.75 58.4186 18.6183 58.1007 18.3839 57.8662C18.1495 57.6318 17.8315 57.5001 17.5 57.5001ZM16.25 62.5001H13.75V60.0001H16.25V62.5001ZM17.5 37.5001H12.5C12.1685 37.5001 11.8505 37.6318 11.6161 37.8663C11.3817 38.1007 11.25 38.4186 11.25 38.7501V43.7501C11.25 44.0817 11.3817 44.3996 11.6161 44.634C11.8505 44.8684 12.1685 45.0001 12.5 45.0001H17.5C17.8315 45.0001 18.1495 44.8684 18.3839 44.634C18.6183 44.3996 18.75 44.0817 18.75 43.7501V38.7501C18.75 38.4186 18.6183 38.1007 18.3839 37.8663C18.1495 37.6318 17.8315 37.5001 17.5 37.5001ZM16.25 42.5001H13.75V40.0001H16.25V42.5001ZM17.5 26.2501H12.5C12.1685 26.2501 11.8505 26.3818 11.6161 26.6163C11.3817 26.8507 11.25 27.1686 11.25 27.5001V32.5001C11.25 32.8317 11.3817 33.1496 11.6161 33.384C11.8505 33.6184 12.1685 33.7501 12.5 33.7501H17.5C17.8315 33.7501 18.1495 33.6184 18.3839 33.384C18.6183 33.1496 18.75 32.8317 18.75 32.5001V27.5001C18.75 27.1686 18.6183 26.8507 18.3839 26.6163C18.1495 26.3818 17.8315 26.2501 17.5 26.2501ZM16.25 31.2501H13.75V28.7501H16.25V31.2501ZM62.5 45.0001H67.5C67.8315 45.0001 68.1495 44.8684 68.3839 44.634C68.6183 44.3996 68.75 44.0817 68.75 43.7501V38.7501C68.75 38.4186 68.6183 38.1007 68.3839 37.8663C68.1495 37.6318 67.8315 37.5001 67.5 37.5001H62.5C62.1685 37.5001 61.8505 37.6318 61.6161 37.8663C61.3817 38.1007 61.25 38.4186 61.25 38.7501V43.7501C61.25 44.0817 61.3817 44.3996 61.6161 44.634C61.8505 44.8684 62.1685 45.0001 62.5 45.0001ZM63.75 40.0001H66.25V42.5001H63.75V40.0001ZM62.5 35.0001H67.5C67.8315 35.0001 68.1495 34.8684 68.3839 34.634C68.6183 34.3996 68.75 34.0817 68.75 33.7501V28.7501C68.75 28.4186 68.6183 28.1007 68.3839 27.8663C68.1495 27.6318 67.8315 27.5001 67.5 27.5001H62.5C62.1685 27.5001 61.8505 27.6318 61.6161 27.8663C61.3817 28.1007 61.25 28.4186 61.25 28.7501V33.7501C61.25 34.0817 61.3817 34.3996 61.6161 34.634C61.8505 34.8684 62.1685 35.0001 62.5 35.0001ZM63.75 30.0001H66.25V32.5001H63.75V30.0001Z" fill="#1C74E8"/>
</svg>
