<svg width="80" height="80" viewBox="0 0 80 80" fill="none" xmlns="http://www.w3.org/2000/svg">
<path d="M9.37842 39.9197H7.03516V5.93746C7.03844 2.70334 9.65955 0.0822265 12.894 0.078125H63.2816V2.42186H12.8939C10.9521 2.42186 9.37831 3.99615 9.37831 5.93746L9.37842 39.9197Z" fill="#1C74E8"/>
<path d="M59.7666 75.074H22.2686V72.7302H58.5947V4.76577C58.5947 4.12918 58.7244 3.49927 58.9758 2.91445C59.2273 2.32963 59.5952 1.80215 60.0572 1.36419C60.5192 0.926103 61.0656 0.586807 61.6631 0.367026C62.2607 0.147244 62.8967 0.0515918 63.5325 0.0859119C66.0736 0.274114 68.0223 2.41734 67.9692 4.96475V25.8583H73.828C74.4753 25.8583 74.9999 26.383 74.9999 27.0297V32.8891C74.9999 35.4782 72.9011 37.5761 70.3129 37.5761C67.7238 37.5761 65.6254 35.4782 65.6254 32.8891V4.96475C65.6639 3.66796 64.698 2.56066 63.4085 2.42191C63.0904 2.40548 62.7722 2.45376 62.4733 2.56384C62.1744 2.67392 61.9009 2.84351 61.6694 3.06234C61.4371 3.28076 61.2522 3.54474 61.1264 3.83781C61.0007 4.13088 60.9367 4.44673 60.9384 4.76565V73.9022C60.9384 74.5494 60.4134 75.0741 59.7666 75.0741V75.074ZM67.9692 28.2016V32.8891C67.9692 34.1832 69.0179 35.2323 70.3129 35.2323C71.607 35.2323 72.6562 34.1832 72.6562 32.8891V28.2016H67.9692Z" fill="#1C74E8"/>
<path d="M59.7667 35.2324H70.313V37.5762H59.7667V35.2324ZM12.8942 65.6997C12.2319 65.7142 11.5831 65.5115 11.0469 65.1225C10.5107 64.7336 10.1166 64.1798 9.92468 63.5458C9.88868 63.4378 9.82734 63.3399 9.74579 63.2605C9.66424 63.181 9.56485 63.1222 9.45593 63.089C9.33246 63.0487 9.20118 63.0383 9.07291 63.0587C8.94463 63.0791 8.82304 63.1296 8.71812 63.2062C8.17265 63.6121 7.51 63.8296 6.8301 63.826C6.1502 63.8223 5.48991 63.5977 4.94881 63.186C4.42756 62.8078 4.04548 62.2684 3.86171 61.6512C3.67794 61.034 3.70272 60.3734 3.93221 59.7717C3.96792 59.6764 3.97908 59.5737 3.96469 59.473C3.95029 59.3723 3.9108 59.2768 3.84983 59.1954C3.77868 59.0885 3.67987 59.0029 3.56393 58.9478C3.448 58.8927 3.31927 58.87 3.19148 58.8822C2.51824 58.9147 1.85335 58.7221 1.30167 58.3349C0.749987 57.9476 0.342905 57.3878 0.144622 56.7436C-0.270923 55.466 0.236262 54.0684 1.37508 53.3552C1.46947 53.2987 1.54761 53.2187 1.60185 53.123C1.65609 53.0273 1.68459 52.9192 1.68457 52.8091C1.68457 52.5857 1.56739 52.3784 1.3752 52.2639C0.237082 51.5516 -0.270571 50.1573 0.142395 48.8796C0.342321 48.2365 0.749818 47.6777 1.30112 47.2909C1.85243 46.904 2.51644 46.7108 3.18925 46.7415C3.31665 46.7504 3.4442 46.7263 3.55954 46.6714C3.67487 46.6166 3.77406 46.5328 3.84749 46.4283C3.90838 46.3468 3.94781 46.2512 3.96214 46.1505C3.97648 46.0497 3.96526 45.9469 3.92952 45.8516C3.45796 44.6147 3.87491 43.2145 4.94658 42.4367C6.05845 41.5926 7.59477 41.5844 8.71484 42.4175C8.81968 42.4946 8.9415 42.5455 9.07006 42.5658C9.19863 42.5861 9.33019 42.5753 9.4537 42.5342C9.5627 42.5012 9.66216 42.4424 9.74374 42.3629C9.82531 42.2834 9.8866 42.1855 9.92245 42.0774C10.114 41.4425 10.5083 40.8877 11.045 40.4981C11.5817 40.1085 12.2313 39.9054 12.8943 39.92C14.2547 39.8907 15.4691 40.7714 15.8632 42.0741C15.8992 42.1822 15.9605 42.28 16.042 42.3594C16.1236 42.4388 16.223 42.4975 16.332 42.5306C16.4553 42.5724 16.587 42.5835 16.7156 42.5631C16.8443 42.5427 16.966 42.4913 17.0704 42.4134C18.1901 41.5794 19.7277 41.5871 20.8386 42.4335C21.9103 43.2112 22.3277 44.6111 21.8563 45.8484C21.8204 45.9436 21.8091 46.0462 21.8234 46.1469C21.8376 46.2476 21.8769 46.3432 21.9377 46.4247C22.0074 46.5331 22.1061 46.6198 22.2224 46.6752C22.3388 46.7305 22.4684 46.7522 22.5964 46.7378C23.9775 46.6824 25.2259 47.5586 25.6433 48.876C25.8444 49.497 25.8323 50.1675 25.6089 50.7808C25.3855 51.3942 24.9636 51.9153 24.4101 52.2615C24.3159 52.318 24.2378 52.3979 24.1836 52.4934C24.1294 52.589 24.1009 52.6969 24.1008 52.8068C24.1009 52.9168 24.1295 53.0248 24.1837 53.1205C24.2379 53.2162 24.3159 53.2962 24.4101 53.3529C25.5486 54.0652 26.0566 55.4596 25.6433 56.7367C25.2286 58.0574 23.9789 58.9344 22.5964 58.8753C22.4683 58.86 22.3385 58.8813 22.2219 58.9368C22.1054 58.9922 22.0069 59.0794 21.9378 59.1884C21.877 59.27 21.8376 59.3655 21.8234 59.4662C21.8091 59.5669 21.8204 59.6696 21.8563 59.7648C22.3277 61.0021 21.9102 62.4015 20.8386 63.1792C19.7277 64.0257 18.1901 64.0334 17.0704 63.1994C16.9659 63.1218 16.8442 63.0706 16.7156 63.0502C16.5871 63.0298 16.4555 63.0408 16.3321 63.0822C16.2231 63.1153 16.1237 63.1741 16.0421 63.2536C15.9606 63.3331 15.8993 63.4309 15.8633 63.539C15.6728 64.1743 15.2792 64.7295 14.743 65.1198C14.2067 65.51 13.5573 65.7137 12.8942 65.6997ZM9.19695 60.7037C9.53421 60.7037 9.8703 60.7572 10.1907 60.8639C10.6549 61.0143 11.0764 61.2737 11.4199 61.6202C11.7635 61.9668 12.0191 62.3905 12.1655 62.856C12.2813 63.1567 12.5715 63.3555 12.8942 63.3555C13.2169 63.3555 13.5063 63.1567 13.623 62.856C13.7694 62.3906 14.0249 61.9669 14.3684 61.6204C14.7119 61.2738 15.1332 61.0144 15.5973 60.8639C16.0764 60.7054 16.5864 60.6637 17.0848 60.7424C17.5832 60.8211 18.0555 61.0178 18.4624 61.3162C18.6015 61.4228 18.772 61.4801 18.9472 61.4791C19.1224 61.4781 19.2923 61.4189 19.4302 61.3107C19.5474 61.2352 19.6349 61.1214 19.6776 60.9887C19.7204 60.856 19.7157 60.7125 19.6645 60.5828C19.4968 60.128 19.4431 59.639 19.5083 59.1586C19.5735 58.6782 19.7556 58.2212 20.0385 57.8276C20.3375 57.4143 20.7332 57.0808 21.191 56.856C21.6489 56.6313 22.1549 56.5223 22.6646 56.5385C22.8253 56.5411 22.983 56.495 23.1171 56.4064C23.2511 56.3178 23.3552 56.1907 23.4158 56.0419C23.4616 55.9069 23.4582 55.7602 23.4063 55.6275C23.3544 55.4948 23.2573 55.3848 23.1321 55.3167C22.713 55.047 22.3682 54.6764 22.1295 54.2389C21.8908 53.8014 21.7657 53.311 21.7657 52.8125C21.7657 52.3141 21.8908 51.8237 22.1295 51.3862C22.3682 50.9487 22.713 50.5781 23.1321 50.3084C23.2573 50.2402 23.3544 50.1301 23.4063 49.9973C23.4582 49.8646 23.4616 49.7178 23.4158 49.5828C23.3614 49.4297 23.2588 49.2984 23.1233 49.2088C22.9878 49.1192 22.8268 49.0762 22.6646 49.0861C22.1542 49.1069 21.6466 48.9998 21.188 48.7747C20.7294 48.5496 20.3343 48.2136 20.0385 47.7971C19.7556 47.4037 19.5736 46.9469 19.5084 46.4667C19.4432 45.9866 19.4968 45.4978 19.6645 45.0432C19.7159 44.9133 19.7206 44.7696 19.6779 44.6367C19.6351 44.5037 19.5476 44.3897 19.4302 44.314C19.2921 44.2065 19.1223 44.1476 18.9472 44.1467C18.7722 44.1457 18.6018 44.2026 18.4624 44.3085C18.0559 44.6077 17.5835 44.8049 17.0849 44.8837C16.5864 44.9625 16.0762 44.9205 15.5972 44.7612C15.1331 44.6105 14.7118 44.351 14.3684 44.0044C14.025 43.6577 13.7694 43.234 13.623 42.7686C13.5063 42.4679 13.2169 42.2691 12.8942 42.2691C12.5715 42.2691 12.2813 42.4679 12.1654 42.7686C12.0189 43.2341 11.7633 43.6578 11.4198 44.0045C11.0763 44.3511 10.6549 44.6106 10.1907 44.7612C9.71179 44.9202 9.20174 44.9621 8.70331 44.8834C8.20487 44.8046 7.73259 44.6075 7.32606 44.3085C7.18665 44.2026 7.01613 44.1457 6.84103 44.1467C6.66592 44.1477 6.49606 44.2065 6.35786 44.314C6.24156 44.3903 6.15523 44.5044 6.11357 44.6371C6.07192 44.7697 6.07749 44.9127 6.12935 45.0418C6.29735 45.4965 6.35112 45.9856 6.28594 46.466C6.22076 46.9464 6.03862 47.4035 5.75552 47.7971C5.46107 48.2149 5.06625 48.552 4.60739 48.7772C4.14853 49.0025 3.64039 49.1087 3.12972 49.0861C2.96682 49.0722 2.80399 49.1137 2.66758 49.2038C2.53118 49.2939 2.42917 49.4275 2.37808 49.5828C2.33234 49.7178 2.33572 49.8646 2.38765 49.9973C2.43957 50.1301 2.5367 50.2402 2.66191 50.3084C3.08109 50.578 3.42587 50.9486 3.66464 51.3861C3.90341 51.8237 4.02853 52.3141 4.02853 52.8125C4.02853 53.311 3.90341 53.8014 3.66464 54.2389C3.42587 54.6765 3.08109 55.047 2.66191 55.3167C2.53672 55.3847 2.43959 55.4948 2.38766 55.6275C2.33573 55.7602 2.33234 55.9069 2.37808 56.0419C2.43539 56.1931 2.53882 56.3224 2.67373 56.4115C2.80863 56.5007 2.96816 56.5451 3.12972 56.5385C3.63963 56.5209 4.14601 56.6293 4.60401 56.8542C5.06201 57.079 5.45748 57.4134 5.75541 57.8276C6.03821 58.221 6.22019 58.6778 6.28541 59.1579C6.35062 59.638 6.29708 60.1268 6.12947 60.5814C6.07754 60.7107 6.07191 60.8539 6.11354 60.9868C6.15517 61.1197 6.24149 61.2342 6.35786 61.3107C6.49616 61.418 6.666 61.4767 6.84105 61.4777C7.0161 61.4787 7.18658 61.4219 7.32606 61.3161C7.868 60.9169 8.52387 60.7023 9.19695 60.7037Z" fill="#1C74E8"/>
<path d="M12.894 59.8407C9.01092 59.8407 5.86328 56.6931 5.86328 52.81C5.86328 48.9269 9.01092 45.7788 12.894 45.7788C16.7768 45.7788 19.9248 48.9268 19.9248 52.81C19.9207 56.6912 16.7749 59.837 12.894 59.8407ZM12.894 48.1225C10.3049 48.1225 8.20655 50.2213 8.20655 52.81C8.20655 55.3986 10.3049 57.497 12.894 57.497C15.4827 57.497 17.581 55.3985 17.581 52.8099C17.581 50.2212 15.4827 48.1225 12.894 48.1225ZM18.7529 75.0739C18.4421 75.0738 18.1442 74.9504 17.9244 74.7307L12.894 69.7003L7.86366 74.7307C7.69979 74.8946 7.491 75.0062 7.2637 75.0514C7.03639 75.0967 6.80078 75.0735 6.58666 74.9848C6.37253 74.8961 6.18952 74.7459 6.06076 74.5532C5.932 74.3605 5.86327 74.134 5.86328 73.9022V62.184H8.20655V71.0738L12.0655 67.2148C12.5228 66.7574 13.2648 66.7574 13.7225 67.2148L17.581 71.0738V62.184H19.9248V73.9021C19.9248 74.5493 19.4002 75.0739 18.7529 75.0739ZM33.9867 37.5761C25.5735 37.5761 18.7529 30.7559 18.7529 22.3427C18.7529 13.9295 25.5735 7.10938 33.9867 7.10938C42.3999 7.10938 49.2202 13.9296 49.2202 22.3427C49.2105 30.7518 42.3958 37.5664 33.9867 37.5761ZM33.9867 9.45264C26.8676 9.45264 21.0966 15.2236 21.0966 22.3427C21.0966 29.4618 26.8676 35.2323 33.9867 35.2323C41.1054 35.2323 46.8764 29.4618 46.8764 22.3427C46.8676 15.2277 41.1017 9.46131 33.9867 9.45264Z" fill="#1C74E8"/>
<path d="M45.7046 22.3427H43.3614C43.3549 17.1678 39.1614 12.9738 33.9868 12.9682V10.6245C40.455 10.6319 45.6973 15.8741 45.7046 22.3427ZM37.502 44.6069H30.4712C29.824 44.6069 29.2993 44.0823 29.2993 43.4354V35.2323H31.6431V42.2635H36.3302V35.2323H38.6739V43.4354C38.6739 44.0823 38.1493 44.6069 37.502 44.6069Z" fill="#1C74E8"/>
<path d="M28.1274 38.748H39.8458V41.0917H28.1274V38.748ZM32.8149 43.4354H35.1587V46.9506H32.8149V43.4354ZM29.2993 25.8584C27.3575 25.8584 25.7842 24.2845 25.7842 22.3428C25.7842 20.4014 27.3575 18.8271 29.2993 18.8271C31.2407 18.8271 32.8149 20.4014 32.8149 22.3428C32.8149 24.2845 31.2407 25.8584 29.2993 25.8584ZM29.2993 21.1709C28.6521 21.1709 28.1274 21.6955 28.1274 22.3428C28.1274 22.9901 28.6521 23.5146 29.2993 23.5146C29.9467 23.5146 30.4712 22.9901 30.4712 22.3428C30.4712 21.6955 29.9467 21.1709 29.2993 21.1709ZM38.6739 25.8584C36.7321 25.8584 35.1587 24.2845 35.1587 22.3428C35.1587 20.4014 36.732 18.8271 38.6739 18.8271C40.6152 18.8271 42.1895 20.4014 42.1895 22.3428C42.1895 24.2845 40.6152 25.8584 38.6739 25.8584ZM38.6739 21.1709C38.0266 21.1709 37.502 21.6955 37.502 22.3428C37.502 22.9901 38.0266 23.5146 38.6739 23.5146C39.3211 23.5146 39.8458 22.9901 39.8458 22.3428C39.8458 21.6955 39.3211 21.1709 38.6739 21.1709Z" fill="#1C74E8"/>
<path d="M38.6739 29.3735H29.2993C28.6521 29.3735 28.1274 28.849 28.1274 28.2017V24.6865H30.4712V27.0298H37.502V24.6865H39.8458V28.2017C39.8458 28.849 39.3211 29.3735 38.6739 29.3735Z" fill="#1C74E8"/>
<path d="M32.8149 28.2017H35.1586V36.4043H32.8149V28.2017ZM28.1274 50.4663H55.0791V52.8101H28.1274V50.4663ZM28.1274 55.1533H55.0791V57.4971H28.1274V55.1533ZM28.1274 59.8408H48.0484V62.1841H28.1274V59.8408ZM50.3921 59.8408H52.7358V62.1841H50.3921V59.8408ZM28.1274 64.5278H30.4712V66.8715H28.1274V64.5278ZM32.8149 64.5278H55.0791V66.8715H32.8149V64.5278Z" fill="#1C74E8"/>
</svg>
