<svg width="80" height="80" viewBox="0 0 80 80" fill="none" xmlns="http://www.w3.org/2000/svg">
<path d="M40.1969 62.3655C39.5938 62.3655 39.1031 61.878 39.1031 61.2718C39.1031 60.6702 39.5953 60.178 40.1969 60.178H48.9094C49.5156 60.178 50.0031 60.6702 50.0031 61.2718C50.0031 61.878 49.5156 62.3655 48.9094 62.3655H40.1969ZM26.0281 41.2608C25.4266 41.2608 24.9344 40.7687 24.9344 40.1671C24.9344 39.5608 25.4266 39.0733 26.0281 39.0733H31.4984C32.1016 39.0733 32.5875 39.5608 32.5875 40.1671C32.5875 40.7702 32.1 41.2608 31.4984 41.2608H26.0281ZM26.0281 45.389C25.4266 45.389 24.9344 44.8968 24.9344 44.2952C24.9344 43.6936 25.4266 43.2015 26.0281 43.2015H34.0672C34.6734 43.2015 35.1609 43.6936 35.1609 44.2952C35.1609 44.8968 34.6734 45.389 34.0672 45.389H26.0281ZM39.5328 21.4796C38.9266 21.4796 38.4391 20.9921 38.4391 20.3858C38.4391 19.7843 38.9266 19.2921 39.5328 19.2921H52.7938C53.3969 19.2921 53.8875 19.7843 53.8875 20.3858C53.8875 20.9921 53.3953 21.4796 52.7938 21.4796H39.5328ZM39.5328 25.7671C38.9266 25.7671 38.4391 25.2749 38.4391 24.6733C38.4391 24.0671 38.9266 23.5796 39.5328 23.5796H44.9719C45.575 23.5796 46.0656 24.0671 46.0656 24.6733C46.0656 25.2749 45.5734 25.7671 44.9719 25.7671H39.5328ZM36.0812 19.603V31.478C36.0812 33.489 34.4469 35.1233 32.4406 35.1233H22.2812V47.1843C22.3344 47.3218 22.3703 47.4718 22.3969 47.6233L22.5297 48.4608C22.5297 48.4655 22.5391 48.4655 22.5469 48.4655C23.65 48.5858 24.7484 48.8593 25.7797 49.2577C25.9391 49.3202 26.3734 47.9108 27.7687 47.6983C28.3266 47.614 28.9203 47.739 29.4156 48.1015L31.1297 49.3593C32.1125 50.0812 32.3344 51.4671 31.6031 52.4593L31.1031 53.1499C31.1031 53.1546 31.1078 53.1624 31.1156 53.1718C31.8016 54.0265 32.4 55.0062 32.8438 56.0202C32.9062 56.1624 34.2125 55.4843 35.3469 56.3171C35.8078 56.653 36.1391 57.1671 36.2328 57.7749L36.5563 59.8749C36.7422 61.0796 35.9047 62.2187 34.6922 62.4046L33.8547 62.5374L33.5484 64.2515H56.5703C57.7266 64.2515 58.6781 63.303 58.6781 62.1483V59.3671C52.8719 60.5983 46.7453 58.739 42.6094 54.2374C39.4375 50.778 37.9625 46.3624 38.15 42.0171C38.3359 37.6671 40.1781 33.389 43.6328 30.2171C47.0922 27.0421 51.5078 25.5702 55.8531 25.7577C56.8016 25.7983 57.7484 25.9171 58.6797 26.1124V18.8218C58.6797 17.6655 57.7281 16.7187 56.5719 16.7187H36.0812V19.603ZM21.6609 32.9343H32.4422C33.2391 32.9343 33.8953 32.278 33.8953 31.4765V20.6952H31.6812C30.8531 23.6546 27.1141 24.6687 24.9141 22.4671C24.422 21.9754 24.0652 21.3651 23.8781 20.6952H21.6641V23.8577C21.6641 24.4593 21.1719 24.9515 20.5703 24.9515C18.9141 24.9515 18.0812 26.9624 19.25 28.1312C19.5859 28.4671 20.0562 28.6765 20.5703 28.6765C21.1734 28.6765 21.6641 29.1687 21.6641 29.7702V32.9343H21.6609ZM8.69219 32.9343H19.4734V30.7202C16.5141 29.8921 15.5047 26.1499 17.7016 23.953C18.1844 23.4702 18.7953 23.1077 19.4734 22.9171V20.6983H16.3109C15.7094 20.6983 15.2172 20.2108 15.2172 19.6046C15.2172 17.953 13.2063 17.1202 12.0375 18.289C11.8645 18.4616 11.7272 18.6666 11.6337 18.8924C11.5401 19.1182 11.492 19.3602 11.4922 19.6046C11.4922 20.2108 11 20.6983 10.3984 20.6983H7.23438V31.4796C7.23438 32.278 7.89063 32.9343 8.69219 32.9343ZM20.0922 35.1218H8.69219C6.68594 35.1218 5.04688 33.4874 5.04688 31.4765V7.73272C5.04688 5.72178 6.68594 4.0874 8.69219 4.0874H32.4406C34.4469 4.0874 36.0812 5.72178 36.0812 7.73272V14.5265H56.5703C58.9359 14.5265 60.8672 16.4577 60.8672 18.8187V26.7296C63.3828 27.628 65.7219 29.1343 67.6531 31.239C70.8281 34.6983 72.3 39.114 72.1172 43.4593C71.9359 47.6937 70.1813 51.8577 66.9047 55.0015L67.2641 55.5202C68.075 55.4499 68.8891 55.8077 69.3719 56.4983L74.6109 64.0405C75.3328 65.0812 75.0719 66.5343 74.0312 67.2608L71.5156 69.0062C70.475 69.728 69.0219 69.4671 68.2953 68.4265L63.0594 60.8843C62.5766 60.189 62.5281 59.303 62.8734 58.5671L62.5141 58.053C61.9734 58.314 61.425 58.5452 60.8672 58.7437V62.1452C60.8672 64.5062 58.9359 66.4374 56.5703 66.4374H33.8797C34.7437 67.1905 34.8984 68.4843 34.2125 69.4233L32.9547 71.1374C32.2328 72.1249 30.8469 72.3421 29.8547 71.6155L29.1641 71.1155C29.1594 71.1155 29.1547 71.1202 29.1469 71.1249C28.2748 71.8218 27.3157 72.4022 26.2937 72.8515C26.1562 72.914 26.8297 74.2202 25.9969 75.3577C25.6609 75.814 25.1516 76.1468 24.5438 76.239L22.4437 76.5624C21.2391 76.7483 20.1 75.9108 19.9141 74.7015C19.8969 74.6046 19.8172 73.864 19.7594 73.8561C18.5547 73.7015 17.6687 73.5108 16.5266 73.064C16.3672 73.0015 15.9375 74.4108 14.5375 74.628C13.9797 74.7124 13.3859 74.5843 12.8906 74.2202L11.2203 72.9937H11.2156C10.25 72.3515 9.95312 70.9296 10.6703 69.9015L11.2016 69.1702C11.2016 69.1702 11.1969 69.1608 11.1875 69.153C10.4926 68.2812 9.9124 67.3239 9.46094 66.3046C9.39844 66.1624 8.09219 66.8405 6.95781 66.0077C6.49687 65.6671 6.16563 65.1577 6.07188 64.5499L5.74844 62.4499C5.56719 61.2452 6.40469 60.1062 7.6125 59.9202L8.45 59.7874C8.45 59.7827 8.45469 59.778 8.45469 59.7702C8.575 58.6671 8.84375 57.564 9.24688 56.5374L9.23281 56.489L8.60781 56.028V56.0327C7.6375 55.3858 7.34062 53.9687 8.0625 52.9405L8.05781 52.9358C8.08438 52.9046 8.10625 52.8687 8.13281 52.839L9.34688 51.1874C10.0687 50.1999 11.4547 49.9827 12.4469 50.7093L13.1375 51.2093C13.1422 51.2093 13.1469 51.2046 13.1547 51.1968C14.0094 50.514 14.9969 49.9124 16.0078 49.4687C16.15 49.4062 15.4719 48.1046 16.3047 46.9655C16.6406 46.5046 17.1547 46.1765 17.7578 46.0843L20.0875 45.7343V35.1218H20.0922ZM32.4406 6.2749H21.6594V8.48897C24.6187 9.31709 25.6281 13.0562 23.4266 15.2562C22.9359 15.7471 22.3274 16.1038 21.6594 16.2921V18.5108H24.8172C25.4234 18.5108 25.9109 18.9983 25.9109 19.5999C25.9109 21.2562 27.9219 22.089 29.0906 20.9202C29.4312 20.5843 29.6406 20.1187 29.6406 19.5999C29.6406 18.9968 30.1281 18.5108 30.7344 18.5108H33.8922V7.72959C33.8937 6.93115 33.2375 6.2749 32.4406 6.2749ZM19.4719 6.2749H8.69062C7.88906 6.2749 7.23281 6.93115 7.23281 7.73272V18.514H9.45156C10.2797 15.5515 14.0187 14.5405 16.2156 16.7421C16.7031 17.2249 17.0656 17.8312 17.2516 18.514H19.4703V15.3499C19.4703 14.7483 19.9578 14.2562 20.5641 14.2562C22.2203 14.2562 23.0531 12.2452 21.8797 11.0765C21.7071 10.9034 21.502 10.7662 21.2762 10.6726C21.0505 10.5791 20.8085 10.531 20.5641 10.5312C19.9578 10.5312 19.4703 10.039 19.4703 9.4374V6.2749H19.4719ZM48.2797 35.2015C48.2531 35.228 48.2266 35.2499 48.2 35.2718C46.1531 37.1718 45.0641 39.714 44.9531 42.2968C44.8422 44.8874 45.7156 47.5233 47.5969 49.5921V49.5874C47.6234 49.614 47.65 49.6405 47.6719 49.6718C49.5672 51.714 52.1094 52.803 54.6922 52.914C60.3078 53.153 65.0703 48.7858 65.3094 43.1749C65.5484 37.564 61.1859 32.7968 55.5703 32.5577C52.9781 32.4468 50.3438 33.3202 48.2797 35.2015ZM46.7344 33.6562L46.7656 33.6249C49.2812 31.3171 52.4969 30.2452 55.6594 30.378C58.8219 30.5155 61.9359 31.853 64.2438 34.3687C66.5563 36.8843 67.6281 40.0999 67.4906 43.2577C67.3578 46.4249 66.0156 49.539 63.5 51.8452C60.9844 54.1577 57.7734 55.2249 54.6109 55.0921C51.4656 54.9593 48.3797 53.6343 46.0766 51.1546L46.0547 51.1374V51.1327L46.0234 51.1015C43.7156 48.5858 42.6437 45.3702 42.7766 42.2124C42.9141 39.0671 44.2344 35.9765 46.7141 33.6733L46.7344 33.6562ZM64.4953 57.0686L65.2969 56.5155L64.5609 55.4608C64.2281 54.978 64.3313 54.3265 64.7875 53.9733L65.15 53.6499C68.1656 50.8811 69.7734 47.1562 69.9375 43.3749C70.0969 39.5843 68.8125 35.7296 66.0484 32.7187C60.5609 26.7437 51.175 26.2562 45.1125 31.8233C42.0969 34.5921 40.4891 38.3171 40.3297 42.0983C40.1656 45.889 41.45 49.7437 44.2188 52.7546C46.5625 55.3062 49.5875 56.8515 52.7531 57.3608C56.0391 57.8921 59.4281 57.3077 62.3375 55.6874C62.8297 55.4124 63.4453 55.564 63.7641 56.0202V56.0155L64.4953 57.0686ZM67.4 57.7108L64.8844 59.4608C64.8219 59.5015 64.8141 59.5765 64.8531 59.6343L70.0922 67.1765C70.1328 67.239 70.2078 67.2515 70.2656 67.2124L72.7812 65.4671C72.8438 65.4233 72.8563 65.3468 72.8125 65.2905L67.5734 57.7483C67.5328 57.6843 67.4578 57.6702 67.4 57.7108ZM20.2562 54.9687C20.2344 54.9733 20.2125 54.978 20.1859 54.978C18.567 55.2358 17.1153 56.1225 16.1469 57.4452C12.9797 61.764 16.3953 68.0796 22.1484 67.2827C23.8359 67.0124 25.2578 66.0905 26.1922 64.8155C28.225 62.0468 27.6266 58.1405 24.8547 56.1077C23.5315 55.1376 21.8792 54.7284 20.2562 54.9687ZM19.8984 52.8124C24.5094 52.103 28.8312 55.328 29.4875 59.8593C29.8375 62.1499 29.2266 64.3687 27.95 66.1046C25.2047 69.8515 19.9469 70.6671 16.1953 67.9155C12.4484 65.1655 11.6328 59.9077 14.3844 56.1562C15.6281 54.4593 17.6484 53.1171 19.8984 52.8124ZM20.1547 47.9265L18.0687 48.2546C17.9891 48.3702 18.5031 49.4858 17.9453 50.5046C17.7156 50.9202 17.3516 51.2624 16.8875 51.4702C16.0234 51.8468 15.2625 52.3124 14.5312 52.8968C14.1514 53.2047 13.68 53.3779 13.1911 53.3892C12.7022 53.4005 12.2234 53.2493 11.8297 52.9593C11.7625 52.9108 11.1656 52.4327 11.1203 52.4718L9.88437 54.1499C9.875 54.1624 9.82656 54.2171 9.8625 54.239C10.5312 54.7343 11.0984 55.0358 11.35 55.8999C11.4828 56.3562 11.4656 56.8515 11.2828 57.3218C10.9476 58.1824 10.727 59.0833 10.6266 60.0015C10.5156 61.0062 9.75781 61.8046 8.75313 61.9593L7.92031 62.0968L8.24844 64.2452C8.36406 64.3296 9.47969 63.8108 10.4984 64.3733C10.9141 64.5999 11.2562 64.9671 11.4594 65.4312C11.8406 66.2905 12.3016 67.0515 12.8906 67.7827C13.5234 68.5718 13.5469 69.6733 12.9531 70.4843L12.4922 71.1124C12.4797 71.1265 12.4344 71.1749 12.4703 71.2015L14.2156 72.464L14.725 71.7858C15.3187 70.9749 16.3766 70.6655 17.3156 71.028C18.1797 71.364 19.0656 71.5858 19.9906 71.6843C20.9953 71.7952 21.7984 72.5562 21.9484 73.5577L22.0906 74.3952L24.2391 74.0624C24.3234 73.9515 23.8047 72.8358 24.3625 71.8124C24.5922 71.3968 24.9562 71.0546 25.425 70.8515C26.2844 70.4749 27.0453 70.0093 27.7766 69.4202C28.5656 68.7905 29.6641 68.764 30.4781 69.3624L31.1734 69.8546L32.4531 68.1311C32.5547 67.989 31.3016 67.6046 30.9562 66.4218C30.8062 65.8983 30.8547 65.3811 31.0719 64.8718C31.3547 64.203 31.5984 63.0608 31.6781 62.3202C31.7891 61.3155 32.5469 60.5171 33.5516 60.3624L34.3891 60.2249L34.0563 58.0765C33.9406 57.9921 32.8297 58.5108 31.8062 57.9483C31.3906 57.7187 31.0484 57.3546 30.8453 56.8905C30.4641 56.0265 30.0031 55.2702 29.4141 54.5343C29.1072 54.1537 28.935 53.6821 28.9246 53.1934C28.9141 52.7046 29.0659 52.2261 29.3563 51.8327L29.8484 51.1374L28.1203 49.8624C27.9828 49.7608 27.5984 51.0093 26.4109 51.3546C25.9547 51.4874 25.4594 51.4749 24.9891 51.289C24.1297 50.9562 23.2391 50.7358 22.3141 50.6327C21.3047 50.5265 20.5109 49.764 20.3562 48.764L20.2187 47.9265H20.1547Z" fill="#1C74E8"/>
</svg>
