<svg width="80" height="80" viewBox="0 0 80 80" fill="none" xmlns="http://www.w3.org/2000/svg">
<g clip-path="url(#clip0_971_1097)">
<path d="M70.0005 14.5312C70.8635 14.5312 71.563 13.8317 71.563 12.9688V4.6875C71.563 2.10281 69.4602 0 66.8755 0H4.68799C2.1033 0 0.000488281 2.10281 0.000488281 4.6875V75.3125C0.000488281 77.8972 2.1033 80 4.68799 80H66.8755C69.4602 80 71.563 77.8972 71.563 75.3125V70.9375C71.563 70.0745 70.8635 69.375 70.0005 69.375C69.1375 69.375 68.438 70.0745 68.438 70.9375V75.3125C68.438 76.1741 67.7371 76.875 66.8755 76.875H4.68799C3.82643 76.875 3.12549 76.1741 3.12549 75.3125V4.6875C3.12549 3.82594 3.82643 3.125 4.68799 3.125H66.8755C67.7371 3.125 68.438 3.82594 68.438 4.6875V12.9688C68.438 13.8317 69.1375 14.5312 70.0005 14.5312Z" fill="#1C74E8"/>
<path d="M62.5015 7.5H9.06215C8.19918 7.5 7.49965 8.19953 7.49965 9.0625V41.7188C7.49965 42.5817 8.19918 43.2812 9.06215 43.2812C9.92512 43.2812 10.6246 42.5817 10.6246 41.7188V10.625H60.939V13.125C60.939 13.988 61.6387 14.6875 62.5015 14.6875C63.3645 14.6875 64.064 13.988 64.064 13.125V9.0625C64.064 8.19953 63.3645 7.5 62.5015 7.5ZM10.1662 46.3953C9.87269 46.1031 9.47569 45.9386 9.06152 45.9375C8.65059 45.9375 8.24746 46.1047 7.95684 46.3953C7.66621 46.6859 7.49902 47.0891 7.49902 47.5C7.49902 47.9109 7.66621 48.3141 7.95684 48.6047C8.24746 48.8953 8.65059 49.0625 9.06152 49.0625C9.47402 49.0625 9.87559 48.8953 10.1662 48.6047C10.4584 48.3141 10.624 47.9109 10.624 47.5C10.624 47.0891 10.4584 46.6859 10.1662 46.3953ZM62.5015 65.9375C61.6386 65.9375 60.939 66.637 60.939 67.5V69.375H10.6246V53.5156C10.6246 52.6527 9.92512 51.9531 9.06215 51.9531C8.19918 51.9531 7.49965 52.6527 7.49965 53.5156V70.9375C7.49965 71.8005 8.19918 72.5 9.06215 72.5H62.5015C63.3645 72.5 64.064 71.8005 64.064 70.9375V67.5C64.064 66.637 63.3645 65.9375 62.5015 65.9375Z" fill="#1C74E8"/>
<path d="M48.4228 55.2087C47.8127 54.5984 46.8235 54.5984 46.2131 55.2086L43.125 58.2969L41.2055 56.3772C39.9935 55.1653 38.0217 55.1653 36.8097 56.3772L35.5606 57.6262C34.9505 58.2364 34.9505 59.2258 35.5606 59.8361C36.1708 60.4462 37.1602 60.4462 37.7705 59.8361L39.0077 58.5989L40.9272 60.5186C41.5331 61.1245 42.3291 61.4275 43.125 61.4275C43.921 61.4275 44.7169 61.1245 45.3228 60.5186L48.4228 57.4186C49.033 56.8084 49.033 55.819 48.4228 55.2087Z" fill="#1C74E8"/>
<path d="M79.2813 32.7782C79.6221 32.2455 79.8482 31.6476 79.9453 31.0227C80.0424 30.3977 80.0083 29.7594 79.8452 29.1484C79.6809 28.5377 79.3913 27.9678 78.9948 27.4752C78.5982 26.9826 78.1034 26.5779 77.5419 26.287C77.3007 26.1618 77.1004 25.9703 76.9646 25.735C76.8287 25.4997 76.763 25.2304 76.7752 24.959C76.804 24.3272 76.7009 23.6964 76.4725 23.1067C76.2441 22.5169 75.8955 21.9812 75.4488 21.5335C75.0013 21.0866 74.4655 20.7378 73.8758 20.5095C73.286 20.2811 72.6551 20.1781 72.0233 20.2071C71.7518 20.2198 71.4823 20.1544 71.2469 20.0185C71.0115 19.8825 70.8201 19.6819 70.6953 19.4404C70.4044 18.8789 69.9997 18.3841 69.5071 17.9876C69.0144 17.591 68.4446 17.3014 67.8339 17.1371C67.2229 16.9739 66.5846 16.9398 65.9597 17.0369C65.3348 17.134 64.7369 17.3602 64.2042 17.701C63.9753 17.8473 63.7093 17.925 63.4376 17.925C63.1659 17.925 62.8999 17.8473 62.671 17.701C62.1383 17.3602 61.5404 17.134 60.9155 17.0369C60.2906 16.9398 59.6523 16.974 59.0413 17.1371C58.4306 17.3014 57.8608 17.591 57.3681 17.9876C56.8755 18.3841 56.4708 18.8789 56.1799 19.4404C56.0544 19.6814 55.8629 19.8815 55.6276 20.0173C55.3924 20.1531 55.1233 20.219 54.8519 20.2071C54.2201 20.1782 53.5893 20.2812 52.9996 20.5096C52.4098 20.738 51.8741 21.0867 51.4266 21.5335C50.9798 21.9811 50.6311 22.5168 50.4027 23.1066C50.1744 23.6963 50.0713 24.3271 50.1 24.9588C50.1122 25.2303 50.0465 25.4996 49.9106 25.7349C49.7748 25.9702 49.5745 26.1618 49.3333 26.287C48.7718 26.5779 48.277 26.9826 47.8804 27.4752C47.4839 27.9679 47.1943 28.5377 47.03 29.1484C46.8745 29.7314 46.8367 30.3395 46.9189 30.9373H19.6533C18.7903 30.9373 18.0908 31.6368 18.0908 32.4998C18.0908 33.3628 18.7903 34.0623 19.6533 34.0623H47.7172C47.6844 34.1493 47.6431 34.2328 47.5938 34.3117C47.253 34.8444 47.0268 35.4423 46.9297 36.0672C46.8326 36.6922 46.8667 37.3305 47.0299 37.9415C47.0752 38.1107 47.131 38.276 47.195 38.4373H19.6528C18.7899 38.4373 18.0903 39.1368 18.0903 39.9998C18.0903 40.8628 18.7899 41.5623 19.6528 41.5623H50.0067C50.0764 41.7434 50.108 41.937 50.0995 42.1309C50.0708 42.7627 50.1739 43.3935 50.4022 43.9833C50.6306 44.573 50.9793 45.1087 51.4261 45.5563C51.8736 46.0033 52.4092 46.3521 52.999 46.5805C53.5888 46.8088 54.2197 46.9118 54.8514 46.8828C55.4035 46.8557 55.9253 47.1579 56.1794 47.6495C56.3659 48.0095 56.5998 48.3429 56.8749 48.6407V63.2334C56.8749 63.5421 56.9663 63.8438 57.1376 64.1006C57.309 64.3574 57.5525 64.5577 57.8376 64.6762C58.1226 64.7947 58.4364 64.8261 58.7393 64.7664C59.0421 64.7068 59.3206 64.5588 59.5394 64.341L63.4374 60.4634L67.3353 64.341C67.5542 64.5588 67.8326 64.7068 68.1355 64.7665C68.4384 64.8261 68.7522 64.7946 69.0372 64.676C69.3222 64.5575 69.5658 64.3573 69.7371 64.1005C69.9084 63.8437 69.9999 63.5419 69.9999 63.2332V48.6406C70.275 48.3428 70.5089 48.0094 70.6953 47.6493C70.8207 47.4083 71.0122 47.2081 71.2475 47.0723C71.4827 46.9364 71.7519 46.8706 72.0233 46.8826C72.6551 46.9118 73.286 46.8089 73.8758 46.5805C74.4656 46.3521 75.0013 46.0033 75.4486 45.5562C75.8954 45.1086 76.2441 44.5729 76.4725 43.9831C76.7009 43.3933 76.804 42.7625 76.7752 42.1307C76.763 41.8593 76.8287 41.59 76.9646 41.3548C77.1004 41.1195 77.3007 40.9279 77.5419 40.8028C78.1034 40.5118 78.5982 40.1071 78.9948 39.6145C79.3913 39.1219 79.6809 38.5521 79.8452 37.9413C80.0083 37.3303 80.0424 36.6919 79.9453 36.067C79.8482 35.442 79.6221 34.8441 79.2813 34.3113C79.135 34.0824 79.0572 33.8164 79.0572 33.5448C79.0572 33.2731 79.135 33.0071 79.2813 32.7782ZM66.8749 59.4751L64.5392 57.1517C63.9297 56.5452 62.9449 56.5452 62.3353 57.1517L59.9999 59.4751V50.1013C60.9425 50.1461 61.8757 49.8972 62.6708 49.3888C62.8997 49.2426 63.1658 49.1648 63.4374 49.1648C63.7091 49.1648 63.9751 49.2426 64.2041 49.3888C64.9373 49.8581 65.7898 50.1074 66.6603 50.1071C66.7319 50.1071 66.8033 50.1035 66.8749 50.1001V59.4751ZM76.8266 37.1328C76.7763 37.3241 76.6862 37.5026 76.5622 37.6567C76.4381 37.8108 76.2829 37.937 76.1067 38.027C74.5342 38.8399 73.5711 40.5078 73.6535 42.2762C73.6636 42.4738 73.632 42.6713 73.5606 42.8558C73.4891 43.0403 73.3795 43.2076 73.2389 43.3468C73.0997 43.4873 72.9324 43.5969 72.7479 43.6683C72.5635 43.7397 72.366 43.7714 72.1685 43.7613C70.3991 43.6795 68.7322 44.642 67.9192 46.2146C67.8293 46.3908 67.7031 46.5461 67.549 46.6701C67.3948 46.7942 67.2162 46.8843 67.0249 46.9345C66.6342 47.039 66.2311 46.9767 65.8906 46.7582C65.1583 46.2895 64.3067 46.0408 63.4372 46.0417C62.5677 46.0409 61.7163 46.2896 60.9839 46.7582C60.8179 46.8657 60.631 46.937 60.4356 46.9674C60.2401 46.9978 60.0404 46.9865 59.8495 46.9345C59.6582 46.8842 59.4796 46.7941 59.3255 46.6701C59.1714 46.546 59.0452 46.3908 58.9552 46.2146C58.1422 44.6421 56.4756 43.6787 54.706 43.7613C54.5084 43.7714 54.311 43.7397 54.1265 43.6682C53.9421 43.5968 53.7747 43.4873 53.6355 43.3468C53.4949 43.2076 53.3852 43.0403 53.3138 42.8557C53.2424 42.6712 53.2107 42.4736 53.221 42.276C53.2789 41.0279 52.8144 39.8313 51.9842 38.9487C51.96 38.9218 51.9348 38.8958 51.9088 38.8707C51.5752 38.5311 51.1901 38.2464 50.7677 38.027C50.4083 37.8412 50.1527 37.5237 50.048 37.1328C49.9433 36.7418 50.0058 36.3388 50.2242 35.9984C51.1797 34.5081 51.1797 32.5821 50.2242 31.0918C50.1167 30.9258 50.0454 30.7389 50.015 30.5434C49.9846 30.3479 49.9959 30.1481 50.048 29.9573C50.0983 29.7659 50.1884 29.5874 50.3124 29.4333C50.4365 29.2792 50.5916 29.153 50.7678 29.0631C52.3403 28.2501 53.3033 26.5823 53.2211 24.8138C53.2109 24.6163 53.2426 24.4188 53.314 24.2343C53.3855 24.0498 53.4951 23.8824 53.6356 23.7432C53.7749 23.6027 53.9422 23.4932 54.1266 23.4217C54.3111 23.3503 54.5086 23.3186 54.7061 23.3287C56.4756 23.4107 58.1425 22.4481 58.9553 20.8754C59.0453 20.6992 59.1715 20.544 59.3256 20.4199C59.4797 20.2959 59.6583 20.2058 59.8497 20.1556C60.0405 20.1034 60.2402 20.0922 60.4356 20.1226C60.6311 20.1529 60.8179 20.2242 60.9839 20.3318C62.4744 21.2874 64.4005 21.2874 65.8905 20.3318C66.0565 20.2242 66.2434 20.1529 66.4388 20.1225C66.6343 20.0921 66.834 20.1034 67.0249 20.1556C67.2162 20.2058 67.3948 20.2959 67.5489 20.42C67.703 20.544 67.8292 20.6992 67.9192 20.8754C68.7322 22.4479 70.3999 23.4112 72.1685 23.3287C72.366 23.3185 72.5635 23.3502 72.748 23.4217C72.9324 23.4931 73.0997 23.6027 73.2389 23.7432C73.3795 23.8824 73.4892 24.0497 73.5606 24.2342C73.632 24.4187 73.6637 24.6163 73.6535 24.8138C73.5713 26.5821 74.5341 28.2501 76.1069 29.0631C76.2831 29.153 76.4383 29.2792 76.5623 29.4333C76.6863 29.5874 76.7764 29.7659 76.8266 29.9573C76.8787 30.1481 76.89 30.3478 76.8596 30.5433C76.8293 30.7388 76.7579 30.9256 76.6503 31.0917C75.6949 32.582 75.6949 34.5079 76.6503 35.9982C76.758 36.1642 76.8293 36.3511 76.8597 36.5467C76.8901 36.7422 76.8788 36.9419 76.8266 37.1328Z" fill="#1C74E8"/>
<path d="M70.868 29.2947C70.2578 28.6845 69.2685 28.6845 68.6583 29.2947L63.4722 34.4809L61.4077 32.4164C60.7975 31.8062 59.8081 31.8062 59.1978 32.4164C58.5877 33.0266 58.5877 34.0159 59.1978 34.6263L62.3672 37.7956C62.6724 38.1008 63.0722 38.2533 63.472 38.2533C63.8719 38.2533 64.2719 38.1008 64.5769 37.7956L70.868 31.5045C71.4781 30.8944 71.4781 29.905 70.868 29.2947ZM19.0739 18.8953C18.7802 18.6034 18.3833 18.4389 17.9692 18.4375C17.5583 18.4375 17.1552 18.6047 16.8646 18.8953C16.5739 19.1859 16.4067 19.5891 16.4067 20C16.4067 20.4109 16.5739 20.8141 16.8646 21.1047C17.1552 21.3953 17.5583 21.5625 17.9692 21.5625C18.3802 21.5625 18.7833 21.3953 19.0739 21.1047C19.3646 20.8141 19.5317 20.4109 19.5317 20C19.5317 19.5891 19.3646 19.1859 19.0739 18.8953ZM31.4056 18.4375H23.8014C22.9385 18.4375 22.2389 19.137 22.2389 20C22.2389 20.863 22.9385 21.5625 23.8014 21.5625H31.4056C32.2686 21.5625 32.9681 20.863 32.9681 20C32.9681 19.137 32.2686 18.4375 31.4056 18.4375ZM47.3183 45.9375H29.4555C28.5925 45.9375 27.893 46.637 27.893 47.5C27.893 48.363 28.5925 49.0625 29.4555 49.0625H47.3181C48.1811 49.0625 48.8806 48.363 48.8806 47.5C48.8806 46.637 48.1813 45.9375 47.3183 45.9375Z" fill="#1C74E8"/>
</g>
<defs>
<clipPath id="clip0_971_1097">
<rect width="80" height="80" fill="white"/>
</clipPath>
</defs>
</svg>
