<svg width="80" height="80" viewBox="0 0 80 80" fill="none" xmlns="http://www.w3.org/2000/svg">
<g clip-path="url(#clip0_971_421)">
<path d="M49.9435 61.9787C49.9435 61.9787 49.1916 64.5228 46.6127 63.8911C44.0339 63.2594 37.9263 61.7886 37.9263 61.7886" stroke="#1C74E8" stroke-width="2.5" stroke-miterlimit="10" stroke-linecap="round" stroke-linejoin="round"/>
<path d="M49.9436 61.9786C49.9436 61.9786 49.1917 64.5227 46.6128 63.891C44.034 63.2593 37.9263 61.7885 37.9263 61.7885M30.0567 18.0215C30.0567 18.0215 30.8086 15.4774 33.3875 16.1091C35.9664 16.7408 42.074 18.2116 42.074 18.2116M24.0549 74.3801L16.81 58.5837C16.3575 57.5973 15.1911 57.1643 14.2047 57.6168L10.5945 59.2725C9.56649 59.7441 9.11539 60.9595 9.5868 61.9875L16.7628 77.6336C17.2344 78.6616 18.4499 79.1127 19.4778 78.6413L23.0879 76.9855C24.0744 76.533 24.5073 75.3666 24.0549 74.3801Z" stroke="#1C74E8" stroke-width="2.5" stroke-miterlimit="10" stroke-linecap="round" stroke-linejoin="round"/>
<path d="M30.0566 18.0214C30.0566 18.0214 30.8085 15.4774 33.3874 16.1091C35.9663 16.7408 42.0738 18.2116 42.0738 18.2116" stroke="#1C74E8" stroke-width="2.5" stroke-miterlimit="10" stroke-linecap="round" stroke-linejoin="round"/>
<path d="M9.73703 20.8736C11.2686 24.0721 14.794 22.5602 15.0899 22.4494L30.0566 18.0216C30.0566 18.0216 29.0321 21.0318 32.1348 22.2702C40.7337 25.7029 41.7592 26.2835 43.9353 26.3181L43.9356 26.3184C50.6631 26.2959 51.8818 26.241 55.225 24.7446C56.9671 23.9641 58.6302 23.0181 60.1914 21.9196C60.9961 21.3531 61.8739 20.8982 62.8007 20.5672L56.7756 7.42992L52.7548 8.9565C49.6426 9.97088 46.3799 10.0735 43.7667 9.03072L38.2175 6.81538C37.0045 6.39725 34.2181 5.74647 31.3265 7.22836C31.3256 7.22873 31.3248 7.22909 31.324 7.22945L11.9513 15.7988C11.365 16.0995 8.41562 17.8691 9.73703 20.8736Z" stroke="#1C74E8" stroke-width="2.5" stroke-miterlimit="10" stroke-linecap="round" stroke-linejoin="round"/>
<path d="M43.8915 35.0583C43.8915 35.0583 42.327 33.4336 40.221 33.4336C38.1149 33.4336 36.5805 34.968 36.5805 36.5476C36.5805 38.1271 38.5662 39.3907 41.0784 40.0526C43.5906 40.7145 44.1222 42.0132 44.1222 43.3972C44.1222 44.7811 42.8987 46.5662 40.0304 46.5662C37.1621 46.5662 35.8785 44.4803 35.8785 44.4803M40.0004 30.9964V32.7616M40.0004 47.2386V49.0036M60.4775 67.5505C63.0013 66.4341 65.5251 65.3177 68.049 64.2014C68.6355 63.9006 71.5849 62.1311 70.2633 59.1265C68.7318 55.9281 65.2064 57.4399 64.9105 57.5507L49.9438 61.9786C49.9438 61.9786 50.9683 58.9684 47.8656 57.7299C39.2666 54.2973 38.2412 53.7166 36.065 53.6821L36.0647 53.6818C29.3373 53.7043 28.1187 53.7591 24.7754 55.2555C23.0333 56.0361 21.3702 56.9821 19.809 58.0806C19.0043 58.6471 18.1265 59.102 17.1997 59.4329L23.2249 72.5699L27.2457 71.0434C30.358 70.029 33.6206 69.9263 36.2338 70.9691L41.7831 73.1845C42.9961 73.6026 45.7825 74.2534 48.6741 72.7715L48.6766 72.7704L55.4721 69.7644M55.9456 5.61991L63.1905 21.4163C63.643 22.4027 64.8094 22.8357 65.7958 22.3832L69.4058 20.7274C70.4338 20.2558 70.8849 19.0403 70.4135 18.0124L63.2377 2.36644C62.7661 1.33846 61.5506 0.887359 60.5226 1.35877L56.9126 3.01457C55.926 3.46707 55.4932 4.63349 55.9456 5.61991Z" stroke="#1C74E8" stroke-width="2.5" stroke-miterlimit="10" stroke-linecap="round" stroke-linejoin="round"/>
<path d="M55.439 37.2264C54.5981 32.5151 51.654 28.5326 47.6119 26.2845C46.5933 26.3068 45.3944 26.3132 43.9358 26.318L43.9355 26.3179C42.3531 26.2927 41.3783 25.9787 37.6593 24.4897C30.1075 25.6199 24.3159 32.1334 24.3159 40.0001C24.3159 45.9 27.5741 51.038 32.3887 53.7157C33.4073 53.6933 34.6062 53.6869 36.0648 53.6821L36.0649 53.6822C37.6473 53.7074 38.6222 54.0214 42.3411 55.5104C49.0104 54.5122 54.3037 49.3145 55.4506 42.6952" stroke="#1C74E8" stroke-width="2.5" stroke-miterlimit="10" stroke-linecap="round" stroke-linejoin="round"/>
</g>
<defs>
<clipPath id="clip0_971_421">
<rect width="80" height="80" fill="white"/>
</clipPath>
</defs>
</svg>
