<svg width="112" height="38" viewBox="0 0 112 38" fill="none" xmlns="http://www.w3.org/2000/svg">
<path d="M112 0V23.339H106.586L97.9512 11.0769H97.8112V23.339H91.3235V0H96.831L105.326 12.2165H105.512V0H112Z" fill="#24BB7D"/>
<path d="M71.379 23.339H64.3779L72.2658 0H81.1339L89.0218 23.339H82.0207L76.7932 6.42735H76.6065L71.379 23.339ZM70.0722 14.1311H83.2342V18.8718H70.0722V14.1311Z" fill="#24BB7D"/>
<path d="M44.7312 23.339V0H61.9539V5.10541H51.2189V9.11681H61.0671V14.2222H51.2189V18.2336H61.9072V23.339H44.7312Z" fill="#24BB7D"/>
<path d="M24.7867 23.339H17.7856L25.6735 0H34.5416L42.4295 23.339H35.4284L30.2009 6.42735H30.0142L24.7867 23.339ZM23.4799 14.1311H36.6419V18.8718H23.4799V14.1311Z" fill="#24BB7D"/>
<path d="M0 23.339V0H10.3149C12.0886 0 13.6405 0.34188 14.9707 1.02564C16.3009 1.7094 17.3355 2.67046 18.0745 3.90883C18.8135 5.1472 19.183 6.59449 19.183 8.25071C19.183 9.92212 18.8018 11.3694 18.0395 12.5926C17.2849 13.8158 16.2231 14.7578 14.854 15.4188C13.4927 16.0798 11.9019 16.4102 10.0816 16.4102H3.92061V11.4872H8.7747C9.53705 11.4872 10.1866 11.358 10.7233 11.0997C11.2679 10.8338 11.684 10.4577 11.9719 9.97151C12.2675 9.48528 12.4153 8.91168 12.4153 8.25071C12.4153 7.58214 12.2675 7.01234 11.9719 6.54131C11.684 6.06268 11.2679 5.698 10.7233 5.44729C10.1866 5.18898 9.53705 5.05983 8.7747 5.05983H6.48768V23.339H0Z" fill="#24BB7D"/>
<path d="M102.998 29.1282H105.711L107.461 32.6838H107.531L109.282 29.1282H111.994L108.704 35.1282V37.8803H106.289V35.1282L102.998 29.1282Z" fill="#24BB7D"/>
<path d="M99.8417 32.0171C99.8038 31.8661 99.744 31.7336 99.6623 31.6197C99.5806 31.5029 99.4785 31.4046 99.356 31.3248C99.2364 31.2422 99.0964 31.1809 98.936 31.141C98.7784 31.0983 98.6049 31.0769 98.4153 31.0769C98.0069 31.0769 97.6583 31.1724 97.3695 31.3633C97.0836 31.5541 96.8648 31.8291 96.7131 32.188C96.5643 32.547 96.49 32.9801 96.49 33.4872C96.49 34 96.5614 34.4387 96.7044 34.8034C96.8473 35.1681 97.0602 35.4473 97.3432 35.641C97.6262 35.8348 97.9777 35.9316 98.3977 35.9316C98.7682 35.9316 99.076 35.8789 99.321 35.7735C99.569 35.6681 99.7542 35.5185 99.8767 35.3248C99.9992 35.1311 100.061 34.9031 100.061 34.641L100.481 34.6838H98.4328V32.9915H102.406V34.2051C102.406 35.0029 102.232 35.6852 101.885 36.2521C101.541 36.8162 101.065 37.2493 100.459 37.5513C99.8548 37.8504 99.162 38 98.3802 38C97.508 38 96.7423 37.8191 96.083 37.4573C95.4237 37.0954 94.9089 36.5798 94.5384 35.9103C94.1708 35.2407 93.9871 34.4444 93.9871 33.5214C93.9871 32.7977 94.0994 32.1567 94.324 31.5983C94.5515 31.0399 94.8666 30.5684 95.2691 30.1838C95.6717 29.7963 96.137 29.5043 96.665 29.3077C97.193 29.1083 97.7589 29.0086 98.3627 29.0086C98.8937 29.0086 99.3866 29.0826 99.8417 29.2308C100.3 29.3761 100.704 29.5841 101.054 29.8547C101.407 30.1225 101.691 30.4402 101.907 30.8077C102.123 31.1752 102.254 31.5784 102.301 32.0171H99.8417Z" fill="#24BB7D"/>
<path d="M92.6502 33.5043C92.6502 34.4786 92.4562 35.3006 92.0682 35.9701C91.6803 36.6368 91.1566 37.1425 90.4974 37.4872C89.8381 37.8291 89.103 38 88.292 38C87.4752 38 86.7372 37.8276 86.0779 37.4829C85.4216 37.1353 84.8994 36.6282 84.5114 35.9615C84.1264 35.292 83.9338 34.4729 83.9338 33.5043C83.9338 32.5299 84.1264 31.7094 84.5114 31.0427C84.8994 30.3732 85.4216 29.8675 86.0779 29.5256C86.7372 29.1809 87.4752 29.0086 88.292 29.0086C89.103 29.0086 89.8381 29.1809 90.4974 29.5256C91.1566 29.8675 91.6803 30.3732 92.0682 31.0427C92.4562 31.7094 92.6502 32.5299 92.6502 33.5043ZM90.1473 33.5043C90.1473 32.9801 90.0758 32.5385 89.9329 32.1795C89.7929 31.8177 89.5843 31.5442 89.3072 31.359C89.033 31.1709 88.6946 31.0769 88.292 31.0769C87.8895 31.0769 87.5496 31.1709 87.2725 31.359C86.9983 31.5442 86.7897 31.8177 86.6468 32.1795C86.5067 32.5385 86.4367 32.9801 86.4367 33.5043C86.4367 34.0285 86.5067 34.4715 86.6468 34.8333C86.7897 35.1923 86.9983 35.4658 87.2725 35.6538C87.5496 35.839 87.8895 35.9316 88.292 35.9316C88.6946 35.9316 89.033 35.839 89.3072 35.6538C89.5843 35.4658 89.7929 35.1923 89.9329 34.8333C90.0758 34.4715 90.1473 34.0285 90.1473 33.5043Z" fill="#24BB7D"/>
<path d="M77.032 37.8803V29.1282H79.4649V35.9658H83.0879V37.8803H77.032Z" fill="#24BB7D"/>
<path d="M75.6597 33.5043C75.6597 34.4786 75.4657 35.3006 75.0778 35.9701C74.6898 36.6368 74.1662 37.1425 73.5069 37.4872C72.8476 37.8291 72.1125 38 71.3015 38C70.4847 38 69.7467 37.8276 69.0874 37.4829C68.4311 37.1353 67.9089 36.6282 67.5209 35.9615C67.1359 35.292 66.9434 34.4729 66.9434 33.5043C66.9434 32.5299 67.1359 31.7094 67.5209 31.0427C67.9089 30.3732 68.4311 29.8675 69.0874 29.5256C69.7467 29.1809 70.4847 29.0086 71.3015 29.0086C72.1125 29.0086 72.8476 29.1809 73.5069 29.5256C74.1662 29.8675 74.6898 30.3732 75.0778 31.0427C75.4657 31.7094 75.6597 32.5299 75.6597 33.5043ZM73.1568 33.5043C73.1568 32.9801 73.0854 32.5385 72.9424 32.1795C72.8024 31.8177 72.5938 31.5442 72.3167 31.359C72.0425 31.1709 71.7041 31.0769 71.3015 31.0769C70.899 31.0769 70.5591 31.1709 70.282 31.359C70.0078 31.5442 69.7992 31.8177 69.6563 32.1795C69.5163 32.5385 69.4463 32.9801 69.4463 33.5043C69.4463 34.0285 69.5163 34.4715 69.6563 34.8333C69.7992 35.1923 70.0078 35.4658 70.282 35.6538C70.5591 35.839 70.899 35.9316 71.3015 35.9316C71.7041 35.9316 72.0425 35.839 72.3167 35.6538C72.5938 35.4658 72.8024 35.1923 72.9424 34.8333C73.0854 34.4715 73.1568 34.0285 73.1568 33.5043Z" fill="#24BB7D"/>
<path d="M65.5811 29.1282V37.8803H63.5508L60.3128 33.282H60.2603V37.8803H57.8274V29.1282H59.8927L63.0782 33.7094H63.1482V29.1282H65.5811Z" fill="#24BB7D"/>
<path d="M48.3396 37.8803V29.1282H50.7725V32.547H53.993V29.1282H56.4259V37.8803H53.993V34.4615H50.7725V37.8803H48.3396Z" fill="#24BB7D"/>
<path d="M46.9894 32.4103H44.5216C44.5041 32.2108 44.4574 32.0299 44.3815 31.8675C44.3086 31.7051 44.2065 31.5655 44.0752 31.4487C43.9469 31.3291 43.7908 31.2379 43.607 31.1752C43.4233 31.1097 43.2147 31.0769 42.9813 31.0769C42.5729 31.0769 42.2272 31.1738 41.9443 31.3675C41.6642 31.5613 41.4513 31.839 41.3054 32.2009C41.1625 32.5627 41.091 32.9972 41.091 33.5043C41.091 34.0399 41.164 34.4886 41.3098 34.8504C41.4586 35.2094 41.673 35.4801 41.953 35.6624C42.2331 35.8419 42.57 35.9316 42.9638 35.9316C43.1884 35.9316 43.3897 35.9046 43.5677 35.8504C43.7456 35.7935 43.9002 35.7123 44.0315 35.6068C44.1628 35.5014 44.2692 35.3746 44.3509 35.2265C44.4355 35.0755 44.4924 34.906 44.5216 34.718L46.9894 34.735C46.9603 35.1054 46.8538 35.4829 46.67 35.8675C46.4862 36.2493 46.2252 36.6026 45.8868 36.9274C45.5513 37.2493 45.1356 37.5085 44.6397 37.7051C44.1438 37.9017 43.5677 38 42.9113 38C42.0887 38 41.3507 37.8276 40.6972 37.4829C40.0467 37.1382 39.5318 36.6311 39.1526 35.9615C38.7763 35.292 38.5881 34.4729 38.5881 33.5043C38.5881 32.5299 38.7807 31.7094 39.1657 31.0427C39.5508 30.3732 40.07 29.8675 40.7235 29.5256C41.3769 29.1809 42.1062 29.0086 42.9113 29.0086C43.4772 29.0086 43.9979 29.0841 44.4734 29.235C44.9489 29.386 45.3661 29.6068 45.7249 29.8974C46.0837 30.1852 46.3725 30.5399 46.5913 30.9615C46.81 31.3832 46.9428 31.8661 46.9894 32.4103Z" fill="#24BB7D"/>
<path d="M30.7117 37.8803V29.1282H37.1702V31.0427H33.1446V32.547H36.8376V34.4615H33.1446V35.9658H37.1527V37.8803H30.7117Z" fill="#24BB7D"/>
<path d="M21.7607 31.0427V29.1282H29.5495V31.0427H26.854V37.8803H24.4562V31.0427H21.7607Z" fill="#24BB7D"/>
<path d="M21.055 33.5043C21.055 34.4786 20.861 35.3006 20.473 35.9701C20.085 36.6368 19.5614 37.1425 18.9021 37.4872C18.2429 37.8291 17.5078 38 16.6968 38C15.88 38 15.142 37.8276 14.4827 37.4829C13.8264 37.1353 13.3042 36.6282 12.9162 35.9615C12.5312 35.292 12.3386 34.4729 12.3386 33.5043C12.3386 32.5299 12.5312 31.7094 12.9162 31.0427C13.3042 30.3732 13.8264 29.8675 14.4827 29.5256C15.142 29.1809 15.88 29.0086 16.6968 29.0086C17.5078 29.0086 18.2429 29.1809 18.9021 29.5256C19.5614 29.8675 20.085 30.3732 20.473 31.0427C20.861 31.7094 21.055 32.5299 21.055 33.5043ZM18.5521 33.5043C18.5521 32.9801 18.4806 32.5385 18.3377 32.1795C18.1977 31.8177 17.9891 31.5442 17.712 31.359C17.4378 31.1709 17.0994 31.0769 16.6968 31.0769C16.2942 31.0769 15.9544 31.1709 15.6773 31.359C15.4031 31.5442 15.1945 31.8177 15.0515 32.1795C14.9115 32.5385 14.8415 32.9801 14.8415 33.5043C14.8415 34.0285 14.9115 34.4715 15.0515 34.8333C15.1945 35.1923 15.4031 35.4658 15.6773 35.6538C15.9544 35.839 16.2942 35.9316 16.6968 35.9316C17.0994 35.9316 17.4378 35.839 17.712 35.6538C17.9891 35.4658 18.1977 35.1923 18.3377 34.8333C18.4806 34.4715 18.5521 34.0285 18.5521 33.5043Z" fill="#24BB7D"/>
<path d="M10.9741 29.1282V37.8803H8.54126V29.1282H10.9741Z" fill="#24BB7D"/>
<path d="M0.064209 37.8802V29.1281H3.94982C4.63242 29.1281 5.20564 29.2178 5.66946 29.3973C6.1362 29.5768 6.48771 29.8303 6.724 30.158C6.9632 30.4856 7.08281 30.8717 7.08281 31.3161C7.08281 31.638 7.00988 31.9315 6.86402 32.1964C6.72108 32.4614 6.5198 32.6836 6.26018 32.8631C6.00055 33.0398 5.69717 33.1623 5.35004 33.2306V33.3161C5.7351 33.3303 6.08515 33.4258 6.4002 33.6024C6.71525 33.7762 6.96612 34.017 7.15282 34.3247C7.33951 34.6295 7.43286 34.9885 7.43286 35.4016C7.43286 35.8802 7.30451 36.3061 7.0478 36.6794C6.79401 37.0526 6.43229 37.346 5.96263 37.5597C5.49297 37.7734 4.93289 37.8802 4.28237 37.8802H0.064209ZM2.49709 35.9828H3.63477C4.04316 35.9828 4.34946 35.9087 4.55366 35.7605C4.75786 35.6096 4.85996 35.3873 4.85996 35.0939C4.85996 34.8888 4.81183 34.715 4.71556 34.5725C4.6193 34.4301 4.48219 34.3218 4.30425 34.2477C4.12922 34.1737 3.91773 34.1366 3.66977 34.1366H2.49709V35.9828ZM2.49709 32.6665H3.49474C3.7077 32.6665 3.89585 32.6338 4.05921 32.5682C4.22257 32.5027 4.34946 32.4087 4.43989 32.2862C4.53324 32.1608 4.57991 32.0084 4.57991 31.8289C4.57991 31.5583 4.48073 31.3517 4.28237 31.2093C4.084 31.064 3.83313 30.9913 3.52975 30.9913H2.49709V32.6665Z" fill="#24BB7D"/>
</svg>
