<svg width="1440" height="750" viewBox="0 0 1440 750" fill="none" xmlns="http://www.w3.org/2000/svg">
<mask id="mask0_520_2746" style="mask-type:alpha" maskUnits="userSpaceOnUse" x="0" y="0" width="1440" height="750">
<rect width="1440" height="750" transform="matrix(1 0 0 -1 0 750)" fill="white"/>
</mask>
<g mask="url(#mask0_520_2746)">
<g filter="url(#filter0_f_520_2746)">
<path d="M1375.81 129.442L1376.25 129.68C1402.2 147.171 1437.73 176.456 1458.09 227.629C1483.54 291.595 1477.55 370.554 1410.68 465.504C1343.81 560.454 1220.55 476.498 1229.03 434.52C1237.51 392.542 1226.04 331.075 1159.16 306.088C1092.29 281.101 1081.31 230.627 1097.78 163.662C1114.25 96.6976 1190.1 99.1963 1256.98 96.1979C1310.21 93.811 1346.44 113.492 1375.81 129.442Z" fill="url(#paint0_linear_520_2746)"/>
</g>
<g opacity="0.78" filter="url(#filter1_f_520_2746)">
<path d="M1368.56 532.611L1368.03 532.909C1329.62 550.55 1265.31 574.704 1152.93 588.546C1012.45 605.847 839.045 601.776 630.523 556.317C422 510.858 606.378 427.064 698.567 432.831C790.756 438.599 925.747 430.796 980.621 385.337C1035.5 339.878 1146.34 332.414 1293.4 343.609C1440.47 354.805 1434.98 406.37 1441.57 451.829C1446.81 488.016 1403.58 512.649 1368.56 532.611Z" fill="url(#paint1_linear_520_2746)"/>
</g>
</g>
<defs>
<filter id="filter0_f_520_2746" x="897.8" y="-97.2" width="767.4" height="799.4" filterUnits="userSpaceOnUse" color-interpolation-filters="sRGB">
<feFlood flood-opacity="0" result="BackgroundImageFix"/>
<feBlend mode="normal" in="SourceGraphic" in2="BackgroundImageFix" result="shape"/>
<feGaussianBlur stdDeviation="96.6" result="effect1_foregroundBlur_520_2746"/>
</filter>
<filter id="filter1_f_520_2746" x="341.8" y="145.8" width="1293.4" height="645.4" filterUnits="userSpaceOnUse" color-interpolation-filters="sRGB">
<feFlood flood-opacity="0" result="BackgroundImageFix"/>
<feBlend mode="normal" in="SourceGraphic" in2="BackgroundImageFix" result="shape"/>
<feGaussianBlur stdDeviation="96.6" result="effect1_foregroundBlur_520_2746"/>
</filter>
<linearGradient id="paint0_linear_520_2746" x1="1281.5" y1="96" x2="1349.5" y2="632" gradientUnits="userSpaceOnUse">
<stop stop-color="#C7F4DF"/>
<stop offset="1" stop-color="white"/>
</linearGradient>
<linearGradient id="paint1_linear_520_2746" x1="1423.04" y1="468" x2="246.803" y2="554.105" gradientUnits="userSpaceOnUse">
<stop stop-color="#B7DBFC"/>
<stop offset="1" stop-color="#D1E1FF"/>
</linearGradient>
</defs>
</svg>
