<svg width="100" height="100" viewBox="0 0 100 100" fill="none" xmlns="http://www.w3.org/2000/svg">
<g clip-path="url(#clip0_863_503)">
<path d="M66.4062 35.1562C66.4062 34.7418 66.2416 34.3444 65.9486 34.0514C65.6556 33.7584 65.2582 33.5938 64.8438 33.5938H44.5312C44.1168 33.5938 43.7194 33.7584 43.4264 34.0514C43.1334 34.3444 42.9688 34.7418 42.9688 35.1562C42.9688 35.5707 43.1334 35.9681 43.4264 36.2611C43.7194 36.5541 44.1168 36.7188 44.5312 36.7188H64.8438C65.2582 36.7188 65.6556 36.5541 65.9486 36.2611C66.2416 35.9681 66.4062 35.5707 66.4062 35.1562ZM44.5312 42.9688H52.3438C52.7582 42.9688 53.1556 42.8041 53.4486 42.5111C53.7416 42.2181 53.9062 41.8207 53.9062 41.4062C53.9062 40.9918 53.7416 40.5944 53.4486 40.3014C53.1556 40.0084 52.7582 39.8438 52.3438 39.8438H44.5312C44.1168 39.8438 43.7194 40.0084 43.4264 40.3014C43.1334 40.5944 42.9688 40.9918 42.9688 41.4062C42.9688 41.8207 43.1334 42.2181 43.4264 42.5111C43.7194 42.8041 44.1168 42.9688 44.5312 42.9688ZM39.8438 34.375C39.8429 33.5465 39.5134 32.7521 38.9275 32.1662C38.3417 31.5803 37.5473 31.2508 36.7188 31.25H28.9062C28.0777 31.2508 27.2833 31.5803 26.6975 32.1662C26.1116 32.7521 25.7821 33.5465 25.7812 34.375V42.1875C25.7821 43.016 26.1116 43.8104 26.6975 44.3963C27.2833 44.9822 28.0777 45.3117 28.9062 45.3125H36.7188C37.5473 45.3117 38.3417 44.9822 38.9275 44.3963C39.5134 43.8104 39.8429 43.016 39.8438 42.1875V34.375ZM28.9062 42.1875V34.375H35.2359L32.5852 36.9031L32.3281 36.6586C32.0265 36.3829 31.6288 36.2363 31.2204 36.2503C30.8119 36.2643 30.4253 36.4378 30.1432 36.7335C29.8612 37.0293 29.7062 37.4237 29.7116 37.8324C29.7169 38.241 29.8822 38.6313 30.1719 38.9195L31.507 40.193C31.7976 40.47 32.1837 40.6245 32.5852 40.6245C32.9866 40.6245 33.3727 40.47 33.6633 40.193L36.7195 37.2789L36.7203 42.1875H28.9062ZM44.5312 60.1562H52.3438C52.7582 60.1562 53.1556 59.9916 53.4486 59.6986C53.7416 59.4056 53.9062 59.0082 53.9062 58.5938C53.9062 58.1793 53.7416 57.7819 53.4486 57.4889C53.1556 57.1959 52.7582 57.0312 52.3438 57.0312H44.5312C44.1168 57.0312 43.7194 57.1959 43.4264 57.4889C43.1334 57.7819 42.9688 58.1793 42.9688 58.5938C42.9688 59.0082 43.1334 59.4056 43.4264 59.6986C43.7194 59.9916 44.1168 60.1562 44.5312 60.1562ZM39.8438 51.5625C39.8429 50.734 39.5134 49.9396 38.9275 49.3537C38.3417 48.7678 37.5473 48.4383 36.7188 48.4375H28.9062C28.0777 48.4383 27.2833 48.7678 26.6975 49.3537C26.1116 49.9396 25.7821 50.734 25.7812 51.5625V59.375C25.7821 60.2035 26.1116 60.9979 26.6975 61.5838C27.2833 62.1697 28.0777 62.4992 28.9062 62.5H36.7188C37.5473 62.4992 38.3417 62.1697 38.9275 61.5838C39.5134 60.9979 39.8429 60.2035 39.8438 59.375V51.5625ZM28.9062 59.375V51.5625H35.2359L32.5852 54.0906L32.3281 53.8461C32.0265 53.5704 31.6288 53.4238 31.2204 53.4378C30.8119 53.4518 30.4253 53.6253 30.1432 53.921C29.8612 54.2168 29.7062 54.6112 29.7116 55.0199C29.7169 55.4285 29.8822 55.8188 30.1719 56.107L31.507 57.3805C31.7976 57.6575 32.1837 57.812 32.5852 57.812C32.9866 57.812 33.3727 57.6575 33.6633 57.3805L36.7195 54.4664L36.7203 59.375H28.9062ZM66.4062 69.5312C66.4062 69.1168 66.2416 68.7194 65.9486 68.4264C65.6556 68.1334 65.2582 67.9688 64.8438 67.9688H44.5312C44.1168 67.9688 43.7194 68.1334 43.4264 68.4264C43.1334 68.7194 42.9688 69.1168 42.9688 69.5312C42.9688 69.9457 43.1334 70.3431 43.4264 70.6361C43.7194 70.9291 44.1168 71.0938 44.5312 71.0938H64.8438C65.2582 71.0938 65.6556 70.9291 65.9486 70.6361C66.2416 70.3431 66.4062 69.9457 66.4062 69.5312ZM44.5312 74.2188C44.1168 74.2188 43.7194 74.3834 43.4264 74.6764C43.1334 74.9694 42.9688 75.3668 42.9688 75.7812C42.9688 76.1957 43.1334 76.5931 43.4264 76.8861C43.7194 77.1791 44.1168 77.3438 44.5312 77.3438H52.3438C52.7582 77.3438 53.1556 77.1791 53.4486 76.8861C53.7416 76.5931 53.9062 76.1957 53.9062 75.7812C53.9062 75.3668 53.7416 74.9694 53.4486 74.6764C53.1556 74.3834 52.7582 74.2188 52.3438 74.2188H44.5312ZM36.7188 65.625H28.9062C28.0777 65.6258 27.2833 65.9553 26.6975 66.5412C26.1116 67.1271 25.7821 67.9215 25.7812 68.75V76.5625C25.7821 77.391 26.1116 78.1854 26.6975 78.7713C27.2833 79.3572 28.0777 79.6867 28.9062 79.6875H36.7188C37.5473 79.6867 38.3417 79.3572 38.9275 78.7713C39.5134 78.1854 39.8429 77.391 39.8438 76.5625V68.75C39.8429 67.9215 39.5134 67.1271 38.9275 66.5412C38.3417 65.9553 37.5473 65.6258 36.7188 65.625ZM28.9062 76.5625V68.75H35.2359L32.5852 71.2781L32.3281 71.0336C32.0265 70.7579 31.6288 70.6113 31.2204 70.6253C30.8119 70.6393 30.4253 70.8128 30.1432 71.1085C29.8612 71.4043 29.7062 71.7987 29.7116 72.2074C29.7169 72.616 29.8822 73.0063 30.1719 73.2945L31.507 74.568C31.7976 74.845 32.1837 74.9995 32.5852 74.9995C32.9866 74.9995 33.3727 74.845 33.6633 74.568L36.7195 71.6539L36.7203 76.5625H28.9062ZM44.5312 50.7812C44.1168 50.7812 43.7194 50.9459 43.4264 51.2389C43.1334 51.5319 42.9688 51.9293 42.9688 52.3438C42.9688 52.7582 43.1334 53.1556 43.4264 53.4486C43.7194 53.7416 44.1168 53.9062 44.5312 53.9062H55.543C55.4961 53.3906 55.4688 52.8711 55.4688 52.3438C55.4688 51.8164 55.4961 51.2969 55.543 50.7812H44.5312ZM72.6562 38.2812C69.875 38.2812 67.1561 39.106 64.8435 40.6512C62.531 42.1964 60.7286 44.3927 59.6642 46.9623C58.5998 49.5319 58.3214 52.3594 58.864 55.0872C59.4066 57.8151 60.7459 60.3208 62.7126 62.2874C64.6792 64.2541 67.1849 65.5934 69.9128 66.136C72.6406 66.6786 75.4681 66.4002 78.0377 65.3358C80.6073 64.2714 82.8036 62.469 84.3488 60.1565C85.894 57.8439 86.7188 55.125 86.7188 52.3438C86.7146 48.6154 85.2317 45.041 82.5954 42.4046C79.959 39.7683 76.3846 38.2854 72.6562 38.2812ZM72.6562 63.2812C70.493 63.2812 68.3784 62.6398 66.5797 61.4379C64.781 60.2361 63.3792 58.5279 62.5513 56.5293C61.7235 54.5308 61.5069 52.3316 61.9289 50.21C62.3509 48.0883 63.3926 46.1394 64.9223 44.6098C66.4519 43.0801 68.4008 42.0384 70.5225 41.6164C72.6441 41.1944 74.8433 41.411 76.8419 42.2388C78.8404 43.0667 80.5486 44.4685 81.7504 46.2672C82.9523 48.0659 83.5938 50.1805 83.5938 52.3438C83.5904 55.2435 82.437 58.0236 80.3866 60.0741C78.3361 62.1245 75.556 63.2779 72.6562 63.2812Z" fill="#1C74E8"/>
<path d="M77.0396 47.3125L70.0271 54.0781L68.2725 52.3859C67.9742 52.0981 67.5738 51.9406 67.1594 51.948C66.745 51.9554 66.3505 52.1271 66.0627 52.4254C65.7749 52.7237 65.6174 53.124 65.6248 53.5385C65.6322 53.9529 65.8039 54.3474 66.1021 54.6352L68.942 57.3742C69.2332 57.6552 69.6221 57.8121 70.0268 57.8121C70.4314 57.8121 70.8203 57.6552 71.1115 57.3742L79.21 49.5617C79.5081 49.2739 79.6797 48.8795 79.6871 48.4651C79.6944 48.0508 79.5368 47.6505 79.249 47.3524C78.9612 47.0542 78.5668 46.8826 78.1524 46.8752C77.7381 46.8679 77.3378 47.0247 77.0396 47.3125Z" fill="#1C74E8"/>
<path d="M75.7812 95.3126C75.7808 95.7269 75.6161 96.124 75.3231 96.417C75.0302 96.7099 74.633 96.8747 74.2188 96.8751H17.9688C17.5545 96.8747 17.1573 96.7099 16.8644 96.417C16.5714 96.124 16.4067 95.7269 16.4062 95.3126V15.6251C16.4067 15.2108 16.5714 14.8136 16.8644 14.5207C17.1573 14.2277 17.5545 14.063 17.9688 14.0626H28.9062V17.1876H21.0938C20.6793 17.1876 20.2819 17.3522 19.9889 17.6452C19.6959 17.9383 19.5312 18.3357 19.5312 18.7501V92.1876C19.5312 92.602 19.6959 92.9994 19.9889 93.2924C20.2819 93.5855 20.6793 93.7501 21.0938 93.7501H60.9375C61.0411 93.7499 61.1445 93.7395 61.2461 93.7188C61.3138 93.7033 61.3803 93.6832 61.4453 93.6587C61.4766 93.6477 61.5078 93.6423 61.5383 93.6298C61.6083 93.5986 61.6759 93.5623 61.7406 93.5212C61.7617 93.5087 61.7852 93.5001 61.8063 93.486C61.8914 93.4288 61.9706 93.3634 62.043 93.2907L72.1977 83.1368C72.2701 83.0644 72.3352 82.9852 72.3922 82.9001C72.4063 82.879 72.4148 82.8556 72.4273 82.8345C72.4685 82.7695 72.5048 82.7016 72.5359 82.6313C72.5484 82.6016 72.5539 82.5696 72.5648 82.5391C72.5894 82.4742 72.6095 82.4076 72.625 82.3399C72.6456 82.2384 72.6561 82.135 72.6562 82.0313V69.5313C71.6079 69.5302 70.5619 69.4331 69.5312 69.2415V80.4688H63.2812C62.2456 80.4701 61.2528 80.882 60.5205 81.6143C59.7882 82.3466 59.3762 83.3395 59.375 84.3751V90.6251H22.6562V20.3126H69.5312V35.4462C70.5619 35.2545 71.6079 35.1575 72.6562 35.1563V18.7501C72.6562 18.3357 72.4916 17.9383 72.1986 17.6452C71.9056 17.3522 71.5082 17.1876 71.0938 17.1876H63.2812V14.0626H74.2188C74.633 14.063 75.0302 14.2277 75.3231 14.5207C75.6161 14.8136 75.7808 15.2108 75.7812 15.6251V35.4462C76.8489 35.643 77.8954 35.9415 78.9062 36.3376V15.6251C78.9048 14.3823 78.4105 13.1909 77.5317 12.3121C76.653 11.4334 75.4615 10.939 74.2188 10.9376H63.2812V8.59383C63.2804 7.76529 62.9509 6.97091 62.365 6.38504C61.7792 5.79917 60.9848 5.46966 60.1562 5.46883H52.95C52.5959 3.91521 51.7247 2.52789 50.4791 1.53417C49.2334 0.540458 47.6872 -0.000732422 46.0938 -0.000732422C44.5003 -0.000732422 42.9541 0.540458 41.7084 1.53417C40.4628 2.52789 39.5916 3.91521 39.2375 5.46883H32.0312C31.2027 5.46966 30.4083 5.79917 29.8225 6.38504C29.2366 6.97091 28.9071 7.76529 28.9062 8.59383V10.9376H17.9688C16.726 10.939 15.5345 11.4334 14.6558 12.3121C13.777 13.1909 13.2827 14.3823 13.2812 15.6251V95.3126C13.2827 96.5553 13.777 97.7468 14.6558 98.6255C15.5345 99.5043 16.726 99.9986 17.9688 100H74.2188C75.4615 99.9986 76.653 99.5043 77.5317 98.6255C78.4105 97.7468 78.9048 96.5553 78.9062 95.3126V68.3501C77.8953 68.7459 76.8489 69.0441 75.7812 69.2407V95.3126ZM62.5 84.3751C62.5002 84.1679 62.5826 83.9694 62.729 83.8229C62.8755 83.6764 63.0741 83.594 63.2812 83.5938H67.3219L62.5 88.4157V84.3751ZM32.0312 8.59383H40.625C41.0394 8.59383 41.4368 8.42921 41.7299 8.13619C42.0229 7.84316 42.1875 7.44573 42.1875 7.03133C42.1875 5.99533 42.5991 5.00176 43.3316 4.2692C44.0642 3.53663 45.0577 3.12508 46.0938 3.12508C47.1298 3.12508 48.1233 3.53663 48.8559 4.2692C49.5885 5.00176 50 5.99533 50 7.03133C50 7.44573 50.1646 7.84316 50.4576 8.13619C50.7507 8.42921 51.1481 8.59383 51.5625 8.59383H60.1562V17.1876H32.0312V8.59383Z" fill="#1C74E8"/>
</g>
<defs>
<clipPath id="clip0_863_503">
<rect width="100" height="100" fill="white"/>
</clipPath>
</defs>
</svg>
