<svg width="100" height="100" viewBox="0 0 100 100" fill="none" xmlns="http://www.w3.org/2000/svg">
<path fill-rule="evenodd" clip-rule="evenodd" d="M55.9014 78.1546C56.84 78.1546 57.603 78.9242 57.603 79.8648C57.603 80.8054 56.8398 81.5644 55.9014 81.5644C54.963 81.5644 54.1996 80.8054 54.1996 79.8648C54.1996 78.9242 54.9628 78.1546 55.9014 78.1546ZM51.662 79.8648C51.662 82.195 53.5636 84.0976 55.9012 84.0976C58.2388 84.0976 60.1394 82.195 60.1394 79.8648C60.1394 77.524 58.2388 75.6212 55.9012 75.6212C53.5636 75.6214 51.662 77.524 51.662 79.8648ZM54.1996 20.1352C54.1996 19.2052 54.9628 18.4356 55.9014 18.4356C56.84 18.4356 57.603 19.2052 57.603 20.1352C57.603 21.0758 56.8398 21.8454 55.9014 21.8454C54.9628 21.8454 54.1996 21.0758 54.1996 20.1352ZM60.1396 20.1352C60.1396 17.805 58.239 15.9024 55.9014 15.9024C53.5638 15.9024 51.6622 17.805 51.6622 20.1352C51.6622 22.476 53.5638 24.3786 55.9014 24.3786C58.239 24.3786 60.1396 22.476 60.1396 20.1352ZM75.2194 54.7886C72.5782 54.7886 70.4286 52.6402 70.4286 50C70.4286 47.3598 72.5782 45.2114 75.2194 45.2114C77.8638 45.2114 80.0134 47.3598 80.0134 50C80.0134 52.6402 77.8638 54.7886 75.2194 54.7886ZM75.2194 42.6674C71.179 42.6674 67.891 45.9596 67.891 50C67.891 54.0404 71.1788 57.3326 75.2194 57.3326C79.262 57.3326 82.551 54.0404 82.551 50C82.551 45.9596 79.262 42.6674 75.2194 42.6674ZM88.7388 51.0688V48.931L86.4964 48.2042C86.0838 48.0652 85.7674 47.7338 85.6594 47.3064C85.4063 46.3271 85.0174 45.3881 84.504 44.5166C84.3948 44.3334 84.334 44.1255 84.3272 43.9123C84.3205 43.6991 84.368 43.4878 84.4654 43.298L85.5354 41.1922L84.024 39.685L81.9214 40.754C81.5334 40.957 81.0716 40.9358 80.6986 40.7112C79.8261 40.2003 78.8873 39.8118 77.9088 39.5568C77.7017 39.505 77.5111 39.4013 77.3551 39.2554C77.1992 39.1095 77.0829 38.9263 77.0174 38.723L76.2906 36.4784H74.1506L73.4216 38.723C73.3564 38.9264 73.2402 39.1098 73.0842 39.2557C72.9282 39.4016 72.7375 39.5053 72.5302 39.5568C71.5521 39.812 70.6138 40.2005 69.7414 40.7112C69.3672 40.9356 68.9066 40.957 68.5186 40.754L66.4182 39.685L64.9058 41.1922L65.9768 43.298C66.0736 43.488 66.1207 43.6993 66.1138 43.9124C66.1068 44.1255 66.0461 44.3333 65.9372 44.5166C65.4245 45.3885 65.0352 46.3274 64.7806 47.3064C64.6726 47.734 64.3584 48.0654 63.9436 48.2042L61.7022 48.931V51.0688L63.9436 51.7956C64.3584 51.9346 64.6726 52.266 64.7806 52.6828C65.0331 53.6659 65.4224 54.6087 65.9372 55.4834C66.0461 55.6667 66.1068 55.8746 66.1138 56.0876C66.1207 56.3007 66.0736 56.5121 65.9768 56.702L64.9058 58.8078L66.4182 60.315L68.5208 59.2462C68.9066 59.043 69.3674 59.0644 69.7414 59.2782C70.6148 59.802 71.5532 60.1868 72.5302 60.4434C72.7375 60.4949 72.9282 60.5985 73.0843 60.7444C73.2403 60.8903 73.3564 61.0736 73.4216 61.277L74.1506 63.5218H76.2906L77.0174 61.277C77.083 61.0738 77.1993 60.8907 77.3552 60.7448C77.5112 60.599 77.7017 60.4953 77.9088 60.4434C78.889 60.1868 79.8274 59.802 80.6996 59.2782C81.0738 59.0644 81.5334 59.043 81.9214 59.2462L84.024 60.315L85.5354 58.8078L84.4654 56.702C84.368 56.5123 84.3204 56.3009 84.3272 56.0877C84.3339 55.8745 84.3948 55.6666 84.504 55.4834C85.0192 54.6088 85.4086 53.666 85.6606 52.6828C85.7696 52.266 86.0838 51.9346 86.4966 51.7956L88.7388 51.0688ZM57.0248 70.3944H54.778L54.1442 72.3504C54.0256 72.7138 53.7444 73.0132 53.3832 73.1414C52.6449 73.4197 51.9571 73.8169 51.347 74.3172C51.0488 74.5738 50.6544 74.6592 50.2782 74.5844L48.2666 74.1568L47.1454 76.1022L48.519 77.6308C48.6454 77.7713 48.7387 77.9383 48.792 78.1196C48.8452 78.3009 48.8571 78.4919 48.8268 78.6784C48.6985 79.4606 48.6985 80.2584 48.8268 81.0406C48.8572 81.2288 48.8453 81.4213 48.792 81.6044C48.7388 81.7874 48.6456 81.9563 48.519 82.0988L47.1454 83.6166L48.2666 85.562L50.2782 85.1344C50.4651 85.0971 50.6578 85.1018 50.8426 85.148C51.0275 85.1942 51.1997 85.2808 51.347 85.4016C51.9572 85.9019 52.645 86.299 53.3832 86.5774C53.7446 86.7164 54.0256 87.005 54.1442 87.3684L54.778 89.3244H57.0248L57.6586 87.3684C57.7772 87.005 58.0584 86.7164 58.4176 86.5774C59.1566 86.2998 59.8449 85.9026 60.455 85.4016C60.6026 85.2808 60.775 85.1941 60.9601 85.1479C61.1451 85.1017 61.338 85.0971 61.525 85.1344L63.5344 85.562L64.6578 83.6166L63.2842 82.0988C63.1572 81.9565 63.0635 81.7877 63.0099 81.6047C62.9562 81.4216 62.9441 81.229 62.9742 81.0406C63.1023 80.2584 63.1023 79.4606 62.9742 78.6784C62.9122 78.3044 63.0256 77.9196 63.2842 77.6308L64.6578 76.1022L63.5344 74.1568L61.525 74.5844C61.3382 74.6218 61.1454 74.6172 60.9605 74.571C60.7756 74.5247 60.6033 74.4381 60.456 74.3172C59.8456 73.8162 59.157 73.419 58.4176 73.1414C58.0584 73.0132 57.7774 72.7138 57.6576 72.3504L57.0248 70.3944ZM37.7174 54.1794C35.415 54.1794 33.5412 52.2982 33.5412 50C33.5412 47.7018 35.415 45.8206 37.7174 45.8206C40.0208 45.8206 41.8946 47.7018 41.8946 50C41.8946 52.298 40.0208 54.1794 37.7174 54.1794ZM31.6182 65.082C30.6909 64.4774 29.7247 63.9346 28.7258 63.4572C31.63 61.8538 33.9644 59.3206 35.3306 56.2742C36.3498 56.6556 37.2084 56.752 38.2988 56.691C36.968 60.0904 34.657 62.9978 31.6182 65.082ZM39.5622 84.771C39.5622 75.3968 33.7944 67.5084 24.8682 64.6544C18.4644 62.613 14.162 56.7234 14.162 50C14.162 43.2766 18.4644 37.387 24.868 35.3456C33.7944 32.4916 39.562 24.6032 39.562 15.229V14.4594C39.5625 14.2879 39.5291 14.1181 39.4636 13.9596C39.3982 13.8011 39.3021 13.6571 39.1808 13.5359C39.0595 13.4147 38.9155 13.3187 38.7569 13.2534C38.5984 13.1881 38.4285 13.1548 38.257 13.1554H37.9726C37.8011 13.1548 37.6311 13.1881 37.4724 13.2533C37.3137 13.3186 37.1695 13.4146 37.048 13.5357C36.9266 13.6569 36.8302 13.8009 36.7646 13.9594C36.6989 14.1179 36.6652 14.2878 36.6654 14.4594V15.229C36.6654 23.125 31.87 30.0676 23.9872 32.5772C16.3768 35.0034 11.2644 42.0046 11.2644 50C11.2644 57.9954 16.377 64.9966 23.9874 67.423C31.6888 69.8708 36.6656 76.6796 36.6656 84.7712V85.5408C36.6654 85.7124 36.6991 85.8823 36.7648 86.0408C36.8304 86.1993 36.9268 86.3433 37.0482 86.4645C37.1697 86.5857 37.3139 86.6816 37.4726 86.7469C37.6313 86.8122 37.8013 86.8454 37.9728 86.8448H38.2572C38.4287 86.8454 38.5986 86.8121 38.7571 86.7468C38.9157 86.6815 39.0597 86.5855 39.181 86.4643C39.3023 86.3431 39.3984 86.1991 39.4639 86.0406C39.5293 85.8821 39.5627 85.7123 39.5622 85.5408V84.771ZM14.5554 80.9124C14.5352 80.986 14.5205 81.061 14.5116 81.1368C14.2784 82.3341 14.1614 83.5512 14.162 84.771V85.5406C14.1624 85.7121 14.1288 85.882 14.0632 86.0405C13.9977 86.199 13.9014 86.343 13.78 86.4642C13.6586 86.5854 13.5145 86.6813 13.3559 86.7466C13.1973 86.8119 13.0274 86.8452 12.8558 86.8446H12.5704C12.3989 86.8452 12.229 86.8118 12.0704 86.7465C11.9118 86.6812 11.7677 86.5852 11.6464 86.4641C11.525 86.3429 11.4287 86.1989 11.3632 86.0405C11.2976 85.882 11.264 85.7121 11.2642 85.5406V84.771C11.2642 78.1012 14.1854 72.0832 19.3066 68.1284C20.2805 68.6765 21.2954 69.1483 22.3422 69.5394C18.3008 72.1474 15.5334 76.1986 14.5554 80.9124ZM11.2644 15.2288V14.4592C11.2642 14.2877 11.2978 14.1178 11.3634 13.9594C11.4289 13.8009 11.5252 13.6569 11.6466 13.5358C11.7679 13.4146 11.912 13.3186 12.0706 13.2533C12.2292 13.188 12.3991 13.1547 12.5706 13.1552H12.856C13.0276 13.1546 13.1975 13.1879 13.3561 13.2532C13.5147 13.3185 13.6588 13.4145 13.7802 13.5357C13.9016 13.6568 13.9979 13.8008 14.0634 13.9593C14.129 14.1178 14.1626 14.2877 14.1622 14.4592V15.2288C14.1622 21.5566 17.2352 27.1684 22.3424 30.4606C21.2956 30.8517 20.2807 31.3234 19.3068 31.8716C14.1856 27.9166 11.2644 21.8988 11.2644 15.2288ZM24.8478 52.234C25.0147 52.234 25.18 52.2669 25.3341 52.3309C25.4883 52.3949 25.6283 52.4886 25.7461 52.6068C25.864 52.7249 25.9574 52.8652 26.021 53.0195C26.0845 53.1738 26.1171 53.3391 26.1166 53.506C26.1166 54.2008 25.548 54.7674 24.8478 54.7674H17.6104C18.9722 58.1986 21.7706 60.935 25.4166 62.1642C28.9118 60.9778 31.7434 58.3162 33.1522 54.917C30.2888 52.2484 30.2888 47.7518 33.1522 45.0832C31.7434 41.684 28.914 39.0226 25.4166 37.836C21.7706 39.0652 18.9722 41.8016 17.6104 45.2328H24.8478C25.0147 45.2328 25.18 45.2657 25.3341 45.3297C25.4883 45.3937 25.6283 45.4874 25.7461 45.6056C25.864 45.7237 25.9574 45.864 26.021 46.0183C26.0845 46.1726 26.1171 46.3379 26.1166 46.5048C26.1166 47.1996 25.548 47.7662 24.8478 47.7662H16.8932C16.6338 49.2443 16.6338 50.7562 16.8932 52.2342L24.8478 52.234ZM38.2988 43.3088C37.2084 43.2478 36.3498 43.3444 35.3306 43.7256C33.9646 40.6792 31.63 38.146 28.7258 36.5426C29.7247 36.0652 30.6909 35.5224 31.6182 34.9178C34.657 37.0022 36.968 39.9096 38.2988 43.3088ZM54.144 27.6494L54.7778 29.6054H57.0246L57.6574 27.6494C57.7772 27.286 58.0582 26.9868 58.4174 26.8584C59.1592 26.5813 59.8485 26.1801 60.4558 25.672C60.6051 25.5549 60.7779 25.4713 60.9623 25.427C61.1468 25.3828 61.3387 25.3788 61.5248 25.4154L63.5342 25.843L64.6576 23.8976L63.284 22.369C63.0254 22.091 62.912 21.6956 62.974 21.3214C63.1021 20.5392 63.1021 19.7414 62.974 18.9592C62.9439 18.7709 62.956 18.5782 63.0097 18.3951C63.0633 18.2121 63.157 18.0433 63.284 17.901L64.6576 16.3832L63.5342 14.4378L61.5248 14.8654C61.3378 14.9027 61.1449 14.8981 60.9599 14.8519C60.7748 14.8057 60.6024 14.719 60.4548 14.5982C59.8448 14.0972 59.1565 13.6999 58.4174 13.4224C58.0582 13.2834 57.7772 12.9948 57.6584 12.6314L57.0246 10.6754H54.778L54.1442 12.6314C54.0256 12.9948 53.7444 13.2834 53.3832 13.4224C52.6449 13.7007 51.9571 14.0978 51.347 14.5982C51.1997 14.719 51.0275 14.8056 50.8426 14.8519C50.6578 14.8981 50.4651 14.9027 50.2782 14.8654L48.2666 14.4378L47.1454 16.3832L48.519 17.901C48.6456 18.0436 48.7388 18.2125 48.792 18.3955C48.8453 18.5785 48.8572 18.771 48.8268 18.9592C48.6987 19.7414 48.6987 20.5392 48.8268 21.3214C48.8888 21.6956 48.7766 22.091 48.519 22.369L47.1454 23.8976L48.2666 25.843L50.2782 25.4154C50.4644 25.3789 50.6562 25.3829 50.8406 25.4272C51.0251 25.4715 51.1978 25.555 51.347 25.672C51.9541 26.1794 52.6425 26.5805 53.3832 26.8584C53.7444 26.9868 54.0254 27.286 54.144 27.6494ZM90.3998 46.804L87.922 46.0024C87.6911 45.2606 87.3928 44.5414 87.0306 43.854L88.215 41.5238C88.3361 41.2864 88.3786 41.0167 88.3366 40.7535C88.2945 40.4903 88.17 40.2473 87.981 40.0594L85.1656 37.2376C84.9754 37.0495 84.7311 36.9257 84.4669 36.8835C84.2027 36.8413 83.932 36.8829 83.6926 37.0024L81.371 38.1888C80.685 37.8257 79.9659 37.5286 79.2236 37.3016L78.4188 34.8218C78.3358 34.567 78.1742 34.3449 77.9572 34.1875C77.7403 34.0301 77.4791 33.9453 77.211 33.9454H73.2294C72.9616 33.9451 72.7005 34.0298 72.4839 34.1873C72.2672 34.3448 72.106 34.5669 72.0236 34.8218L71.2188 37.3016C70.476 37.528 69.7566 37.8251 69.0704 38.1888L66.7488 37.0024C66.5093 36.8829 66.2384 36.8414 65.9741 36.8836C65.7098 36.9257 65.4653 37.0495 65.2748 37.2376L62.46 40.0592C62.071 40.444 61.9768 41.0426 62.227 41.5236L63.4092 43.8538C63.0475 44.5414 62.7492 45.2605 62.5178 46.0022L60.0412 46.8038C59.7861 46.8863 59.5638 47.0478 59.4065 47.2649C59.2491 47.482 59.1649 47.7435 59.1658 48.0116V48.7278H44.3104C44.2303 48.3191 44.1137 47.9185 43.962 47.5306L56.5182 40.54C56.7156 40.4291 56.88 40.2677 56.9945 40.0724C57.1091 39.8771 57.1697 39.6548 57.1702 39.4284V32.1386H57.772C58.09 32.1394 58.4 32.0395 58.6577 31.8533C58.9154 31.667 59.1075 31.404 59.2064 31.1018L59.8894 28.996C60.4816 28.7288 61.0428 28.3974 61.5708 28.0232L63.7386 28.4828C64.0507 28.5462 64.3747 28.5102 64.6652 28.3798C64.9557 28.2494 65.198 28.0313 65.358 27.756L67.2286 24.5172C67.5568 23.9506 67.482 23.2452 67.0448 22.7536L65.5612 21.1074C65.6238 20.464 65.6238 19.816 65.5612 19.1726L67.0448 17.5158C67.2581 17.2812 67.3909 16.9847 67.424 16.6694C67.457 16.3541 67.3886 16.0365 67.2286 15.7628L65.358 12.5134C65.1992 12.2375 64.9566 12.0194 64.6654 11.8906C64.3742 11.7618 64.0496 11.7291 63.7386 11.7972L61.5708 12.2568C61.0428 11.8826 60.4816 11.5512 59.8894 11.2842L59.2042 9.17841C59.106 8.87625 58.9144 8.61307 58.657 8.42675C58.3996 8.24044 58.0898 8.1406 57.772 8.14161H54.0288C53.7112 8.14087 53.4014 8.24082 53.1441 8.4271C52.8868 8.61338 52.6951 8.8764 52.5966 9.17841L51.9114 11.2842C51.3214 11.5514 50.7592 11.8828 50.2322 12.2568L48.0624 11.7972C47.7517 11.7291 47.4274 11.7618 47.1366 11.8906C46.8458 12.0194 46.6036 12.2376 46.4452 12.5134L44.5726 15.7628C44.2466 16.3294 44.3192 17.0348 44.7586 17.5158L46.2422 19.1726C46.1766 19.8159 46.1766 20.4641 46.2422 21.1074L44.7586 22.7536C44.3192 23.2452 44.2444 23.9508 44.5726 24.5172L46.4452 27.756C46.6048 28.0312 46.8467 28.2494 47.1368 28.3798C47.427 28.5102 47.7507 28.5462 48.0624 28.4828L50.2322 28.0232C50.7592 28.3974 51.3214 28.7288 51.9114 28.9852L52.5966 31.1016C52.6952 31.4036 52.8868 31.6666 53.1442 31.8529C53.4015 32.0392 53.7112 32.1391 54.0288 32.1384H54.6328V38.6908L42.595 45.3928C42.2149 44.988 41.7854 44.6325 41.3166 44.3346C40.065 39.9094 37.4194 36.0614 33.7564 33.325C39.1036 28.8788 42.1002 22.291 42.1002 15.2286V14.459C42.1002 12.332 40.376 10.611 38.2576 10.611H37.9732C35.8536 10.611 34.1284 12.332 34.1284 14.459C34.1284 15.5768 34.1312 16.32 33.9766 17.4626H25.9814C25.8145 17.4626 25.6493 17.4955 25.4951 17.5595C25.341 17.6235 25.201 17.7172 25.0831 17.8354C24.9653 17.9535 24.8719 18.0938 24.8083 18.2481C24.7447 18.4024 24.7122 18.5677 24.7126 18.7346C24.7126 19.4294 25.2812 20.0066 25.9814 20.0066H33.4166C32.165 24.0576 29.3238 27.3926 25.4096 29.2846C20.0212 26.6764 16.6992 21.3428 16.6992 15.2286V14.459C16.6992 12.332 14.9762 10.611 12.8566 10.611H12.5712C10.4526 10.611 8.72744 12.332 8.72744 14.459V15.2286C8.72744 22.3902 11.7492 28.889 17.0732 33.325C7.96664 40.161 5.98304 53.02 12.7404 62.2816C13.975 63.9812 15.435 65.4456 17.0726 66.6748C11.7484 71.1108 8.72684 77.6096 8.72684 84.7712V85.5408C8.72684 87.6572 10.452 89.3888 12.5706 89.3888H12.856C14.9756 89.3888 16.6986 87.6572 16.6986 85.5408C16.6986 84.4276 16.695 83.6738 16.8504 82.5372H24.8478C25.0147 82.5372 25.18 82.5043 25.3341 82.4403C25.4883 82.3764 25.6283 82.2826 25.7461 82.1645C25.864 82.0463 25.9574 81.9061 26.021 81.7517C26.0845 81.5974 26.1171 81.4321 26.1166 81.2652C26.1166 80.5704 25.548 79.9932 24.8478 79.9932H17.4126C18.659 75.9634 21.485 72.6178 25.409 70.7152C30.7748 73.3126 34.128 78.6144 34.128 84.7712V85.5408C34.128 87.6572 35.8532 89.3888 37.9728 89.3888H38.2572C40.3758 89.3888 42.0998 87.6572 42.0998 85.5408V84.7712C42.0998 77.6944 39.1132 71.1294 33.756 66.6748C37.419 63.9384 40.0646 60.1012 41.3162 55.6652C41.785 55.3674 42.2145 55.0119 42.5946 54.607L54.6324 61.309V67.8614H54.0284C53.7108 67.8607 53.401 67.9606 53.1437 68.1469C52.8864 68.3332 52.6947 68.5962 52.5962 68.8982L51.911 71.004C51.321 71.282 50.7588 71.6026 50.2318 71.9768L48.062 71.5172C47.4228 71.389 46.7708 71.6776 46.4448 72.244L44.5722 75.4828C44.4129 75.7587 44.345 76.078 44.3785 76.3949C44.4119 76.7117 44.5448 77.0098 44.7582 77.2464L46.2418 78.8926C46.1762 79.5358 46.1762 80.184 46.2418 80.8272L44.7572 82.484C44.319 82.965 44.2462 83.6704 44.5722 84.237L46.4448 87.4864C46.6032 87.7623 46.8454 87.9804 47.1362 88.1092C47.427 88.238 47.7513 88.2707 48.062 88.2026L50.2318 87.743C50.7588 88.1278 51.321 88.4484 51.911 88.7156L52.5962 90.8214C52.6948 91.1234 52.8864 91.3864 53.1438 91.5727C53.4011 91.759 53.7108 91.8589 54.0284 91.8582H57.7716C58.0895 91.8587 58.3994 91.7587 58.657 91.5725C58.9146 91.3863 59.1068 91.1234 59.206 90.8214L59.889 88.7156C60.4815 88.4503 61.045 88.1243 61.5704 87.743L63.7382 88.2026C64.0492 88.2705 64.3738 88.2377 64.6649 88.109C64.956 87.9802 65.1986 87.7622 65.3576 87.4864L67.2282 84.237C67.3882 83.9633 67.4566 83.6457 67.4236 83.3304C67.3905 83.0151 67.2577 82.7186 67.0444 82.484L65.5608 80.8272C65.6236 80.1839 65.6236 79.5359 65.5608 78.8926L67.0444 77.2464C67.4816 76.7548 67.5564 76.0492 67.2282 75.4828L65.3554 72.244C65.0294 71.6774 64.3794 71.3888 63.7382 71.5172L61.5704 71.9768C61.0424 71.6026 60.4812 71.2714 59.889 71.004L59.2038 68.8982C59.1053 68.5962 58.9136 68.3332 58.6563 68.1469C58.399 67.9607 58.0893 67.8607 57.7716 67.8614H57.1698V60.5716C57.1693 60.3452 57.1087 60.123 56.9942 59.9276C56.8796 59.7323 56.7152 59.571 56.5178 59.46L43.9616 52.4694C44.1134 52.0816 44.23 51.6809 44.31 51.2722H59.1654V51.9884C59.1645 52.2565 59.2487 52.518 59.4061 52.7351C59.5634 52.9522 59.7857 53.1137 60.0408 53.1962L62.5196 53.9978C62.7503 54.7395 63.048 55.4586 63.409 56.1462L62.2268 58.4764C61.9766 58.9574 62.0708 59.556 62.4598 59.9408L65.2742 62.7626C65.4647 62.9507 65.7092 63.0745 65.9735 63.1167C66.2378 63.1589 66.5087 63.1173 66.7482 62.9978L69.0698 61.8114C69.7604 62.1748 70.4776 62.4742 71.2182 62.6986L72.023 65.1784C72.1054 65.4333 72.2665 65.6555 72.4832 65.813C72.6999 65.9706 72.961 66.0553 73.2288 66.055H77.2104C77.4785 66.0551 77.7397 65.9703 77.9567 65.8128C78.1736 65.6554 78.3352 65.4333 78.4182 65.1784L79.223 62.6986C79.9653 62.4716 80.6844 62.1745 81.3704 61.8114L83.692 62.9978C83.9314 63.1173 84.2021 63.1589 84.4663 63.1167C84.7305 63.0745 84.9748 62.9507 85.165 62.7626L87.9804 59.9408C88.1694 59.7529 88.2939 59.5099 88.336 59.2467C88.378 58.9836 88.3355 58.7138 88.2144 58.4764L87.03 56.1462C87.3921 55.4588 87.6905 54.7397 87.9214 53.9978L90.3992 53.1962C90.6545 53.1138 90.8769 52.9524 91.0345 52.7353C91.1921 52.5182 91.2766 52.2566 91.2758 51.9884V48.0122C91.2769 47.7439 91.1926 47.4823 91.0351 47.2651C90.8777 47.0479 90.6552 46.8864 90.3998 46.804Z" fill="#24BB7D"/>
</svg>
